<svg xmlns="http://www.w3.org/2000/svg" width="38.865" height="38.999" viewBox="0 0 38.865 38.999">
  <path id="dribbble" d="M25.812,36.57c.032-.009.062-.022.093-.033C45.185,28.877,39.852,0,18.94,0a18.932,18.932,0,1,0,6.872,36.57ZM8.335,31.66c1.345-2.26,5.7-8.637,13.124-10.837a39.891,39.891,0,0,1,2.749,13.818A16.467,16.467,0,0,1,8.335,31.66Zm18.2,1.993a42.5,42.5,0,0,0-2.7-13.364,21.452,21.452,0,0,1,11.4,1.558A16.61,16.61,0,0,1,26.537,33.653ZM35.489,19.4a22.966,22.966,0,0,0-12.562-1.316c-.56-1.263-1.149-2.476-1.772-3.594A31.569,31.569,0,0,0,31.472,8.128,16.36,16.36,0,0,1,35.489,19.4Zm-5.7-12.957a30.382,30.382,0,0,1-9.88,5.95,44.291,44.291,0,0,0-7.257-8.779A16.475,16.475,0,0,1,29.791,6.443ZM10.39,4.771a41.665,41.665,0,0,1,7.178,8.455A52.112,52.112,0,0,1,2.718,15.553,16.6,16.6,0,0,1,10.39,4.771ZM2.418,17.93a54.5,54.5,0,0,0,16.429-2.6c.593,1.04,1.157,2.173,1.7,3.351C13.072,21.06,8.4,27.2,6.613,29.979a16.357,16.357,0,0,1-4.2-12.049Z" transform="translate(0.5 0.5)" fill="#501010" stroke="#501010" stroke-width="1"/>
</svg>
