<svg xmlns="http://www.w3.org/2000/svg" width="37.843" height="37.85" viewBox="0 0 37.843 37.85">
  <g id="instagram" transform="translate(-0.449)">
    <path id="Контур_26" data-name="Контур 26" d="M38.2,11.128a13.831,13.831,0,0,0-.88-4.592A9.7,9.7,0,0,0,31.778,1a13.866,13.866,0,0,0-4.592-.88C25.16.022,24.517,0,19.378,0s-5.782.022-7.8.111a13.834,13.834,0,0,0-4.592.88A9.235,9.235,0,0,0,3.629,3.179a9.319,9.319,0,0,0-2.181,3.35,13.868,13.868,0,0,0-.88,4.592c-.1,2.026-.118,2.669-.118,7.808s.022,5.782.111,7.8a13.83,13.83,0,0,0,.88,4.592A9.694,9.694,0,0,0,6.978,36.86a13.868,13.868,0,0,0,4.592.88c2.018.089,2.662.111,7.8.111s5.782-.022,7.8-.111a13.827,13.827,0,0,0,4.592-.88A9.681,9.681,0,0,0,37.3,31.322a13.877,13.877,0,0,0,.88-4.592c.089-2.019.111-2.662.111-7.8S38.285,13.147,38.2,11.128ZM34.788,26.582a10.375,10.375,0,0,1-.651,3.512,6.279,6.279,0,0,1-3.594,3.594,10.411,10.411,0,0,1-3.512.65c-2,.089-2.6.111-7.645.111s-5.656-.022-7.646-.111a10.369,10.369,0,0,1-3.512-.65,5.824,5.824,0,0,1-2.174-1.412A5.885,5.885,0,0,1,4.642,30.1a10.413,10.413,0,0,1-.65-3.512c-.089-2-.111-2.6-.111-7.646s.022-5.656.111-7.645a10.369,10.369,0,0,1,.65-3.512,5.753,5.753,0,0,1,1.42-2.174A5.876,5.876,0,0,1,8.235,4.2a10.418,10.418,0,0,1,3.512-.651c2-.089,2.6-.111,7.645-.111s5.656.022,7.646.111a10.375,10.375,0,0,1,3.512.651,5.82,5.82,0,0,1,2.174,1.412,5.883,5.883,0,0,1,1.412,2.174,10.417,10.417,0,0,1,.651,3.512c.089,2,.111,2.6.111,7.645S34.876,24.585,34.788,26.582Zm0,0" transform="translate(0 0)" fill="#501010"/>
    <path id="Контур_27" data-name="Контур 27" d="M134.672,124.5a9.723,9.723,0,1,0,9.723,9.723A9.726,9.726,0,0,0,134.672,124.5Zm0,16.03a6.307,6.307,0,1,1,6.307-6.307A6.308,6.308,0,0,1,134.672,140.53Zm0,0" transform="translate(-115.294 -115.294)" fill="#501010"/>
    <path id="Контур_28" data-name="Контур 28" d="M366.989,90.871a2.27,2.27,0,1,1-2.27-2.27A2.27,2.27,0,0,1,366.989,90.871Zm0,0" transform="translate(-335.233 -82.05)" fill="#501010"/>
  </g>
</svg>
