<?xml version="1.0" encoding="UTF-8"?>
<!DOCTYPE svg  PUBLIC '-//W3C//DTD SVG 1.1//EN'  'http://www.w3.org/Graphics/SVG/1.1/DTD/svg11.dtd'>
<svg version="1.1" xmlns="http://www.w3.org/2000/svg">
<defs>
<font id="Orelo-SemiWideBold" horiz-adv-x="1269">
<font-face font-family="Orelo SemiWide Bold" font-stretch="semi-expanded" font-weight="700" ascent="1638" bbox="-334 -475 2327 1810" cap-height="1434" descent="-410" panose-1="0 0 8 5 0 0 0 0 0 0" underline-position="-204" underline-thickness="14" unicode-range="U+0020-00FE" units-per-em="2048" x-height="956"/>
<missing-glyph/>
<glyph glyph-name="space" horiz-adv-x="491" unicode=" "/>
<glyph d="M92 139q0 62 43.5 106t106.5 44q61 0 104 -44t43 -106q0 -63 -42.5 -106t-104.5 -43q-63 0 -106.5 43t-43.5 106zM96 1434h291q-130 -578 -141 -1047h-8q-14 478 -142 1047z" glyph-name="exclam" horiz-adv-x="514" unicode="!"/>
<glyph d="M92 1329q0 66 42.5 109t107.5 43q72 0 111.5 -60.5t39.5 -146.5q0 -57 -13.5 -113.5t-41 -110t-77 -94.5t-114.5 -59l-4 4q50 21 88 61t58 87.5t29.5 93.5t7.5 88q-26 -47 -95 -47q-62 0 -100.5 44t-38.5 101zM455 1329q0 66 42 109t107 43q72 0 112 -60.5t40 -146.5 q0 -57 -13.5 -113.5t-41.5 -109.5t-77 -94.5t-114 -59.5l-4 4q49 21 86.5 61.5t57.5 88t29.5 93.5t8.5 87q-28 -47 -94 -47q-62 0 -100.5 44t-38.5 101z" glyph-name="quotedbl" horiz-adv-x="847" unicode='"'/>
<glyph d="M76 510l30 172h297l7 14h-334l33 172h380l269 586h26l-268 -586h596l268 586h27l-268 -586h262l-31 -172h-311l-6 -14h346l-31 -172h-393l-244 -530h-26l243 530h-596l-243 -530h-27l244 530h-250zM430 682h596l6 14h-596z" glyph-name="numbersign" horiz-adv-x="1474" unicode="#"/>
<glyph d="M57 311.5q-8 95.5 78 206.5h6q13 -83 52.5 -169t101 -163t151.5 -131t191 -65v594q-59 16 -91 25.5t-87.5 27t-87.5 31.5t-78 37t-73 44.5t-58 53t-47.5 64.5t-27.5 76t-11 91q0 89 33 161.5t87 119t128 78t151.5 45t161.5 14.5v186h10v-186q108 -1 203.5 -24 t164.5 -61.5t116.5 -90.5t65 -109.5t2.5 -121.5t-64 -123h-7q-6 69 -27.5 139t-61.5 139.5t-93.5 123t-131 86.5t-167.5 34v-565l51 -15q207 -56 279 -85q182 -72 242 -194q36 -74 36 -171q0 -93 -35.5 -169t-92 -124t-132 -81t-151 -46.5t-152.5 -13.5h-45v-216h-10v218 q-158 6 -288.5 48.5t-207 114t-84.5 167zM233 1178q0 -52 21.5 -93.5t53.5 -70t90 -54.5t108 -41.5t131 -37.5v563q-186 1 -295 -72.5t-109 -193.5zM647 -10q14 -2 43 -2q189 -1 298.5 69.5t109.5 186.5q0 63 -21.5 111t-48.5 77.5t-91 57.5t-108 41t-139 39q-25 7 -37 10 q-1 0 -3 1t-3 1v-592z" glyph-name="dollar" horiz-adv-x="1300" unicode="$"/>
<glyph d="M61 1071q0 164 100 271.5t236 107.5q137 0 236.5 -107t99.5 -272q0 -163 -99.5 -270t-236.5 -107q-136 0 -236 107t-100 270zM205 1071q0 -76 11 -141t33 -118t60 -83.5t88 -30.5t88.5 30.5t61.5 83.5t34 118t11 141q0 75 -11 140.5t-34 119t-61.5 84.5t-88.5 31 q-66 0 -111 -55t-63 -136.5t-18 -183.5zM414 -20l676 1474h26l-676 -1474h-26zM778 369q0 164 100 271.5t236 107.5t235 -107.5t99 -271.5q0 -163 -99 -270t-235 -107t-236 107t-100 270zM920 369q0 -76 11 -141t33 -118t60.5 -83.5t89.5 -30.5q50 0 88.5 30.5t60.5 83.5 t33 118t11 141q0 102 -18.5 183.5t-63.5 136t-111 54.5q-51 0 -89.5 -31t-60.5 -84.5t-33 -118.5t-11 -140z" glyph-name="percent" horiz-adv-x="1513" unicode="%"/>
<glyph d="M61 342q0 95 65.5 174t171.5 128.5t241 72.5q-132 135 -177 216t-45 175q0 154 123.5 249t356.5 95q219 0 330.5 -93.5t111.5 -242.5q0 -133 -120.5 -224t-342.5 -126q118 -116 529 -477q60 99 69 208t-27.5 201t-107.5 158l285 2q-28 -189 -77.5 -325t-133.5 -252 q51 -46 159 -141.5t158 -139.5h-315q-92 84 -129 119q-72 -63 -205.5 -100t-292.5 -37h-2q-136 0 -247 20.5t-197 62.5t-133.5 112.5t-47.5 164.5zM311 358q0 -75 26.5 -135.5t71 -99.5t106 -65t127 -37t138.5 -11q123 0 226.5 31t167.5 86q-70 64 -197 180t-182 166.5 t-125.5 116.5t-116.5 112q-114 -43 -178 -133.5t-64 -210.5zM532 1169q0 -89 52.5 -177t181.5 -216q132 46 205 139.5t73 200.5q0 49 -5.5 91t-22 87t-43 76.5t-71.5 51.5t-105 20q-128 0 -196.5 -72t-68.5 -201z" glyph-name="ampersand" horiz-adv-x="1650" unicode="&amp;"/>
<glyph d="M92 1294q0 64 43 107t107 43q72 0 111.5 -60t39.5 -145q0 -58 -13.5 -114t-41 -110t-77 -94.5t-114.5 -58.5l-4 4q50 21 88 61t58 87.5t29.5 93t7.5 86.5q-26 -47 -95 -47q-62 0 -100.5 45t-38.5 102z" glyph-name="quotesingle" horiz-adv-x="485" unicode="'"/>
<glyph d="M61 635q0 110 26.5 208.5t89.5 206t180.5 219.5t287.5 226h10q-119 -112 -200.5 -263.5t-116.5 -300t-35 -296.5q0 -244 88 -475.5t264 -384.5h-10q-171 121 -287.5 233.5t-180.5 218.5t-90 202.5t-26 205.5z" glyph-name="parenleft" horiz-adv-x="655" unicode="("/>
<glyph d="M0 -225q119 103 201 250.5t117.5 300t35.5 309.5q0 229 -89 462t-265 398h10q171 -114 288.5 -226t180.5 -219.5t89 -206t26 -208.5t-26 -206t-89.5 -202t-180 -218.5t-288.5 -233.5h-10z" glyph-name="parenright" horiz-adv-x="655" unicode=")"/>
<glyph d="M61 1096l89 186q233 -170 370 -227q-4 65 -29.5 150t-78.5 229h231q-53 -144 -78.5 -229t-29.5 -150q131 54 372 227l84 -186q-17 -1 -60 -4t-59 -4t-51.5 -3.5t-51 -4t-45 -4.5t-45 -5t-38.5 -5.5t-38 -6.5t-32 -7.5t-32 -9.5q52 -50 137.5 -104.5t234.5 -136.5 l-176 -127q-70 144 -116 224.5t-93 133.5q-81 -93 -207 -358l-178 127q150 81 237 136t140 105q-62 21 -151.5 30.5t-255.5 20.5q-33 2 -50 3z" glyph-name="asterisk" horiz-adv-x="1052" unicode="*"/>
<glyph d="M92 504v20h543v426h20v-426h543v-20h-543v-426h-20v426h-543z" glyph-name="plus" horiz-adv-x="1288" unicode="+"/>
<glyph d="M-39 -291q57 48 90 135.5t40 161t5 148.5h170q3 -58 -3.5 -110.5t-26.5 -106t-54 -97t-89 -79.5t-128 -56z" glyph-name="comma" horiz-adv-x="368" unicode=","/>
<glyph d="M102 489v177h664v-177h-664z" glyph-name="hyphen" horiz-adv-x="868" unicode="-"/>
<glyph d="M92 139q0 62 43.5 106t106.5 44q61 0 104 -44t43 -106q0 -63 -42.5 -106t-104.5 -43q-63 0 -106.5 43t-43.5 106z" glyph-name="period" horiz-adv-x="481" unicode="."/>
<glyph d="M10 -20l676 1474h27l-676 -1474h-27z" glyph-name="slash" horiz-adv-x="722" unicode="/"/>
<glyph d="M61 715q0 161 54 300.5t144 234t209 148.5t247 54t247 -54t209 -149t143.5 -234t53.5 -300q0 -158 -54 -296.5t-143.5 -233.5t-208.5 -149t-247 -54t-247 54t-209 149t-144 233.5t-54 296.5zM338 715q0 -117 12.5 -221t41.5 -197.5t72 -160.5t107 -106.5t144 -39.5 q79 0 143.5 39.5t107 106.5t71.5 160.5t42 197.5t13 221q0 145 -21.5 272t-64.5 231.5t-118 165t-173 60.5q-80 0 -144.5 -40.5t-107 -108.5t-71.5 -162.5t-41.5 -198.5t-12.5 -219z" glyph-name="zero" horiz-adv-x="1429" unicode="0"/>
<glyph d="M29 774v8q113 7 210 45t168 99t123.5 142t82.5 173t40 193h9q-5 -111 -20.5 -200.5t-45.5 -170.5t-78.5 -138.5t-115.5 -97t-161 -53t-212 -0.5zM662 0v1434h256v-1434h-256z" glyph-name="one" horiz-adv-x="1036" unicode="1"/>
<glyph d="M23 0v8q308 197 495.5 359t285 327.5t97.5 339.5q0 181 -83 295.5t-236 114.5q-86 0 -156.5 -37t-114.5 -96t-73 -133.5t-38.5 -148.5t-4.5 -142h-9q-61 59 -89 125t-22.5 128t43 119.5t100.5 99.5t157 67.5t207 25.5q115 0 219.5 -25.5t190 -74.5t136 -131.5 t50.5 -186.5q0 -65 -18.5 -128.5t-48.5 -118t-79.5 -111.5t-101 -103.5t-124.5 -99.5t-137.5 -94.5t-152 -93.5t-157 -91t-164.5 -92.5t-162 -93.5q323 3 541.5 32.5t355 81t268.5 140.5v-262h-1175z" glyph-name="two" horiz-adv-x="1259" unicode="2"/>
<glyph d="M61 522h9q35 -97 92 -167.5t128.5 -110t147.5 -57.5t162 -19q159 0 246.5 59.5t87.5 173.5q0 152 -146.5 240.5t-406.5 103.5v9q534 17 534 366q0 45 -8.5 87.5t-31 86.5t-57 76.5t-92 53t-130.5 20.5q-84 0 -153 -35.5t-113 -92t-72.5 -128.5t-39 -144.5t-5.5 -140.5h-6 q-61 59 -88 124t-20.5 125t44 115.5t100 96t154 64.5t199.5 24q85 0 161.5 -9.5t151.5 -33.5t129 -60.5t87.5 -95t33.5 -133.5q0 -72 -36.5 -131.5t-97 -100t-145.5 -69.5t-176 -45t-194 -22q680 -29 680 -402q0 -165 -137.5 -266.5t-384.5 -101.5q-242 0 -406.5 143 t-200.5 397z" glyph-name="three" horiz-adv-x="1251" unicode="3"/>
<glyph d="M16 420v6l867 1008h260v-996l272 2v-34l-272 2v-408h-258v412zM289 428l596 6v991q-106 -155 -223.5 -348.5t-181.5 -306.5t-191 -342z" glyph-name="four" horiz-adv-x="1425" unicode="4"/>
<glyph d="M78 432h6q56 -84 122 -143.5t137 -91t139.5 -45.5t146.5 -15q104 1 185 31.5t131.5 84.5t76 125t25.5 157q0 198 -99.5 314t-269.5 116q-153 0 -260 -94t-119 -228h-2h-12h-170l260 791l850 16v-18q-469 -11 -842 -5l-76 -686q44 116 161.5 192.5t287.5 76.5 q245 0 396 -138.5t151 -365.5q0 -107 -42.5 -202t-119 -166t-189.5 -113t-247 -43q-118 0 -219.5 34.5t-178 97t-133 142t-96.5 176.5z" glyph-name="five" horiz-adv-x="1400" unicode="5"/>
<glyph d="M66 616q0 159 55.5 300t161 253.5t270.5 190t373 106.5q99 18 209 21v-8q-97 -3 -201 -23q-105 -18 -190 -53t-146 -80.5t-107.5 -107.5t-75 -127.5t-46.5 -146t-24.5 -158t-6.5 -169.5q0 -71 2 -106q15 180 135.5 286.5t312.5 106.5q221 0 355.5 -119.5t134.5 -328.5 q0 -208 -163.5 -339.5t-426.5 -131.5q-173 0 -313.5 76t-224.5 222t-84 336zM346 438q20 -220 100.5 -334t241.5 -114q165 0 249.5 118t84.5 316t-85.5 310t-234.5 112q-150 0 -255 -109.5t-101 -298.5z" glyph-name="six" horiz-adv-x="1339" unicode="6"/>
<glyph d="M31 1415v33l1075 -14h8q-77 -95 -118 -146.5t-112 -143.5t-112 -150.5t-100 -148.5t-94.5 -158.5t-78 -159t-68 -170t-47 -172.5t-30.5 -185h-288q21 103 64 207t121 222t141 206t187 228t191.5 213t217.5 232q75 79 112 119z" glyph-name="seven" horiz-adv-x="1138" unicode="7"/>
<glyph d="M61 346q-1 73 36.5 137t99 109t143 79t167 53t173.5 26q-102 9 -195.5 35.5t-173.5 70.5t-128 112.5t-48 151.5q0 84 45.5 149t123.5 104t176 59t210 20t210 -20t176 -59t123.5 -104t45.5 -149q0 -83 -48 -151.5t-128 -112.5t-173.5 -70.5t-195.5 -35.5q88 -7 173.5 -26 t167 -53t143 -79t99 -109t36.5 -137q-1 -91 -52.5 -162.5t-139.5 -114.5t-199 -65t-238 -22t-238 22t-199 65t-139.5 114.5t-52.5 162.5zM330 352q0 -64 21 -126t62.5 -116t113 -87t163.5 -33q91 0 162.5 33t113 87t62.5 116t21 126q0 156 -88 258t-271 127 q-183 -25 -271.5 -127.5t-88.5 -257.5zM379 1120q0 -68 16.5 -126t51.5 -107.5t97 -82t146 -42.5q84 10 146 42.5t97 82t51.5 107.5t16.5 126q0 54 -18 108.5t-53.5 104t-97.5 80.5t-142 31t-142 -31t-97.5 -80.5t-53.5 -104t-18 -108.5z" glyph-name="eight" horiz-adv-x="1380" unicode="8"/>
<glyph d="M53 981q0 208 163.5 339.5t426.5 131.5q173 0 313.5 -76t225 -222.5t84.5 -336.5q0 -159 -56 -300t-162.5 -253.5t-271.5 -190t-373 -106.5q-88 -17 -206 -20v8q102 3 200 22q105 18 190 53t146 80.5t107.5 107.5t75 127.5t46.5 146t24.5 158t6.5 169.5q0 72 -2 107 q-15 -181 -136 -287.5t-312 -106.5q-220 0 -355 120t-135 329zM309 1010q0 -198 85.5 -310t234.5 -112q71 0 135.5 27t114.5 77t78.5 129t27.5 176q-20 217 -101.5 332t-240.5 115q-165 0 -249.5 -118t-84.5 -316z" glyph-name="nine" horiz-adv-x="1331" unicode="9"/>
<glyph d="M92 139q0 62 43.5 106t106.5 44q61 0 104 -44t43 -106q0 -63 -42.5 -106t-104.5 -43q-63 0 -106.5 43t-43.5 106zM92 762q0 62 43.5 105.5t106.5 43.5q61 0 104 -43.5t43 -105.5q0 -63 -42.5 -106.5t-104.5 -43.5q-63 0 -106.5 43.5t-43.5 106.5z" glyph-name="colon" horiz-adv-x="481" unicode=":"/>
<glyph d="M94 -291q57 48 90 135.5t40 161t5 148.5h170q3 -58 -3.5 -110.5t-26.5 -106t-54 -97t-89 -79.5t-128 -56zM160 762q0 62 43 105.5t106 43.5q61 0 104.5 -43.5t43.5 -105.5q0 -63 -43 -106.5t-105 -43.5q-63 0 -106 43.5t-43 106.5z" glyph-name="semicolon" horiz-adv-x="548" unicode=";"/>
<glyph d="M92 522l492 492l6 -8l-484 -484l484 -483l-6 -8z" glyph-name="less" horiz-adv-x="681" unicode="&lt;"/>
<glyph d="M92 449v20h901v-20h-901zM92 547v20h901v-20h-901z" glyph-name="equal" horiz-adv-x="1083" unicode="="/>
<glyph d="M102 39l484 483l-484 484l7 8l491 -492l-491 -491z" glyph-name="greater" horiz-adv-x="702" unicode="&gt;"/>
<glyph d="M84.5 1160.5q-3.5 119.5 130 205.5t340.5 86q260 0 388 -92.5t128 -265.5q0 -61 -17 -108t-66 -96t-84 -75t-123 -87q-22 -15 -33 -23q-175 -120 -248 -186t-68 -120h-8q-29 64 -39.5 118t0.5 100.5t30 83t62 77.5t83 71t106 75q43 31 67.5 50t59.5 51.5t54 59.5 t33.5 63.5t14.5 74.5q0 100 -75 160.5t-234 60.5q-78 1 -140 -19t-102 -56t-66.5 -83t-36.5 -103t-9 -113.5t14 -115.5h-8q-150 87 -153.5 206.5zM307 139q0 62 44.5 106t107.5 44q61 0 104 -44t43 -106q0 -63 -42.5 -106t-104.5 -43q-63 0 -107.5 43t-44.5 106z" glyph-name="question" horiz-adv-x="1118" unicode="?"/>
<glyph d="M61 512q0 181 120 323.5t324 218.5t453 76q225 0 411.5 -76t297.5 -218.5t111 -323.5q0 -145 -93 -261t-225 -165q-41 -14 -83.5 -17t-82 9t-70.5 36t-49.5 67.5t-19.5 101.5l2 505q122 18 211 107l-4 -612q0 -192 98 -195q28 11 48.5 30.5t33.5 52t20.5 63.5t11 82 t4.5 90.5t1 105.5q0 276 -163 442t-470 166q-299 0 -485.5 -170t-186.5 -438q0 -316 200 -504.5t558 -195.5v-11q-284 5 -504.5 93.5t-344.5 249t-124 368.5zM434 483q0 185 111 299.5t282 114.5q68 0 123 -21.5t92.5 -59.5t63.5 -90.5t37.5 -113t11.5 -129.5 q0 -80 -19.5 -151.5t-57.5 -131.5t-103 -95t-148 -35q-164 0 -278.5 115t-114.5 298zM655 483q0 -177 67.5 -281t168.5 -104q105 0 180.5 106t75.5 279q0 184 -73.5 283.5t-182.5 99.5q-100 0 -168 -103.5t-68 -279.5z" glyph-name="at" horiz-adv-x="1839" unicode="@"/>
<glyph d="M29 0l755 1458l732 -1458h-277l-258 539l-657 -2q-54 -121 -81 -215q-27 -92 -27 -174q0 -86 36 -148h-223zM328 547l647 2l-316 641q-29 -54 -92.5 -173.5t-94.5 -178.5t-73 -143t-71 -148z" glyph-name="A" horiz-adv-x="1544" unicode="A"/>
<glyph d="M92 0v1434h645q293 0 457 -88t164 -265q0 -84 -52 -150t-142 -106.5t-198 -63.5t-233 -28q697 -16 697 -358q0 -375 -652 -375h-686zM348 8h369q214 0 331 95t117 272q0 352 -493 352h-324v-719zM348 735h309q203 0 327 92.5t124 264.5q0 174 -104 253.5t-314 79.5h-342 v-690z" glyph-name="B" horiz-adv-x="1460" unicode="B"/>
<glyph d="M61 731q0 150 52 281.5t147 229t237.5 154t313.5 56.5q117 0 218 -27.5t171 -73t116 -105.5q45 -62 58 -126q5 -25 5 -50q-1 -40 -13 -82q-20 -68 -76 -124h-8q-7 88 -26.5 168.5t-57 157t-89 132t-128.5 89t-170 33.5q-119 0 -215 -54.5t-155.5 -145t-90.5 -202 t-31 -231.5q0 -132 36 -244t104.5 -197t176 -133t241.5 -49q161 2 299 78.5t229 235.5h10q-156 -518 -639 -518q-216 0 -380.5 101t-249.5 269.5t-85 376.5z" glyph-name="C" horiz-adv-x="1466" unicode="C"/>
<glyph d="M92 0v1434h529q245 0 441 -85.5t311.5 -250.5t115.5 -383q0 -215 -115 -379t-311.5 -250t-441.5 -86h-529zM348 8h273q276 0 433.5 189t157.5 518q0 331 -157.5 520.5t-433.5 189.5h-273v-1417z" glyph-name="D" horiz-adv-x="1550" unicode="D"/>
<glyph d="M92 0v1434l1139 2v-328q-40 67 -93 118.5t-119 85.5t-137 57t-161 35t-176.5 16.5t-196.5 4.5v-671q519 12 756 106v-217q-235 92 -756 105v-740q361 5 581 87t324 278v-373h-1161z" glyph-name="E" horiz-adv-x="1310" unicode="E"/>
<glyph d="M92 0v1434l1139 2v-328q-40 67 -93 118.5t-119 85.5t-137 57t-161 35t-176.5 16.5t-196.5 4.5v-671q519 12 756 106v-217q-235 92 -756 105v-748h-256z" glyph-name="F" horiz-adv-x="1259" unicode="F"/>
<glyph d="M61 731q0 151 52.5 282t148.5 229t241 154t320 56q116 0 217 -24t172 -64.5t118 -95.5t62 -114q7 -28 7 -56q0 -33 -10 -68q-18 -64 -70 -121h-8q-5 73 -24 144.5t-57 143t-91.5 126t-134 88t-177.5 33.5q-101 0 -186 -35t-143.5 -95t-99.5 -140t-60 -169.5t-19 -185.5 q0 -133 36.5 -247t107 -202.5t183.5 -139t255 -50.5q252 12 400 158.5t157 417.5q-110 -5 -243 -24.5t-277 -65.5t-201 -105v207q485 0 725 -2h6q-6 -232 -88.5 -408.5t-231.5 -274.5t-345 -99q-172 1 -313.5 59.5t-234.5 159.5t-143.5 236.5t-50.5 291.5z" glyph-name="G" horiz-adv-x="1529" unicode="G"/>
<glyph d="M92 0v1434h256v-678h797v678h256v-1434h-256v745h-797v-745h-256z" glyph-name="H" horiz-adv-x="1492" unicode="H"/>
<glyph d="M92 0v1434h256v-1434h-256z" glyph-name="I" horiz-adv-x="440" unicode="I"/>
<glyph d="M23 449h10q59 -122 181.5 -189t277.5 -67q161 0 245 88t84 241v912h258v-953q0 -238 -142.5 -368.5t-381.5 -130.5q-210 0 -352 125t-180 342z" glyph-name="J" horiz-adv-x="1171" unicode="J"/>
<glyph d="M92 0v1434h256v-676l649 676h387l-1028 -680q398 -141 668.5 -332t394.5 -422h-319q-100 248 -292 436.5t-460 308.5v-745h-256z" glyph-name="K" horiz-adv-x="1437" unicode="K"/>
<glyph d="M92 0v1434h256v-1426q359 5 572.5 86.5t316.5 278.5v-373h-1145z" glyph-name="L" horiz-adv-x="1271" unicode="L"/>
<glyph d="M92 0v1434h291l569 -897l-34 -80l507 977h265v-1434h-258v1421l-605 -1165l-723 1165q0 -290 5 -474t16.5 -337.5t36.5 -255.5t60 -185t91 -169h-221z" glyph-name="M" horiz-adv-x="1779" unicode="M"/>
<glyph d="M92 0v1434h320l909 -1055v1055h14v-1434h-14l-1217 1421q0 -290 5 -474t16.5 -337.5t36.5 -255.5t60 -185t91 -169h-221z" glyph-name="N" horiz-adv-x="1427" unicode="N"/>
<glyph d="M61 715q0 163 62.5 302.5t168 234t245.5 147.5t294 53t294 -53t246 -147.5t168.5 -234t62.5 -302.5q0 -161 -62.5 -299.5t-168.5 -232.5t-246 -147.5t-294 -53.5t-294 53.5t-245.5 147.5t-168 232.5t-62.5 299.5zM338 715q0 -205 58 -368.5t171 -260t264 -96.5 q150 0 263.5 96.5t172 260t58.5 368.5q0 206 -58.5 370.5t-172 261.5t-263.5 97q-151 0 -264 -97t-171 -261.5t-58 -370.5z" glyph-name="O" horiz-adv-x="1662" unicode="O"/>
<glyph d="M92 0v1434h676q124 0 229 -22.5t189 -68.5t132 -125t48 -184q0 -84 -32 -151.5t-86.5 -113t-131 -76.5t-163.5 -44.5t-185 -13.5h-420v-635h-256zM348 643h307q214 0 332.5 105.5t118.5 285.5q0 181 -100 286t-289 105h-369v-782z" glyph-name="P" horiz-adv-x="1400" unicode="P"/>
<glyph d="M61 715q0 163 62.5 302.5t168 234t245.5 147.5t294 53t294 -53t246 -147.5t168.5 -234t62.5 -302.5q0 -148 -52.5 -277t-143 -221.5t-211.5 -152t-259 -76.5q123 -5 223.5 -21.5t171.5 -42t121 -59.5t74.5 -73.5t29.5 -83.5v-18q0 -35 -13 -72q-17 -46 -54 -93h-6 q-32 74 -70 136t-94 123.5t-121.5 104t-155.5 68.5q-87 25 -186 25h-8h-17q-154 0 -294 53.5t-245.5 147.5t-168 232.5t-62.5 299.5zM338 715q0 -205 58 -368.5t171 -260t264 -96.5q150 0 263.5 96.5t172 260t58.5 368.5q0 206 -58.5 370.5t-172 261.5t-263.5 97 q-151 0 -264 -97t-171 -261.5t-58 -370.5z" glyph-name="Q" horiz-adv-x="1662" unicode="Q"/>
<glyph d="M92 0v1434h629q635 0 635 -349q0 -84 -46 -148.5t-128 -103.5t-181.5 -61t-220.5 -29q188 -5 299 -42t166.5 -111.5t73.5 -202.5q41 -296 88 -387h-283q-29 73 -75 387q-13 91 -33 151t-56.5 107t-94.5 68.5t-142 21.5l-375 2v-737h-256zM348 745h291q214 0 334.5 85 t120.5 255q0 171 -102.5 255.5t-291.5 84.5h-352v-680z" glyph-name="R" horiz-adv-x="1470" unicode="R"/>
<glyph d="M64 374q17 72 81 146h9q11 -70 41 -143t81.5 -143t116.5 -125t153 -89q86 -33 179 -32h6h6q197 0 311 69q116 70 117 185q0 62 -23.5 109.5t-51 76t-101 58t-120 43t-162.5 43.5q-7 2 -11 3q-232 65 -327 108q-196 88 -247 228q-20 56 -20 123q0 90 35.5 162.5t93 119.5 t135 78.5t157 44.5t163.5 13q116 0 218.5 -22.5t177 -61t125 -91.5t68.5 -111q9 -30 9 -61t-8 -61q-17 -64 -72 -122h-8q-6 69 -27.5 139t-63.5 140t-99 123.5t-140 87.5q-81 33 -174 32h-6h-14q-174 0 -285 -72q-115 -74 -115 -192q0 -39 13 -72.5t33.5 -59t55.5 -48.5 t70.5 -39.5t87 -34t95.5 -30.5t106 -30q10 -3 15 -4q228 -61 314 -97q188 -78 245 -205q30 -66 30 -150q0 -92 -38 -167t-98.5 -123t-141.5 -80.5t-162.5 -46t-165.5 -13.5q-118 0 -227 19t-196 52.5t-148 83.5q-60 51 -86 109q-16 36 -17 76q0 26 7 54z" glyph-name="S" horiz-adv-x="1384" unicode="S"/>
<glyph d="M39 1108v326h1442v-326q-50 75 -103 129.5t-123.5 98t-162 66t-203.5 23.5v-1425h-258v1425q-150 -1 -262.5 -39t-188.5 -105t-141 -173z" glyph-name="T" horiz-adv-x="1519" unicode="T"/>
<glyph d="M84 524v910h258v-942q0 -80 8.5 -145.5t34 -134t67.5 -115.5t114 -76.5t169 -30.5q144 0 246 35t161 103q58 66 84 156q24 83 23 191v17v942h13v-940v-18q0 -108 -23 -192q-25 -90 -84.5 -160t-164.5 -106t-255 -36q-178 1 -305 37t-202 107.5t-109.5 169t-34.5 228.5z " glyph-name="U" horiz-adv-x="1345" unicode="U"/>
<glyph d="M29 1434h274l569 -1180q17 35 50 102q81 166 119 245.5t93.5 204.5t75.5 194q19 68 37 156q12 59 12 109q-1 23 -3 44q-8 65 -35 125h229l-698 -1459z" glyph-name="V" horiz-adv-x="1478" unicode="V"/>
<glyph d="M23 1434h278l504 -1112l502 1112h12l516 -1127l479 1127h13l-615 -1452l-528 1148l-520 -1148z" glyph-name="W" horiz-adv-x="2351" unicode="W"/>
<glyph d="M29 -14l555 671l-541 777h299l403 -580l480 580h18l-489 -592l589 -848h-299l-452 651l-545 -659h-18z" glyph-name="X" horiz-adv-x="1366" unicode="X"/>
<glyph d="M23 1434h305l536 -764l533 764h16l-541 -777v-657h-256v598z" glyph-name="Y" horiz-adv-x="1435" unicode="Y"/>
<glyph d="M72 0l901 1425q-268 -3 -439 -38t-270 -99t-176 -176v324l1178 -2l-901 -1426q145 2 248 8t198 22t162 41.5t128 66.5t108 96.5t91 132.5v-375h-1228z" glyph-name="Z" horiz-adv-x="1363" unicode="Z"/>
<glyph d="M92 -236v1731h506v-8h-264v-1714h264v-9h-506z" glyph-name="bracketleft" horiz-adv-x="598" unicode="["/>
<glyph d="M10 1454h27l676 -1474h-27z" glyph-name="backslash" horiz-adv-x="722" unicode="\"/>
<glyph d="M0 -227h264v1714h-264v8h506v-1731h-506v9z" glyph-name="bracketright" horiz-adv-x="540" unicode="]"/>
<glyph d="M92 721l512 711l-2 2l10 10l11 -10l-2 -2l507 -715l-10 -10l-506 712l-510 -708z" glyph-name="asciicircum" horiz-adv-x="1220" unicode="^"/>
<glyph d="M115 -14h1018v-176h-1018v176z" glyph-name="underscore" horiz-adv-x="1245" unicode="_"/>
<glyph d="M92 1288h250q29 -140 131 -264h-16q-194 93 -365 264z" glyph-name="grave" horiz-adv-x="565" unicode="`"/>
<glyph d="M61 258q5 238 431 283q98 9 335 34v156q0 120 -66.5 182t-195.5 62h-6q-66 0 -122 -22q-59 -23 -99 -60t-71 -86t-48 -96t-26 -95h-7q-46 48 -56 100q-3 15 -4 29q0 36 19 70q26 47 79.5 85t143 60.5t199.5 22.5q253 0 383.5 -83.5t130.5 -244.5v-405v-24q-1 -52 3 -84 q4 -38 22 -72.5t53.5 -49.5t95.5 -18v-4q-107 -20 -188 -20q-21 0 -39 2q-92 6 -143 62.5t-58 170.5q-19 -102 -107.5 -166.5t-248.5 -64.5q-404 0 -410 276zM324 262q0 -51 12 -95t38 -81t73.5 -58.5t111.5 -21.5q103 0 185.5 72.5t82.5 191.5v297q-169 -16 -247 -26 q-133 -13 -194.5 -88t-61.5 -191z" glyph-name="a" horiz-adv-x="1249" unicode="a"/>
<glyph d="M92 0v1339q142 21 252 127v-862q25 172 121.5 276.5t265.5 104.5q136 0 244 -61.5t170 -176.5t63 -264q-1 -111 -39 -205.5t-102.5 -159t-151.5 -100.5t-184 -36q-86 0 -155.5 31t-115.5 86t-75 123.5t-41 148.5v-371h-252zM346 483q0 -210 90.5 -337.5t218.5 -127.5 q122 0 203.5 125.5t81.5 339.5q0 213 -81.5 339t-203.5 126q-132 0 -220.5 -120.5t-88.5 -344.5z" glyph-name="b" unicode="b"/>
<glyph d="M61 481q0 104 38.5 194.5t110.5 159t184.5 108.5t250.5 40q105 0 190 -23t135 -62q50 -38 74 -85q16 -31 16 -64q0 -17 -4 -35q-12 -52 -57 -98h-6q-9 49 -23 93.5t-42 95t-63.5 86.5t-91.5 60t-124 24q-85 -1 -151.5 -34t-107.5 -89.5t-62 -127.5t-21 -151 q0 -185 101 -292.5t290 -108.5q267 0 408 199h12q-66 -179 -200.5 -284t-331.5 -105q-155 0 -275.5 66.5t-185 180t-64.5 252.5z" glyph-name="c" horiz-adv-x="1155" unicode="c"/>
<glyph d="M70 483q1 149 63 264t170 176.5t244 61.5q165 0 261 -100.5t124 -268.5v723q142 21 252 127v-1466h-252v358q-14 -78 -43 -144t-75.5 -119t-114.5 -83t-152 -30q-97 0 -184 36t-151.5 100.5t-102.5 159t-39 205.5zM338 483q0 -214 81.5 -339.5t203.5 -125.5 q128 0 218.5 127.5t90.5 337.5q0 224 -88.5 344.5t-220.5 120.5q-122 0 -203.5 -126t-81.5 -339z" glyph-name="d" horiz-adv-x="1275" unicode="d"/>
<glyph d="M61 481q0 102 38 192.5t108.5 159.5t178.5 109.5t239 40.5q115 0 207 -37t148 -98t85.5 -135t30.5 -154h-2l2 -4h-789q5 -179 106 -280.5t285 -102.5q132 0 236 53t162 146h12q-31 -80 -76.5 -147t-109 -123t-151 -87.5t-189.5 -31.5q-115 0 -213 39.5t-165 107t-105 159 t-38 193.5zM307 565l576 2q-2 81 -17.5 151t-46 128t-83 91.5t-122.5 33.5q-99 -1 -170 -56.5t-104 -143.5t-33 -198v-8z" glyph-name="e" horiz-adv-x="1148" unicode="e"/>
<glyph d="M2 950v6h231v101q0 201 113 298t363 97q133 0 227.5 -36t133.5 -90q32 -45 32 -98q0 -10 -2 -21q-7 -65 -64 -122h-6q-67 361 -319 361q-37 0 -67.5 -8t-52.5 -19.5t-39.5 -32t-28.5 -38.5t-18.5 -47t-11.5 -48t-6 -51.5t-2 -48.5v-47v-150h7l546 15v-158l-546 137h-7 v-950h-252v950h-231z" glyph-name="f" horiz-adv-x="1134" unicode="f"/>
<glyph d="M70 240q0 153 231 188q-154 80 -154 229q0 82 46.5 147t122 102.5t161.5 57t174 19.5h13l2 2q126 2 253 110t168 253h7q35 -63 35 -115q0 -8 -1 -15q-5 -57 -39 -99.5t-95 -72t-131.5 -45.5t-149.5 -20q84 -6 160 -28.5t141 -60.5t104 -99t39 -136q0 -81 -46 -142 t-122.5 -94t-161.5 -49t-176 -16q-206 0 -342 68q-125 -29 -125 -98q0 -44 90.5 -62t419.5 -49q506 -53 506 -324q0 -65 -35.5 -118t-91 -86.5t-127.5 -56t-141 -31.5t-135 -9q-84 0 -166.5 9t-169.5 30t-141 65.5t-54 106.5q0 50 30.5 86.5t86.5 56t112.5 29.5t131.5 15 l4 -4q-68 -11 -100.5 -59t-32.5 -118q0 -87 84 -148.5t215 -61.5q144 0 229.5 56.5t85.5 145.5q0 67 -47.5 114t-117 68.5t-163.5 30.5q-283 26 -359 41q-159 29 -204 97q-24 37 -24 90zM406 657q0 -295 245 -295q248 0 248 295q0 45 -5.5 85t-22 84.5t-42.5 76.5t-72 53 t-106 21q-59 0 -104.5 -21t-71.5 -53t-42 -76.5t-21.5 -84.5t-5.5 -85z" glyph-name="g" horiz-adv-x="1249" unicode="g"/>
<glyph d="M92 0v1352q143 24 252 129v-869q29 173 138 273t292 100q165 0 249.5 -93t86.5 -269v-623h-254v690q0 128 -44.5 192t-141.5 64q-54 0 -107 -25t-100 -72.5t-79.5 -127.5t-39.5 -180v-541h-252z" glyph-name="h" horiz-adv-x="1200" unicode="h"/>
<glyph d="M92 1235q0 59 45.5 100t112.5 41q68 0 113 -41t45 -100q0 -60 -44.5 -100.5t-113.5 -40.5q-67 0 -112.5 40.5t-45.5 100.5zM123 0v850q70 10 137.5 45t116.5 82v-977h-254z" glyph-name="i" horiz-adv-x="499" unicode="i"/>
<glyph d="M-334 -115h12q90 -153 248 -153q85 0 133.5 55.5t49.5 159.5v903q124 22 251 127v-1057q-3 -348 -335 -348q-79 0 -141 24t-103.5 69.5t-68.5 98t-46 121.5zM66 1235q0 59 45.5 100t113.5 41q67 0 112.5 -41t45.5 -100q0 -60 -45.5 -100.5t-112.5 -40.5q-69 0 -114 40.5 t-45 100.5z" glyph-name="j" horiz-adv-x="458" unicode="j"/>
<glyph d="M92 0v1321q143 24 252 129v-895l401 401h365l-760 -411q575 -255 801 -545h-322q-169 342 -485 537v-537h-252z" glyph-name="k" horiz-adv-x="1169" unicode="k"/>
<glyph d="M92 0v1352q143 24 252 129v-1481h-252z" glyph-name="l" horiz-adv-x="436" unicode="l"/>
<glyph d="M92 0v850q142 21 252 127v-340q52 348 371 348q174 0 254 -87.5t82 -264.5v-8q22 172 109.5 266t260.5 94q175 0 255.5 -87.5t82.5 -264.5v-633h-268v748q0 97 -41 146.5t-133 49.5q-113 0 -189.5 -118.5t-76.5 -342.5v-483h-269v748q0 97 -40.5 146.5t-131.5 49.5 q-105 0 -180 -101t-86 -292v-551h-252z" glyph-name="m" horiz-adv-x="1849" unicode="m"/>
<glyph d="M92 0v850q142 21 252 127v-365q29 173 138 273t292 100q165 0 249.5 -93t86.5 -269v-623h-254v690q0 128 -44.5 192t-141.5 64q-54 0 -107 -25t-100 -72.5t-79.5 -127.5t-39.5 -180v-541h-252z" glyph-name="n" horiz-adv-x="1200" unicode="n"/>
<glyph d="M61 481q0 147 77 262.5t207.5 177.5t289.5 62q158 0 288.5 -62t207.5 -177.5t77 -262.5q0 -146 -77 -261t-207.5 -176.5t-288.5 -61.5q-159 0 -289.5 61.5t-207.5 176.5t-77 261zM338 481q0 -243 79.5 -367t217.5 -124q137 0 216 124t79 367q0 245 -79 369.5t-216 124.5 q-138 0 -217.5 -124.5t-79.5 -369.5z" glyph-name="o" unicode="o"/>
<glyph d="M92 -410v1260q142 21 252 127v-373q25 172 121.5 276.5t265.5 104.5q136 0 244 -61.5t170 -176.5t63 -264q-1 -111 -39 -205.5t-102.5 -159t-151.5 -100.5t-184 -36q-86 0 -155.5 31t-115.5 86t-75 123.5t-41 148.5v-781h-252zM346 483q0 -210 90.5 -337.5t218.5 -127.5 q122 0 203.5 125.5t81.5 339.5q0 213 -81.5 339t-203.5 126q-132 0 -220.5 -120.5t-88.5 -344.5z" glyph-name="p" unicode="p"/>
<glyph d="M70 483q1 149 63 264t170 176.5t244 61.5q165 0 261 -100.5t124 -268.5v361q49 -47 116.5 -82t137.5 -45v-1260h-254v768q-14 -78 -43 -144t-75.5 -119t-114.5 -83t-152 -30q-97 0 -184 36t-151.5 100.5t-102.5 159t-39 205.5zM338 483q0 -214 81.5 -339.5t203.5 -125.5 q128 0 218.5 127.5t90.5 337.5q0 224 -88.5 344.5t-220.5 120.5q-122 0 -203.5 -126t-81.5 -339z" glyph-name="q" horiz-adv-x="1282" unicode="q"/>
<glyph d="M92 0v850q142 21 252 127v-438q6 70 18 130t36 119.5t57.5 101t85 67.5t116.5 26q101 0 168 -43.5t87 -107.5q11 -34 11 -71q0 -33 -8 -67q-18 -74 -75 -135h-6q-2 54 -9 104t-23.5 103.5t-40.5 92.5t-62.5 64t-86.5 25h-3q-68 0 -119 -43q-52 -44 -81.5 -118.5 t-44.5 -153.5t-20 -168v-465h-252z" glyph-name="r" horiz-adv-x="962" unicode="r"/>
<glyph d="M74 162q-11 25 -11 52q0 62 60 134h6q8 -59 39.5 -120.5t83.5 -115.5q50 -55 130 -90q77 -34 166 -34h5h7q155 0 238 43q85 44 85 116q0 36 -18 62.5t-70.5 49.5t-82 32.5t-117.5 32.5q-12 4 -19.5 5.5t-18.5 4.5t-20 6q-81 20 -136.5 37t-120.5 46.5t-104 63.5t-65.5 85 t-26.5 114q0 93 63.5 162.5t160 102t210.5 32.5q110 0 200 -21t146 -57q54 -37 82 -81q20 -33 21 -68q0 -13 -3 -26q-10 -50 -55 -97h-6q-3 47 -16.5 92.5t-42 91.5t-69.5 81q-41 34 -103 56q-60 21 -133 21h-6.5h-7.5q-165 -1 -243 -49q-80 -50 -79 -119q0 -33 20 -58.5 t76 -48.5t95.5 -35t137.5 -38q32 -9 48 -13q61 -16 101 -27.5t88 -28.5t79 -34t62.5 -41t49 -51.5t28.5 -64t11 -80.5q0 -100 -64 -171.5t-162 -103.5t-218 -32q-178 0 -311 50t-170 132z" glyph-name="s" horiz-adv-x="1064" unicode="s"/>
<glyph d="M6 889v6q84 13 158 57t124 103.5t79.5 128t31.5 133.5h7q61 -37 82 -91q12 -31 12 -63q0 -22 -6 -45q-20 -134 -322 -200l338 38l481 76v-158l-477 76l-2 -579q0 -129 50.5 -179.5t160.5 -50.5q103 0 185 56t124 161h12q-19 -66 -40.5 -116.5t-56 -101.5t-77.5 -84 t-105 -53.5t-138 -20.5q-194 0 -279.5 90.5t-85.5 267.5v580z" glyph-name="t" horiz-adv-x="1089" unicode="t"/>
<glyph d="M90 315v527q142 23 254 129v-752q0 -108 50 -153.5t147 -45.5q55 0 109 29.5t100 84.5t75 148t29 207v353q148 25 254 127v-969h-254v358q-29 -173 -133.5 -274.5t-274.5 -101.5q-182 0 -269 77t-87 256z" glyph-name="u" horiz-adv-x="1200" unicode="u"/>
<glyph d="M25 956h276l369 -708l356 708h12l-491 -979z" glyph-name="v" horiz-adv-x="1062" unicode="v"/>
<glyph d="M31 956h280l383 -704l357 704h12l373 -710l366 710h13l-506 -979l-381 709l-359 -709z" glyph-name="w" horiz-adv-x="1845" unicode="w"/>
<glyph d="M23 0l430 416l-424 540h288l299 -381l394 381h18l-403 -391l444 -565h-291l-317 406l-420 -406h-18z" glyph-name="x" horiz-adv-x="1093" unicode="x"/>
<glyph d="M14 956h273l362 -700l342 700h15l-478 -979l-147 -387h-229l372 396z" glyph-name="y" horiz-adv-x="1017" unicode="y"/>
<glyph d="M39 0l639 950l-615 -20v35l893 -9l-624 -950l645 29v-35h-938z" glyph-name="z" horiz-adv-x="1007" unicode="z"/>
<glyph d="M61 627v8h41q99 22 99 137l-37 459q0 128 68.5 196t201.5 68h287v-8h-152q-86 -1 -124.5 -53t-38.5 -152l34 -510q0 -51 -31 -96t-87 -45q56 -1 87 -47t31 -97l-34 -510q0 -99 38.5 -151t124.5 -53h152v-9h-287q-133 0 -201.5 68.5t-68.5 198.5l37 456q0 115 -101 140 h-39z" glyph-name="braceleft" horiz-adv-x="720" unicode="{"/>
<glyph d="M92 -205v1639h27v-1639h-27z" glyph-name="bar" horiz-adv-x="210" unicode="|"/>
<glyph d="M45 -227h152q86 1 124.5 53t38.5 151l-34 510q0 51 31 97t87 47q-56 0 -87 45t-31 96l34 510q0 100 -38.5 152t-124.5 53h-152v8h287q133 0 201.5 -68t68.5 -196l-37 -459q0 -115 99 -137h41v-8h-39q-101 -25 -101 -140l37 -456q0 -130 -68.5 -198.5t-201.5 -68.5h-287v9 z" glyph-name="braceright" horiz-adv-x="765" unicode="}"/>
<glyph d="M92 1231h14q23 -46 51 -65t74 -19q40 0 82.5 25.5t86.5 51t87 25.5q63 0 98 -49.5t58 -157.5h-14q-23 46 -51 65t-74 19q-40 0 -83 -25.5t-87.5 -51t-87.5 -25.5q-62 0 -96.5 49.5t-57.5 157.5z" glyph-name="asciitilde" horiz-adv-x="735" unicode="~"/>
<glyph glyph-name="uni00A0" horiz-adv-x="491" unicode=" "/>
<glyph d="M92 870q0 62 43.5 106t106.5 44q61 0 104 -44t43 -106q0 -63 -42.5 -106t-104.5 -43q-63 0 -106.5 43t-43.5 106zM96 -410q128 572 142 1028h8q11 -448 141 -1028h-291z" glyph-name="exclamdown" horiz-adv-x="483" unicode="¡"/>
<glyph d="M61 481q0 203 138 343t385 157v272h10v-272q16 2 51 2q105 0 190 -23t135.5 -61.5t74 -85.5t11.5 -99t-57 -98h-6q-9 49 -23 93.5t-42 95t-63.5 86.5t-91.5 60t-124 24q-85 -1 -151.5 -34t-107.5 -89.5t-62 -127.5t-21 -151q0 -185 101 -292.5t290 -108.5q267 0 408 199 h12q-66 -178 -198 -282t-326 -107v-218h-10v218q-232 0 -377.5 143t-145.5 356z" glyph-name="cent" horiz-adv-x="1155" unicode="¢"/>
<glyph d="M53 715v10h197q-68 173 -68 303q0 33 6.5 68t25 77.5t46.5 81t76 75t109 63t148.5 43t192.5 16.5q120 0 221 -25.5t169 -68t110.5 -99.5t52 -119t-13 -127t-78.5 -122h-8q-5 87 -21 163t-49.5 149.5t-83 125.5t-126 83.5t-173.5 31.5q-80 0 -142 -21t-100 -54.5 t-62.5 -79t-34 -90.5t-9.5 -93q0 -64 15.5 -136t33 -120t48.5 -125h645v-10h-641q32 -79 48.5 -124t32 -113.5t15.5 -127.5q0 -106 -58 -192t-204 -150q232 2 393 21t282.5 61t195 110.5t114.5 170.5v-371h-1186q190 119 190 344q0 31 -5.5 65t-10.5 57.5t-20 65.5 t-20.5 57.5t-26.5 65.5t-25 60h-201z" glyph-name="sterling" horiz-adv-x="1419" unicode="£"/>
<glyph d="M92 238l199 198q-84 62 -84 158q0 99 88 156l-201 202l10 11l203 -205q70 45 180 45q77 0 146 -27l184 185l10 -11l-182 -180q57 -29 88 -75.5t31 -100.5q0 -118 -119 -178l180 -180l-10 -11l-182 185q-69 -27 -146 -27q-112 0 -182 45l-203 -201zM369 594q0 -43 8 -74 l74 74l-74 74q-8 -31 -8 -74zM381 504q12 -49 40.5 -80t65.5 -31q58 0 91 72l-119 119zM381 684l80 -80l117 117q-33 72 -91 72q-37 0 -64.5 -30.5t-41.5 -78.5zM469 594l115 -115q18 49 18 115q0 64 -18 113z" glyph-name="currency" horiz-adv-x="919" unicode="¤"/>
<glyph d="M23 1434h305l536 -764l533 764h16l-541 -777v-4h502v-10h-502v-201h502v-10h-502v-432h-256v432h-493v10h493v156l-30 45h-463v10h455z" glyph-name="yen" horiz-adv-x="1435" unicode="¥"/>
<glyph d="M92 -205v697h27v-697h-27zM92 737v697h27v-697h-27z" glyph-name="brokenbar" horiz-adv-x="210" unicode="¦"/>
<glyph d="M92 1128q0 43 33 73t82 30q51 0 85 -30t34 -73q0 -44 -34 -74t-85 -30q-49 0 -82 30t-33 74zM406 1128q0 43 33 73t83 30t83.5 -30t33.5 -73q0 -45 -33 -74.5t-84 -29.5t-83.5 29.5t-32.5 74.5z" glyph-name="dieresis" horiz-adv-x="729" unicode="¨"/>
<glyph d="M61 469q0 139 69.5 261t192 210t297.5 139t377 51q205 0 383 -51t303 -138.5t197 -210t72 -261.5q0 -186 -122 -337.5t-341 -239t-492 -87.5q-269 0 -484 87.5t-333.5 239t-118.5 337.5zM319 469q0 -185 80 -332.5t235 -234t361 -86.5q161 0 294.5 50t222 138 t136.5 207.5t48 257.5t-48 257t-136.5 206.5t-221.5 137.5t-295 50q-155 0 -283 -50t-213.5 -137t-132.5 -206.5t-47 -257.5zM489 481q0 104 38.5 194.5t110.5 159t184.5 108.5t250.5 40q106 0 191.5 -23t136.5 -61.5t74.5 -85.5t11.5 -99t-57 -98h-7q-9 49 -23.5 93.5 t-42.5 95t-64 86.5t-92 60t-124 24q-85 -1 -151.5 -34t-107.5 -89.5t-62 -127.5t-21 -151q0 -185 101 -292.5t290 -108.5q267 0 408 199h12q-65 -179 -200 -284t-332 -105q-154 0 -274.5 66.5t-185.5 180t-65 252.5z" glyph-name="copyright" horiz-adv-x="2013" unicode="©"/>
<glyph d="M92 502l545 450h10l-344 -450l344 -451h-10zM453 512l546 451h11l-344 -451l344 -451h-11z" glyph-name="guillemotleft" horiz-adv-x="1054" unicode="«"/>
<glyph d="M102 489v177h664v-177h-664z" glyph-name="uni00AD" horiz-adv-x="868" unicode="­"/>
<glyph d="M61 469q0 139 69.5 261t192 210t297.5 139t377 51q205 0 383 -51t303 -138.5t197 -210t72 -261.5q0 -186 -122 -337.5t-341 -239t-492 -87.5q-269 0 -484 87.5t-333.5 239t-118.5 337.5zM319 469q0 -185 80 -332.5t235 -234t361 -86.5q161 0 294.5 50t222 138 t136.5 207.5t48 257.5t-48 257t-136.5 206.5t-221.5 137.5t-295 50q-155 0 -283 -50t-213.5 -137t-132.5 -206.5t-47 -257.5zM584 23v890h413q192 0 298 -53.5t106 -163.5q0 -52 -30 -92t-83 -64.5t-117 -37.5t-141 -17q177 -4 255 -54t93 -169q20 -172 56 -239h-187 q-17 42 -49 239q-14 113 -57.5 165t-143.5 52l-243 2v-458h-170zM754 485h190q133 0 209 53.5t76 157.5q0 106 -64 158.5t-182 52.5h-229v-422z" glyph-name="registered" horiz-adv-x="2013" unicode="®"/>
<glyph d="M92 1030v90h617v-90h-617z" glyph-name="macron" horiz-adv-x="800" unicode="¯"/>
<glyph d="M61 1245q0 88 75.5 148.5t203.5 60.5q126 0 202 -60.5t76 -148.5q0 -90 -75.5 -150.5t-202.5 -60.5q-128 0 -203.5 60t-75.5 151zM223 1245q0 -83 32 -142t85 -59q52 0 84.5 59t32.5 142q0 80 -32.5 139.5t-84.5 59.5q-53 0 -85 -59t-32 -140z" glyph-name="degree" horiz-adv-x="679" unicode="°"/>
<glyph d="M92 1024q102 124 131 264h250q-172 -172 -364 -264h-17z" glyph-name="acute" horiz-adv-x="565" unicode="´"/>
<glyph d="M35 1034q0 84 32 152t87 114t131.5 76.5t163 44t184.5 13.5h676v-1434h-256v635h-420q-98 0 -184.5 13.5t-163 44.5t-131.5 76.5t-87 113t-32 151.5zM295 1034q0 -180 119 -285.5t334 -105.5h305v782h-367q-191 0 -291 -105t-100 -286zM1495 0v1481q109 -105 252 -129 v-1352h-252z" glyph-name="paragraph" horiz-adv-x="1839" unicode="¶"/>
<glyph d="M92 532q0 62 43.5 106t106.5 44q61 0 104 -44t43 -106q0 -63 -42.5 -106t-104.5 -43q-63 0 -106.5 43t-43.5 106z" glyph-name="periodcentered" horiz-adv-x="481" unicode="·"/>
<glyph d="M92 -399q121 0 177.5 29.5t56.5 95.5q0 53 -49 77.5t-156 24.5l92 180l10 -6l-53 -137q145 0 213 -30.5t68 -96.5q0 -77 -86.5 -112.5t-272.5 -35.5v11z" glyph-name="cedilla" horiz-adv-x="542" unicode="¸"/>
<glyph d="M92 51l342 451l-342 450h10l545 -450l-545 -451h-10zM453 41l344 451l-344 450h10l547 -450l-547 -451h-10z" glyph-name="guillemotright" horiz-adv-x="1054" unicode="»"/>
<glyph d="M119 -76q0 27 5 52.5t10.5 46t21 43.5t24.5 37.5t34.5 37.5t37 33.5t45 35t46.5 33.5t54.5 36.5t55.5 37.5q89 61 135 94t92.5 74t63.5 73t14 65h8q29 -67 40.5 -121.5t2 -101.5t-27.5 -83.5t-59.5 -76t-81 -70t-105.5 -74.5q-48 -34 -69.5 -49.5t-61 -50t-58.5 -61 t-35 -65t-16 -77.5q0 -87 74 -140.5t233 -53.5q76 -1 137.5 17t102 50.5t67.5 76t37.5 95t9.5 105t-14 108.5h8q142 -75 151 -182q7 -94 -92 -172q-123 -96 -332 -106q-22 -1 -44 -1q-261 0 -387.5 86.5t-126.5 247.5zM530 889q0 62 43.5 105.5t106.5 43.5t106 -43.5 t43 -105.5q0 -63 -43 -106.5t-106 -43.5t-106.5 43.5t-43.5 106.5z" glyph-name="questiondown" horiz-adv-x="1128" unicode="¿"/>
<glyph d="M29 0l755 1458l732 -1458h-277l-258 539l-657 -2q-54 -122 -81 -215.5t-26.5 -177t35.5 -144.5h-223zM328 547l647 2l-316 641q-29 -54 -92.5 -173.5t-94.5 -178.5t-73 -143t-71 -148zM555 1810h250q29 -140 131 -264h-16q-194 93 -365 264z" glyph-name="Agrave" horiz-adv-x="1544" unicode="À"/>
<glyph d="M29 0l755 1458l732 -1458h-277l-258 539l-657 -2q-54 -122 -81 -215.5t-26.5 -177t35.5 -144.5h-223zM328 547l647 2l-316 641q-29 -54 -92.5 -173.5t-94.5 -178.5t-73 -143t-71 -148zM666 1546q102 124 131 264h250q-171 -171 -365 -264h-16z" glyph-name="Aacute" horiz-adv-x="1544" unicode="Á"/>
<glyph d="M29 0l755 1458l732 -1458h-277l-258 539l-657 -2q-54 -122 -81 -215.5t-26.5 -177t35.5 -144.5h-223zM328 547l647 2l-316 641q-29 -54 -92.5 -173.5t-94.5 -178.5t-73 -143t-71 -148zM502 1546l289 264l288 -264h-16l-272 142l-273 -142h-16z" glyph-name="Acircumflex" horiz-adv-x="1544" unicode="Â"/>
<glyph d="M29 0l755 1458l732 -1458h-277l-258 539l-657 -2q-54 -122 -81 -215.5t-26.5 -177t35.5 -144.5h-223zM328 547l647 2l-316 641q-29 -54 -92.5 -173.5t-94.5 -178.5t-73 -143t-71 -148zM514 1753h14q23 -46 51 -65t74 -19q40 0 82.5 25.5t86.5 51.5t87 26q63 0 98 -49.5 t58 -157.5h-14q-23 46 -51 65t-74 19q-40 0 -83 -25.5t-87.5 -51.5t-87.5 -26q-62 0 -96.5 49.5t-57.5 157.5z" glyph-name="Atilde" horiz-adv-x="1544" unicode="Ã"/>
<glyph d="M29 0l755 1458l732 -1458h-277l-258 539l-657 -2q-54 -122 -81 -215.5t-26.5 -177t35.5 -144.5h-223zM328 547l647 2l-316 641q-29 -54 -92.5 -173.5t-94.5 -178.5t-73 -143t-71 -148zM518 1651q0 43 33 72.5t82 29.5q51 0 85 -29.5t34 -72.5q0 -44 -34 -74.5t-85 -30.5 q-49 0 -82 30.5t-33 74.5zM831 1651q0 43 33 72.5t84 29.5t84 -29.5t33 -72.5q0 -45 -33 -75t-84 -30t-84 30t-33 75z" glyph-name="Adieresis" horiz-adv-x="1544" unicode="Ä"/>
<glyph d="M29 0l755 1458l732 -1458h-277l-258 539l-657 -2q-54 -122 -81 -215.5t-26.5 -177t35.5 -144.5h-223zM328 547l647 2l-316 641q-29 -54 -92.5 -173.5t-94.5 -178.5t-73 -143t-71 -148zM588 1663q0 53 55.5 85t147.5 32t147 -32t55 -85q0 -54 -55 -86.5t-147 -32.5 t-147.5 32.5t-55.5 86.5zM713 1663q0 -47 21.5 -74.5t56.5 -27.5t56 27.5t21 74.5q0 46 -21 73t-56 27t-56.5 -27t-21.5 -73z" glyph-name="Aring" horiz-adv-x="1544" unicode="Å"/>
<glyph d="M0 0l1133 1434l1144 2v-328q-40 67 -93 118.5t-119 85.5t-136.5 57t-160.5 35t-176.5 16.5t-196.5 4.5v-671q518 12 755 106v-217q-235 93 -755 105v-740q361 5 581 87t324 278v-373h-1161v582h-660l-141 -183q-178 -228 -115 -399h-223zM487 592h652v833z" glyph-name="AE" horiz-adv-x="2357" unicode="Æ"/>
<glyph d="M61 731q0 150 52 281.5t147 229t237.5 154t313.5 56.5q117 0 218 -27.5t171 -73t115.5 -106t58.5 -125t-7.5 -132t-76.5 -124.5h-8q-7 88 -26.5 168.5t-57 157t-89 132t-128.5 89t-170 33.5q-119 0 -215 -54.5t-155.5 -145t-90.5 -202t-31 -231.5q0 -132 36 -244 t104.5 -197t176 -133t241.5 -49q161 2 299 78.5t229 235.5h10q-156 -518 -639 -518h-6l-47 -119q145 0 213 -30.5t68 -96.5q0 -77 -86.5 -112.5t-272.5 -35.5v11q121 0 177.5 29.5t56.5 95.5q0 53 -49 77.5t-156 24.5l80 156q-210 6 -369 107.5t-241.5 268t-82.5 371.5z" glyph-name="Ccedilla" horiz-adv-x="1466" unicode="Ç"/>
<glyph d="M92 0v1434l1139 2v-328q-40 67 -93 118.5t-119 85.5t-137 57t-161 35t-176.5 16.5t-196.5 4.5v-671q519 12 756 106v-217q-235 92 -756 105v-740q361 5 581 87t324 278v-373h-1161zM428 1810h250q29 -140 131 -264h-16q-194 93 -365 264z" glyph-name="Egrave" horiz-adv-x="1310" unicode="È"/>
<glyph d="M92 0v1434l1139 2v-328q-40 67 -93 118.5t-119 85.5t-137 57t-161 35t-176.5 16.5t-196.5 4.5v-671q519 12 756 106v-217q-235 92 -756 105v-740q361 5 581 87t324 278v-373h-1161zM539 1546q102 124 131 264h250q-171 -171 -365 -264h-16z" glyph-name="Eacute" horiz-adv-x="1310" unicode="É"/>
<glyph d="M92 0v1434l1139 2v-328q-40 67 -93 118.5t-119 85.5t-137 57t-161 35t-176.5 16.5t-196.5 4.5v-671q519 12 756 106v-217q-235 92 -756 105v-740q361 5 581 87t324 278v-373h-1161zM377 1546l289 264l288 -264h-16l-272 142l-273 -142h-16z" glyph-name="Ecircumflex" horiz-adv-x="1310" unicode="Ê"/>
<glyph d="M92 0v1434l1139 2v-328q-40 67 -93 118.5t-119 85.5t-137 57t-161 35t-176.5 16.5t-196.5 4.5v-671q519 12 756 106v-217q-235 92 -756 105v-740q361 5 581 87t324 278v-373h-1161zM391 1651q0 43 33 72.5t82 29.5q51 0 85 -29.5t34 -72.5q0 -44 -34 -74.5t-85 -30.5 q-49 0 -82 30.5t-33 74.5zM705 1651q0 43 33 72.5t83 29.5q51 0 84 -29.5t33 -72.5q0 -45 -33 -75t-84 -30t-83.5 30t-32.5 75z" glyph-name="Edieresis" horiz-adv-x="1310" unicode="Ë"/>
<glyph d="M-16 1810h249q29 -139 132 -264h-17q-192 92 -364 264zM92 0v1434h256v-1434h-256z" glyph-name="Igrave" horiz-adv-x="440" unicode="Ì"/>
<glyph d="M92 0v1434h256v-1434h-256zM94 1546q102 124 131 264h250q-172 -172 -364 -264h-17z" glyph-name="Iacute" horiz-adv-x="440" unicode="Í"/>
<glyph d="M-68 1546l289 264l289 -264h-16l-273 142l-274 -142h-15zM92 0v1434h256v-1434h-256z" glyph-name="Icircumflex" horiz-adv-x="440" unicode="Î"/>
<glyph d="M-53 1651q0 43 32.5 72.5t81.5 29.5q51 0 85 -29.5t34 -72.5q0 -44 -34 -74.5t-85 -30.5q-49 0 -81.5 30t-32.5 75zM92 0v1434h256v-1434h-256zM260 1651q0 43 33 72.5t84 29.5t84 -29.5t33 -72.5q0 -45 -33 -75t-84 -30t-84 30t-33 75z" glyph-name="Idieresis" horiz-adv-x="440" unicode="Ï"/>
<glyph d="M-53 713v10h145v711h529q245 0 441 -85.5t311.5 -250.5t115.5 -383q0 -215 -115 -379t-311.5 -250t-441.5 -86h-529v713h-145zM348 8h273q276 0 433.5 189t157.5 518q0 331 -157.5 520.5t-433.5 189.5h-273v-702h428v-10h-428v-705z" glyph-name="Eth" horiz-adv-x="1550" unicode="Ð"/>
<glyph d="M92 0v1434h320l909 -1055v1055h14v-1434h-14l-1217 1421q0 -290 5 -474t16.5 -337.5t36.5 -255.5t60 -185t91 -169h-221zM489 1753h15q23 -46 51 -65t74 -19q40 0 82.5 25.5t86.5 51.5t87 26q62 0 97 -49.5t58 -157.5h-14q-23 46 -51 65t-74 19q-40 0 -83 -25.5 t-87.5 -51.5t-87.5 -26q-62 0 -96.5 49.5t-57.5 157.5z" glyph-name="Ntilde" horiz-adv-x="1427" unicode="Ñ"/>
<glyph d="M61 715q0 163 62.5 302.5t168 234t245.5 147.5t294 53t294 -53t246 -147.5t168.5 -234t62.5 -302.5q0 -161 -62.5 -299.5t-168.5 -232.5t-246 -147.5t-294 -53.5t-294 53.5t-245.5 147.5t-168 232.5t-62.5 299.5zM338 715q0 -205 58 -368.5t171 -260t264 -96.5 q150 0 263.5 96.5t172 260t58.5 368.5q0 206 -58.5 370.5t-172 261.5t-263.5 97q-151 0 -264 -97t-171 -261.5t-58 -370.5zM600 1804h250q29 -140 131 -264h-16q-194 93 -365 264z" glyph-name="Ograve" horiz-adv-x="1662" unicode="Ò"/>
<glyph d="M61 715q0 163 62.5 302.5t168 234t245.5 147.5t294 53t294 -53t246 -147.5t168.5 -234t62.5 -302.5q0 -161 -62.5 -299.5t-168.5 -232.5t-246 -147.5t-294 -53.5t-294 53.5t-245.5 147.5t-168 232.5t-62.5 299.5zM338 715q0 -205 58 -368.5t171 -260t264 -96.5 q150 0 263.5 96.5t172 260t58.5 368.5q0 206 -58.5 370.5t-172 261.5t-263.5 97q-151 0 -264 -97t-171 -261.5t-58 -370.5zM709 1540q102 124 131 264h250q-171 -171 -365 -264h-16z" glyph-name="Oacute" horiz-adv-x="1662" unicode="Ó"/>
<glyph d="M61 715q0 163 62.5 302.5t168 234t245.5 147.5t294 53t294 -53t246 -147.5t168.5 -234t62.5 -302.5q0 -161 -62.5 -299.5t-168.5 -232.5t-246 -147.5t-294 -53.5t-294 53.5t-245.5 147.5t-168 232.5t-62.5 299.5zM338 715q0 -205 58 -368.5t171 -260t264 -96.5 q150 0 263.5 96.5t172 260t58.5 368.5q0 206 -58.5 370.5t-172 261.5t-263.5 97q-151 0 -264 -97t-171 -261.5t-58 -370.5zM547 1540l289 264l288 -264h-16l-272 141l-273 -141h-16z" glyph-name="Ocircumflex" horiz-adv-x="1662" unicode="Ô"/>
<glyph d="M61 715q0 163 62.5 302.5t168 234t245.5 147.5t294 53t294 -53t246 -147.5t168.5 -234t62.5 -302.5q0 -161 -62.5 -299.5t-168.5 -232.5t-246 -147.5t-294 -53.5t-294 53.5t-245.5 147.5t-168 232.5t-62.5 299.5zM338 715q0 -205 58 -368.5t171 -260t264 -96.5 q150 0 263.5 96.5t172 260t58.5 368.5q0 206 -58.5 370.5t-172 261.5t-263.5 97q-151 0 -264 -97t-171 -261.5t-58 -370.5zM559 1747h14q23 -46 51 -65t74 -19q40 0 82.5 25.5t86.5 51t87 25.5q63 0 98.5 -49t57.5 -157h-14q-23 46 -51 64.5t-74 18.5q-40 0 -83 -25.5 t-87.5 -51t-87.5 -25.5q-62 0 -96.5 49.5t-57.5 157.5z" glyph-name="Otilde" horiz-adv-x="1662" unicode="Õ"/>
<glyph d="M61 715q0 163 62.5 302.5t168 234t245.5 147.5t294 53t294 -53t246 -147.5t168.5 -234t62.5 -302.5q0 -161 -62.5 -299.5t-168.5 -232.5t-246 -147.5t-294 -53.5t-294 53.5t-245.5 147.5t-168 232.5t-62.5 299.5zM338 715q0 -205 58 -368.5t171 -260t264 -96.5 q150 0 263.5 96.5t172 260t58.5 368.5q0 206 -58.5 370.5t-172 261.5t-263.5 97q-151 0 -264 -97t-171 -261.5t-58 -370.5zM563 1645q0 43 33 72.5t82 29.5q51 0 85 -29.5t34 -72.5q0 -44 -34 -74.5t-85 -30.5q-49 0 -82 30.5t-33 74.5zM877 1645q0 43 33 72.5t83 29.5 q51 0 84 -29.5t33 -72.5q0 -45 -33 -75t-84 -30t-83.5 30t-32.5 75z" glyph-name="Odieresis" horiz-adv-x="1662" unicode="Ö"/>
<glyph d="M92 156l359 356l-357 358l10 11l357 -359l356 357l10 -11l-358 -356l356 -358l-10 -11l-356 359l-357 -357z" glyph-name="multiply" horiz-adv-x="919" unicode="×"/>
<glyph d="M61 715q0 163 62.5 302.5t168 234t245.5 147.5t294 53q152 0 289.5 -50.5t243.5 -144.5l197 199h14l-203 -205q108 -100 169 -237t61 -299q0 -161 -62.5 -299.5t-168.5 -232.5t-246 -147.5t-294 -53.5q-150 0 -285.5 49.5t-240.5 140.5l-194 -197h-15l201 203 q-111 100 -173.5 237.5t-62.5 299.5zM338 715q0 -237 78 -416l829 838q-63 143 -169.5 225t-244.5 82q-151 0 -264 -97t-171 -261.5t-58 -370.5zM420 289q63 -140 169 -219.5t242 -79.5q150 0 263.5 96.5t172 260t58.5 368.5q0 230 -76 411z" glyph-name="Oslash" horiz-adv-x="1662" unicode="Ø"/>
<glyph d="M84 524v910h258v-942q0 -80 8.5 -145.5t34 -134t67.5 -115.5t114 -76.5t169 -30.5q144 0 246 35t160.5 102.5t84 157t23.5 207.5v942h13v-940q2 -120 -23 -210.5t-84.5 -160t-164.5 -105.5t-255 -36q-178 1 -305 37t-202 107.5t-109.5 169t-34.5 228.5zM471 1810h250 q29 -140 131 -264h-16q-194 93 -365 264z" glyph-name="Ugrave" horiz-adv-x="1345" unicode="Ù"/>
<glyph d="M84 524v910h258v-942q0 -80 8.5 -145.5t34 -134t67.5 -115.5t114 -76.5t169 -30.5q144 0 246 35t160.5 102.5t84 157t23.5 207.5v942h13v-940q2 -120 -23 -210.5t-84.5 -160t-164.5 -105.5t-255 -36q-178 1 -305 37t-202 107.5t-109.5 169t-34.5 228.5zM582 1546 q102 124 131 264h250q-171 -171 -365 -264h-16z" glyph-name="Uacute" horiz-adv-x="1345" unicode="Ú"/>
<glyph d="M84 524v910h258v-942q0 -80 8.5 -145.5t34 -134t67.5 -115.5t114 -76.5t169 -30.5q144 0 246 35t160.5 102.5t84 157t23.5 207.5v942h13v-940q2 -120 -23 -210.5t-84.5 -160t-164.5 -105.5t-255 -36q-178 1 -305 37t-202 107.5t-109.5 169t-34.5 228.5zM418 1546l289 264 l288 -264h-16l-272 142l-273 -142h-16z" glyph-name="Ucircumflex" horiz-adv-x="1345" unicode="Û"/>
<glyph d="M84 524v910h258v-942q0 -80 8.5 -145.5t34 -134t67.5 -115.5t114 -76.5t169 -30.5q144 0 246 35t160.5 102.5t84 157t23.5 207.5v942h13v-940q2 -120 -23 -210.5t-84.5 -160t-164.5 -105.5t-255 -36q-178 1 -305 37t-202 107.5t-109.5 169t-34.5 228.5zM434 1651 q0 43 33 72.5t82 29.5q51 0 85 -29.5t34 -72.5q0 -44 -34 -74.5t-85 -30.5q-49 0 -82 30.5t-33 74.5zM748 1651q0 43 33 72.5t83 29.5q51 0 84 -29.5t33 -72.5q0 -45 -33 -75t-84 -30t-83.5 30t-32.5 75z" glyph-name="Udieresis" horiz-adv-x="1345" unicode="Ü"/>
<glyph d="M23 1434h305l536 -764l533 764h16l-541 -777v-657h-256v598zM608 1546q102 124 131 264h250q-172 -172 -364 -264h-17z" glyph-name="Yacute" horiz-adv-x="1435" unicode="Ý"/>
<glyph d="M92 0v1434h256v-301h420q124 0 229 -22.5t189 -68.5t132 -125t48 -184q0 -84 -32 -151.5t-86.5 -113t-131 -76.5t-163.5 -44.5t-185 -13.5h-420v-334h-256zM348 342h307q214 0 332.5 105.5t118.5 285.5q0 181 -100 286t-289 105h-369v-782z" glyph-name="Thorn" horiz-adv-x="1435" unicode="Þ"/>
<glyph d="M92 0v989q0 224 126.5 343.5t352.5 119.5q232 0 365 -78.5t133 -228.5q0 -125 -117 -208.5t-311 -98.5q222 -16 351.5 -120.5t129.5 -301.5q0 -112 -42 -196.5t-119 -136t-177.5 -76.5t-224.5 -25v6q141 0 226 117t85 311q0 189 -84.5 303.5t-228.5 114.5v6 q128 0 205.5 84t77.5 194q0 328 -250 328q-125 0 -185.5 -91.5t-60.5 -232.5v-1122h-252z" glyph-name="germandbls" horiz-adv-x="1161" unicode="ß"/>
<glyph d="M61 258q5 238 431 283q98 9 335 34v156q0 120 -66.5 182t-195.5 62q-69 1 -128 -22t-99 -60t-71 -86t-48 -96t-26 -95h-7q-46 47 -56.5 99.5t15.5 99.5t79.5 85t143 60.5t199.5 22.5q253 0 383.5 -83.5t130.5 -244.5v-405q-1 -69 3.5 -107.5t22 -73t53 -49.5t95.5 -18v-4 q-135 -25 -227.5 -18.5t-143 63t-57.5 170.5q-19 -102 -107.5 -166.5t-248.5 -64.5q-404 0 -410 276zM324 262q0 -51 12 -95t38 -81t73.5 -58.5t111.5 -21.5q103 0 185.5 72.5t82.5 191.5v297q-169 -16 -247 -26q-133 -13 -194.5 -88t-61.5 -191zM373 1329h250 q29 -140 131 -264h-17q-192 92 -364 264z" glyph-name="agrave" horiz-adv-x="1249" unicode="à"/>
<glyph d="M61 258q5 238 431 283q98 9 335 34v156q0 120 -66.5 182t-195.5 62q-69 1 -128 -22t-99 -60t-71 -86t-48 -96t-26 -95h-7q-46 47 -56.5 99.5t15.5 99.5t79.5 85t143 60.5t199.5 22.5q253 0 383.5 -83.5t130.5 -244.5v-405q-1 -69 3.5 -107.5t22 -73t53 -49.5t95.5 -18v-4 q-135 -25 -227.5 -18.5t-143 63t-57.5 170.5q-19 -102 -107.5 -166.5t-248.5 -64.5q-404 0 -410 276zM324 262q0 -51 12 -95t38 -81t73.5 -58.5t111.5 -21.5q103 0 185.5 72.5t82.5 191.5v297q-169 -16 -247 -26q-133 -13 -194.5 -88t-61.5 -191zM483 1065q102 124 131 264 h250q-172 -172 -364 -264h-17z" glyph-name="aacute" horiz-adv-x="1249" unicode="á"/>
<glyph d="M61 258q5 238 431 283q98 9 335 34v156q0 120 -66.5 182t-195.5 62q-69 1 -128 -22t-99 -60t-71 -86t-48 -96t-26 -95h-7q-46 47 -56.5 99.5t15.5 99.5t79.5 85t143 60.5t199.5 22.5q253 0 383.5 -83.5t130.5 -244.5v-405q-1 -69 3.5 -107.5t22 -73t53 -49.5t95.5 -18v-4 q-135 -25 -227.5 -18.5t-143 63t-57.5 170.5q-19 -102 -107.5 -166.5t-248.5 -64.5q-404 0 -410 276zM322 1065l288 264l289 -264h-16l-273 141l-272 -141h-16zM324 262q0 -51 12 -95t38 -81t73.5 -58.5t111.5 -21.5q103 0 185.5 72.5t82.5 191.5v297q-169 -16 -247 -26 q-133 -13 -194.5 -88t-61.5 -191z" glyph-name="acircumflex" horiz-adv-x="1249" unicode="â"/>
<glyph d="M61 258q5 238 431 283q98 9 335 34v156q0 120 -66.5 182t-195.5 62q-69 1 -128 -22t-99 -60t-71 -86t-48 -96t-26 -95h-7q-46 47 -56.5 99.5t15.5 99.5t79.5 85t143 60.5t199.5 22.5q253 0 383.5 -83.5t130.5 -244.5v-405q-1 -69 3.5 -107.5t22 -73t53 -49.5t95.5 -18v-4 q-135 -25 -227.5 -18.5t-143 63t-57.5 170.5q-19 -102 -107.5 -166.5t-248.5 -64.5q-404 0 -410 276zM324 262q0 -51 12 -95t38 -81t73.5 -58.5t111.5 -21.5q103 0 185.5 72.5t82.5 191.5v297q-169 -16 -247 -26q-133 -13 -194.5 -88t-61.5 -191zM334 1272h14q23 -46 51 -65 t74 -19q40 0 82.5 25.5t86.5 51t87 25.5q63 0 98 -49.5t58 -157.5h-15q-23 46 -51 65t-74 19q-40 0 -83 -25.5t-87.5 -51t-87.5 -25.5q-62 0 -96 49.5t-57 157.5z" glyph-name="atilde" horiz-adv-x="1249" unicode="ã"/>
<glyph d="M61 258q5 238 431 283q98 9 335 34v156q0 120 -66.5 182t-195.5 62q-69 1 -128 -22t-99 -60t-71 -86t-48 -96t-26 -95h-7q-46 47 -56.5 99.5t15.5 99.5t79.5 85t143 60.5t199.5 22.5q253 0 383.5 -83.5t130.5 -244.5v-405q-1 -69 3.5 -107.5t22 -73t53 -49.5t95.5 -18v-4 q-135 -25 -227.5 -18.5t-143 63t-57.5 170.5q-19 -102 -107.5 -166.5t-248.5 -64.5q-404 0 -410 276zM324 262q0 -51 12 -95t38 -81t73.5 -58.5t111.5 -21.5q103 0 185.5 72.5t82.5 191.5v297q-169 -16 -247 -26q-133 -13 -194.5 -88t-61.5 -191zM336 1169q0 43 33 73t82 30 q51 0 84.5 -30t33.5 -73q0 -44 -33.5 -74t-84.5 -30q-49 0 -82 30t-33 74zM649 1169q0 43 33.5 73t83.5 30t83.5 -30t33.5 -73q0 -45 -33 -74.5t-84 -29.5t-84 29.5t-33 74.5z" glyph-name="adieresis" horiz-adv-x="1249" unicode="ä"/>
<glyph d="M61 258q5 238 431 283q98 9 335 34v156q0 120 -66.5 182t-195.5 62q-69 1 -128 -22t-99 -60t-71 -86t-48 -96t-26 -95h-7q-46 47 -56.5 99.5t15.5 99.5t79.5 85t143 60.5t199.5 22.5q253 0 383.5 -83.5t130.5 -244.5v-405q-1 -69 3.5 -107.5t22 -73t53 -49.5t95.5 -18v-4 q-135 -25 -227.5 -18.5t-143 63t-57.5 170.5q-19 -102 -107.5 -166.5t-248.5 -64.5q-404 0 -410 276zM324 262q0 -51 12 -95t38 -81t73.5 -58.5t111.5 -21.5q103 0 185.5 72.5t82.5 191.5v297q-169 -16 -247 -26q-133 -13 -194.5 -88t-61.5 -191zM408 1182q0 53 55 84.5 t147 31.5t147.5 -31.5t55.5 -84.5q0 -54 -55.5 -86.5t-147.5 -32.5t-147 32.5t-55 86.5zM532 1182q0 -47 21.5 -75t56.5 -28t56.5 28t21.5 75q0 46 -21.5 73t-56.5 27t-56.5 -27t-21.5 -73z" glyph-name="aring" horiz-adv-x="1249" unicode="å"/>
<glyph d="M61 258q5 238 431 283q98 9 335 34v156q0 120 -66.5 182t-195.5 62q-69 1 -128 -22t-99 -60t-71 -86t-48 -96t-26 -95h-7q-46 47 -56.5 99.5t15.5 99.5t79.5 85t143 60.5t199.5 22.5q302 0 394 -154q141 154 380 154q105 0 188.5 -36.5t134.5 -98t77.5 -135.5t27.5 -154 h-2l2 -4h-716q5 -179 97 -280.5t259 -102.5q121 0 215 53t148 146h10q-28 -80 -70 -147t-100 -123t-137 -87.5t-172 -31.5q-177 0 -301.5 106.5t-159.5 273.5q-3 -380 -365 -380q-210 0 -311.5 68.5t-104.5 207.5zM324 262q0 -51 12 -94.5t37.5 -81t73 -59t112.5 -21.5 q53 0 99 19t85 59t61.5 112t22.5 169v202q-169 -16 -247 -26q-133 -13 -194.5 -88t-61.5 -191zM1053 565l524 2q-2 111 -25.5 198t-80 146.5t-140.5 59.5q-89 -1 -153 -56.5t-94.5 -143.5t-30.5 -198v-8z" glyph-name="ae" horiz-adv-x="1822" unicode="æ"/>
<glyph d="M61 481q0 104 38.5 194.5t110.5 159t184.5 108.5t250.5 40q105 0 190 -23t135.5 -61.5t74 -85.5t11.5 -99t-57 -98h-6q-9 49 -23 93.5t-42 95t-63.5 86.5t-91.5 60t-124 24q-85 -1 -151.5 -34t-107.5 -89.5t-62 -127.5t-21 -151q0 -185 101 -292.5t290 -108.5 q267 0 408 199h12q-66 -179 -200.5 -284t-331.5 -105h-4l-45 -117q145 0 212.5 -30.5t67.5 -96.5q0 -77 -86 -112.5t-272 -35.5v11q121 0 177 29.5t56 95.5q0 53 -49 77.5t-156 24.5l78 154q-225 6 -364.5 148.5t-139.5 350.5z" glyph-name="ccedilla" horiz-adv-x="1155" unicode="ç"/>
<glyph d="M61 481q0 102 38 192.5t108.5 159.5t178.5 109.5t239 40.5q115 0 207 -37t148 -98t85.5 -135t30.5 -154h-2l2 -4h-789q5 -179 106 -280.5t285 -102.5q132 0 236 53t162 146h12q-31 -80 -76.5 -147t-109 -123t-151 -87.5t-189.5 -31.5q-115 0 -213 39.5t-165 107t-105 159 t-38 193.5zM307 565l576 2q-2 81 -17.5 151t-46 128t-83 91.5t-122.5 33.5q-99 -1 -170 -56.5t-104 -143.5t-33 -198v-8zM367 1329h249q29 -139 132 -264h-17q-192 92 -364 264z" glyph-name="egrave" horiz-adv-x="1148" unicode="è"/>
<glyph d="M61 481q0 102 38 192.5t108.5 159.5t178.5 109.5t239 40.5q115 0 207 -37t148 -98t85.5 -135t30.5 -154h-2l2 -4h-789q5 -179 106 -280.5t285 -102.5q132 0 236 53t162 146h12q-31 -80 -76.5 -147t-109 -123t-151 -87.5t-189.5 -31.5q-115 0 -213 39.5t-165 107t-105 159 t-38 193.5zM307 565l576 2q-2 81 -17.5 151t-46 128t-83 91.5t-122.5 33.5q-99 -1 -170 -56.5t-104 -143.5t-33 -198v-8zM477 1065q102 124 131 264h250q-172 -172 -364 -264h-17z" glyph-name="eacute" horiz-adv-x="1148" unicode="é"/>
<glyph d="M61 481q0 102 38 192.5t108.5 159.5t178.5 109.5t239 40.5q115 0 207 -37t148 -98t85.5 -135t30.5 -154h-2l2 -4h-789q5 -179 106 -280.5t285 -102.5q132 0 236 53t162 146h12q-31 -80 -76.5 -147t-109 -123t-151 -87.5t-189.5 -31.5q-115 0 -213 39.5t-165 107t-105 159 t-38 193.5zM307 565l576 2q-2 81 -17.5 151t-46 128t-83 91.5t-122.5 33.5q-99 -1 -170 -56.5t-104 -143.5t-33 -198v-8zM313 1065l289 264l289 -264h-17l-272 141l-272 -141h-17z" glyph-name="ecircumflex" horiz-adv-x="1148" unicode="ê"/>
<glyph d="M61 481q0 102 38 192.5t108.5 159.5t178.5 109.5t239 40.5q115 0 207 -37t148 -98t85.5 -135t30.5 -154h-2l2 -4h-789q5 -179 106 -280.5t285 -102.5q132 0 236 53t162 146h12q-31 -80 -76.5 -147t-109 -123t-151 -87.5t-189.5 -31.5q-115 0 -213 39.5t-165 107t-105 159 t-38 193.5zM307 565l576 2q-2 81 -17.5 151t-46 128t-83 91.5t-122.5 33.5q-99 -1 -170 -56.5t-104 -143.5t-33 -198v-8zM330 1169q0 43 32.5 73t81.5 30q51 0 85 -30t34 -73q0 -44 -34 -74t-85 -30q-49 0 -81.5 30t-32.5 74zM643 1169q0 43 33.5 73t83.5 30t83.5 -30 t33.5 -73q0 -45 -33 -74.5t-84 -29.5t-84 29.5t-33 74.5z" glyph-name="edieresis" horiz-adv-x="1148" unicode="ë"/>
<glyph d="M-10 1425h250q29 -140 131 -264h-17q-192 92 -364 264zM125 0v850q70 10 137.5 45t116.5 82v-977h-254z" glyph-name="igrave" horiz-adv-x="503" unicode="ì"/>
<glyph d="M117 1161q102 124 131 264h250q-171 -171 -365 -264h-16zM125 0v850q70 10 137.5 45t116.5 82v-977h-254z" glyph-name="iacute" horiz-adv-x="503" unicode="í"/>
<glyph d="M-45 1161l289 264l288 -264h-16l-272 142l-275 -142h-14zM125 0v850q70 10 137.5 45t116.5 82v-977h-254z" glyph-name="icircumflex" horiz-adv-x="503" unicode="î"/>
<glyph d="M-31 1266q0 43 33 72.5t82 29.5q51 0 85 -29.5t34 -72.5q0 -44 -34 -74.5t-85 -30.5q-49 0 -82 30.5t-33 74.5zM125 0v850q70 10 137.5 45t116.5 82v-977h-254zM283 1266q0 43 33 72.5t83 29.5q51 0 84 -29.5t33 -72.5q0 -45 -33 -75t-84 -30t-83.5 30t-32.5 75z" glyph-name="idieresis" horiz-adv-x="503" unicode="ï"/>
<glyph d="M61 461q1 143 66.5 253t175.5 168t244 58q141 0 236.5 -54.5t134.5 -160.5q-55 282 -238 492l-252 -160l-6 10l250 158q-110 122 -256 207h22q158 -70 297 -166l269 168l6 -9l-265 -168q205 -148 317 -334t112 -386q0 -171 -77 -298.5t-206 -192t-291 -64.5 q-110 0 -206 30t-171 87.5t-118 150.5t-44 211zM322 461q0 -211 87 -339t218 -128q84 0 146 40t97.5 111t52.5 157.5t17 189.5q0 72 -10 157q-27 126 -107.5 194t-191.5 68q-131 0 -220 -121t-89 -329z" glyph-name="eth" horiz-adv-x="1234" unicode="ð"/>
<glyph d="M92 0v850q142 21 252 127v-365q29 173 138 273t292 100q165 0 249.5 -93t86.5 -269v-623h-254v690q0 128 -44.5 192t-141.5 64q-54 0 -107 -25t-100 -72.5t-79.5 -127.5t-39.5 -180v-541h-252zM344 1272h14q23 -46 51 -65t74 -19q40 0 82.5 25.5t86.5 51t87 25.5 q63 0 98 -49.5t58 -157.5h-14q-23 46 -51 65t-74 19q-40 0 -83 -25.5t-87.5 -51t-87.5 -25.5q-62 0 -96.5 49.5t-57.5 157.5z" glyph-name="ntilde" horiz-adv-x="1200" unicode="ñ"/>
<glyph d="M61 481q0 147 77 262.5t207.5 177.5t289.5 62q158 0 288.5 -62t207.5 -177.5t77 -262.5q0 -146 -77 -261t-207.5 -176.5t-288.5 -61.5q-159 0 -289.5 61.5t-207.5 176.5t-77 261zM338 481q0 -243 79.5 -367t217.5 -124q137 0 216 124t79 367q0 245 -79 369.5t-216 124.5 q-138 0 -217.5 -124.5t-79.5 -369.5zM399 1329h250q29 -140 131 -264h-16q-194 93 -365 264z" glyph-name="ograve" unicode="ò"/>
<glyph d="M61 481q0 147 77 262.5t207.5 177.5t289.5 62q158 0 288.5 -62t207.5 -177.5t77 -262.5q0 -146 -77 -261t-207.5 -176.5t-288.5 -61.5q-159 0 -289.5 61.5t-207.5 176.5t-77 261zM338 481q0 -243 79.5 -367t217.5 -124q137 0 216 124t79 367q0 245 -79 369.5t-216 124.5 q-138 0 -217.5 -124.5t-79.5 -369.5zM508 1065q102 124 131 264h250q-171 -171 -365 -264h-16z" glyph-name="oacute" unicode="ó"/>
<glyph d="M61 481q0 147 77 262.5t207.5 177.5t289.5 62q158 0 288.5 -62t207.5 -177.5t77 -262.5q0 -146 -77 -261t-207.5 -176.5t-288.5 -61.5q-159 0 -289.5 61.5t-207.5 176.5t-77 261zM338 481q0 -243 79.5 -367t217.5 -124q137 0 216 124t79 367q0 245 -79 369.5t-216 124.5 q-138 0 -217.5 -124.5t-79.5 -369.5zM346 1065l289 264l289 -264h-17l-272 141l-273 -141h-16z" glyph-name="ocircumflex" unicode="ô"/>
<glyph d="M61 481q0 147 77 262.5t207.5 177.5t289.5 62q158 0 288.5 -62t207.5 -177.5t77 -262.5q0 -146 -77 -261t-207.5 -176.5t-288.5 -61.5q-159 0 -289.5 61.5t-207.5 176.5t-77 261zM338 481q0 -243 79.5 -367t217.5 -124q137 0 216 124t79 367q0 245 -79 369.5t-216 124.5 q-138 0 -217.5 -124.5t-79.5 -369.5zM358 1272h15q23 -46 51 -65t74 -19q40 0 82.5 25.5t86.5 51t87 25.5q62 0 97 -49.5t58 -157.5h-14q-23 46 -51 65t-74 19q-40 0 -83 -25.5t-87.5 -51t-87.5 -25.5q-62 0 -96.5 49.5t-57.5 157.5z" glyph-name="otilde" unicode="õ"/>
<glyph d="M61 481q0 147 77 262.5t207.5 177.5t289.5 62q158 0 288.5 -62t207.5 -177.5t77 -262.5q0 -146 -77 -261t-207.5 -176.5t-288.5 -61.5q-159 0 -289.5 61.5t-207.5 176.5t-77 261zM338 481q0 -243 79.5 -367t217.5 -124q137 0 216 124t79 367q0 245 -79 369.5t-216 124.5 q-138 0 -217.5 -124.5t-79.5 -369.5zM360 1169q0 43 33 73t82 30q51 0 85 -30t34 -73q0 -44 -34 -74t-85 -30q-49 0 -82 30t-33 74zM674 1169q0 43 33.5 73t83.5 30t83 -30t33 -73q0 -45 -32.5 -74.5t-83.5 -29.5t-84 29.5t-33 74.5z" glyph-name="odieresis" unicode="ö"/>
<glyph d="M61 481q0 147 77 262.5t207.5 177.5t289.5 62q238 0 397 -131l144 131h20l-154 -139q166 -143 166 -363q0 -146 -77 -261t-207.5 -176.5t-288.5 -61.5q-235 0 -395 129l-142 -129h-22l151 139q-166 140 -166 360zM338 481q0 -138 27 -237l536 489q-35 121 -103 181.5 t-163 60.5q-138 0 -217.5 -124.5t-79.5 -369.5zM369 227q33 -118 101.5 -177.5t164.5 -59.5q137 0 216 124t79 367q0 133 -25 236z" glyph-name="oslash" unicode="ø"/>
<glyph d="M90 315v527q142 23 254 129v-752q0 -108 50 -153.5t147 -45.5q55 0 109 29.5t100 84.5t75 148t29 207v353q148 25 254 127v-969h-254v358q-29 -173 -133.5 -274.5t-274.5 -101.5q-182 0 -269 77t-87 256zM369 1329h249q29 -139 132 -264h-17q-192 92 -364 264z" glyph-name="ugrave" horiz-adv-x="1200" unicode="ù"/>
<glyph d="M90 315v527q142 23 254 129v-752q0 -108 50 -153.5t147 -45.5q55 0 109 29.5t100 84.5t75 148t29 207v353q148 25 254 127v-969h-254v358q-29 -173 -133.5 -274.5t-274.5 -101.5q-182 0 -269 77t-87 256zM477 1065q102 124 131 264h250q-172 -172 -364 -264h-17z" glyph-name="uacute" horiz-adv-x="1200" unicode="ú"/>
<glyph d="M90 315v527q142 23 254 129v-752q0 -108 50 -153.5t147 -45.5q55 0 109 29.5t100 84.5t75 148t29 207v353q148 25 254 127v-969h-254v358q-29 -173 -133.5 -274.5t-274.5 -101.5q-182 0 -269 77t-87 256zM315 1065l289 264l289 -264h-16l-273 141l-272 -141h-17z" glyph-name="ucircumflex" horiz-adv-x="1200" unicode="û"/>
<glyph d="M90 315v527q142 23 254 129v-752q0 -108 50 -153.5t147 -45.5q55 0 109 29.5t100 84.5t75 148t29 207v353q148 25 254 127v-969h-254v358q-29 -173 -133.5 -274.5t-274.5 -101.5q-182 0 -269 77t-87 256zM332 1169q0 43 32.5 73t81.5 30q51 0 85 -30t34 -73 q0 -44 -34 -74t-85 -30q-49 0 -81.5 30t-32.5 74zM645 1169q0 43 33.5 73t83.5 30t83.5 -30t33.5 -73q0 -45 -33 -74.5t-84 -29.5t-84 29.5t-33 74.5z" glyph-name="udieresis" horiz-adv-x="1200" unicode="ü"/>
<glyph d="M14 956h273l362 -700l342 700h15l-478 -979l-147 -387h-229l372 396zM408 1065q102 124 131 264h249q-172 -172 -364 -264h-16z" glyph-name="yacute" horiz-adv-x="1017" unicode="ý"/>
<glyph d="M92 -410v1762q143 24 252 129v-877q25 172 121.5 276.5t265.5 104.5q136 0 244 -61.5t170 -176.5t63 -264q-1 -111 -39 -205.5t-102.5 -159t-151.5 -100.5t-184 -36q-86 0 -155.5 31t-115.5 86t-75 123.5t-41 148.5v-781h-252zM346 483q0 -210 90.5 -337.5t218.5 -127.5 q122 0 203.5 125.5t81.5 339.5q0 213 -81.5 339t-203.5 126q-132 0 -220.5 -120.5t-88.5 -344.5z" glyph-name="thorn" unicode="þ"/>
</font>
</defs>
</svg>
