<?xml version="1.0" encoding="UTF-8"?>
<!DOCTYPE svg  PUBLIC '-//W3C//DTD SVG 1.1//EN'  'http://www.w3.org/Graphics/SVG/1.1/DTD/svg11.dtd'>
<svg version="1.1" xmlns="http://www.w3.org/2000/svg">
<defs>
<font id="Orelo-SemiWideLightItalic" horiz-adv-x="1466">
<font-face font-family="Orelo SemiWide Light" font-stretch="semi-expanded" font-style="italic" font-weight="300" ascent="1638" bbox="-623 -444 2666 1810" cap-height="1434" descent="-410" panose-1="0 0 4 5 0 0 0 0 0 0" slope="-13" underline-position="-204" underline-thickness="14" unicode-range="U+0020-00FE" units-per-em="2048" x-height="956"/>
<missing-glyph/>
<glyph glyph-name="space" horiz-adv-x="581" unicode=" "/>
<glyph d="M-12 68q8 32 35 54.5t59 22.5q33 0 50.5 -22.5t8.5 -54.5q-6 -32 -34 -55t-60 -23t-49.5 23t-9.5 55zM109 274q57 263 117 593.5t91 566.5h127q-78 -237 -171 -568t-156 -592h-8z" glyph-name="exclam" horiz-adv-x="352" unicode="!"/>
<glyph d="M252 1106q59 29 100.5 97.5t44.5 121.5q-21 -25 -53 -25q-31 0 -46 23t-7 53q6 32 32 53t60 21q39 0 53 -35.5t2 -89.5q-15 -71 -61 -131t-121 -92zM471 1106q58 28 99 97t44 122q-21 -25 -53 -25q-31 0 -46 23t-7 53q8 33 33.5 53.5t58.5 20.5q39 0 53 -35.5t2 -89.5 q-15 -71 -60 -131t-120 -92z" glyph-name="quotedbl" horiz-adv-x="559" unicode='"'/>
<glyph d="M35 459l26 63h359l229 332h-461l27 66h479l367 534h18l-366 -534h710l367 534h18l-366 -534h225l-27 -66h-243l-230 -332h346l-26 -63h-363l-329 -479h-19l330 479h-711l-329 -479h-19l330 479h-342zM438 522h711l229 332h-710z" glyph-name="numbersign" horiz-adv-x="1630" unicode="#"/>
<glyph d="M40 316.5q2 68.5 34 142.5h8q0 -53 14 -111t47 -119.5t81.5 -111t125.5 -84t170 -41.5l156 682q-56 17 -97.5 30.5t-87 31t-77.5 33.5t-64.5 37t-53 42.5t-37.5 48.5t-24 56.5t-6.5 65.5t9.5 77q21 92 80 162t143 111.5t181.5 62t207.5 20.5h6l43 186h10l-43 -186 q115 -2 204.5 -29.5t142.5 -73.5t80 -106t24 -127.5t-33 -136.5h-8q5 54 -6 114t-41.5 122t-77.5 111.5t-121.5 82.5t-165.5 35l-147 -645l20 -6q211 -63 272 -88q141 -59 182 -145q38 -80 9 -204q-28 -124 -126 -210.5t-227.5 -125t-279.5 -38.5h-39l-51 -218h-10l51 218 q-119 5 -212 32t-150.5 72t-87.5 103.5t-28 127zM315 1145q-14 -60 4 -109t42.5 -78.5t96.5 -63t109 -46.5t138 -44q1 -1 2 -1l147 641h-6q-216 1 -358.5 -79t-174.5 -220zM528 -10h39q228 -1 374 83t179 226q11 59 7 103t-28.5 78t-58 59t-82.5 45.5t-101.5 36.5t-115.5 34 q-37 10 -55 15z" glyph-name="dollar" horiz-adv-x="1292" unicode="$"/>
<glyph d="M190 1071q38 163 153 271t251 108q138 0 203 -108t28 -271q-37 -162 -152.5 -269.5t-254.5 -107.5q-135 0 -200 108t-28 269zM239 888q7 -83 54.5 -136.5t126.5 -53.5q119 0 213.5 109t130.5 264q20 101 12.5 184.5t-56 137t-128.5 53.5q-118 0 -211 -109.5t-129 -265.5 q-20 -100 -13 -183zM338 -20l1014 1474h18l-1014 -1474h-18zM834 369q38 163 152.5 271t250.5 108q138 0 203 -108t28 -271q-37 -162 -152.5 -269.5t-254.5 -107.5q-135 0 -199.5 107.5t-27.5 269.5zM882 186q7 -83 54.5 -136.5t126.5 -53.5q119 0 213.5 109t130.5 264 q19 74 16 141.5t-22 119.5t-62.5 82.5t-103.5 30.5q-118 0 -211 -109t-129 -265q-20 -100 -13 -183z" glyph-name="percent" horiz-adv-x="1562" unicode="%"/>
<glyph d="M23 344q34 149 177 250.5t380 142.5q-104 135 -132 217.5t-4 180.5q33 142 172 229.5t347 87.5q202 0 286.5 -89t48.5 -245q-63 -266 -600 -364q42 -54 99 -121t167.5 -192t174.5 -199q78 90 113.5 196.5t32 204t-35.5 197.5l150 2q-5 -158 -70 -316t-184 -293 q200 -229 203 -233h-142q-118 139 -133 156q-189 -174 -532 -174q-274 0 -415.5 95t-102.5 267zM143 350q-26 -113 23 -194t155.5 -120.5t258.5 -39.5q154 0 277.5 44t207.5 124q-53 62 -151.5 176t-141 163.5t-97 115t-89.5 110.5q-176 -37 -293 -136t-150 -243zM557 1157 q-23 -97 4.5 -180t128.5 -213q216 41 348.5 133t163.5 221q18 69 12 128.5t-31 103.5t-82 69t-140 25q-161 0 -267.5 -78t-136.5 -209z" glyph-name="ampersand" horiz-adv-x="1490" unicode="&amp;"/>
<glyph d="M250 1094q59 29 100 97t43 120q-21 -25 -53 -25q-31 0 -46 24t-7 54q8 31 33.5 52.5t58.5 21.5q39 0 53 -35.5t2 -89.5q-15 -71 -60 -131t-120 -92z" glyph-name="quotesingle" horiz-adv-x="342" unicode="'"/>
<glyph d="M90 635q55 241 216 452t450 408h10q-203 -156 -361 -383.5t-215 -476.5q-41 -175 -27 -337t67 -294t139 -229h-11q-197 203 -260 411.5t-8 448.5z" glyph-name="parenleft" horiz-adv-x="538" unicode="("/>
<glyph d="M-170 -225q201 150 359 378.5t217 481.5q41 172 26 333t-68 293.5t-137 233.5h11q198 -198 261.5 -408.5t6.5 -451.5q-55 -239 -215 -448t-451 -412h-10z" glyph-name="parenright" horiz-adv-x="538" unicode=")"/>
<glyph d="M215 772q52 34 120 78.5t101.5 66.5t80 55.5t93.5 71.5v3q-46 23 -92.5 41.5t-79 28.5t-102 30.5t-119.5 36.5l64 88q13 -9 51 -36t47.5 -33.5t38 -26.5t39 -26.5t33.5 -21.5t39 -23.5t37.5 -21t45.5 -24.5q5 21 8.5 40t7 40.5t5.5 34t4.5 38.5t3.5 35.5t3.5 42t3 41 t2.5 50.5t3 53h107q-8 -21 -27 -67.5t-25 -62t-19.5 -49.5t-19 -51t-15 -44.5t-16 -51t-13.5 -51.5q24 10 46 20t39.5 18t40.5 19t36 17t39.5 19.5t37.5 19t43.5 22.5t43.5 23t52 27.5t56 29.5l22 -88q-58 -16 -136.5 -36.5t-116 -30.5t-92.5 -28.5t-113 -41.5 q25 -32 46 -57t48.5 -52.5t45.5 -44.5t60.5 -56.5t69.5 -64.5l-94 -61q-8 16 -26.5 53.5t-24.5 49t-20.5 39.5t-20.5 39t-18.5 33.5t-22 37t-22.5 34t-28 39.5q-48 -39 -91.5 -79t-65 -61.5t-85 -87.5t-93.5 -97z" glyph-name="asterisk" horiz-adv-x="987" unicode="*"/>
<glyph d="M88 504l4 20h543l98 426h21l-99 -426h543l-4 -20h-543l-98 -426h-21l99 426h-543z" glyph-name="plus" horiz-adv-x="1286" unicode="+"/>
<glyph d="M-193 -266q176 141 211 401h88q-22 -126 -94 -233t-200 -172z" glyph-name="comma" horiz-adv-x="301" unicode=","/>
<glyph d="M129 541l18 73h543l-16 -73h-545z" glyph-name="hyphen" horiz-adv-x="790" unicode="-"/>
<glyph d="M-12 68q8 32 35 54.5t59 22.5q33 0 50.5 -22.5t8.5 -54.5q-6 -32 -34 -55t-60 -23t-49.5 23t-9.5 55z" glyph-name="period" horiz-adv-x="335" unicode="."/>
<glyph d="M-92 -20l1014 1474h18l-1014 -1474h-18z" glyph-name="slash" horiz-adv-x="753" unicode="/"/>
<glyph d="M88 424q-17 134 21 291q47 208 165.5 377t281 264.5t337.5 95.5q133 0 236 -56t161.5 -154.5t76 -233.5t-20.5 -293q-36 -155 -115 -290.5t-183 -233t-233 -153.5t-262 -56q-131 0 -232.5 56t-158.5 154t-74 232zM195.5 493q-4.5 -107 16.5 -198t63.5 -159.5t114.5 -107 t165 -38.5q117 0 227.5 59.5t196.5 160.5t150.5 231t97.5 274q26 116 30 223.5t-17.5 199.5t-65.5 160t-116.5 107t-166.5 39q-154 0 -292.5 -103t-232.5 -266.5t-139 -359.5q-27 -115 -31.5 -222z" glyph-name="zero" horiz-adv-x="1359" unicode="0"/>
<glyph d="M111 801l2 8q117 8 231.5 51t205 107.5t166 144t124 162.5t69.5 160h9q-32 -132 -97.5 -243.5t-163.5 -199t-238 -138t-308 -52.5zM586 0l332 1434h108l-332 -1434h-108z" glyph-name="one" horiz-adv-x="985" unicode="1"/>
<glyph d="M-90 0l2 8q443 265 611 379q329 224 464 409q84 115 111 234q44 189 -40.5 301.5t-271.5 112.5q-94 0 -182.5 -36t-154 -91.5t-118 -123.5t-82.5 -130.5t-40 -112.5h-8q-12 67 5.5 137t65 135t118 116.5t174.5 82.5t224 31q102 0 189 -26t150.5 -76t89 -133t0.5 -187 q-18 -77 -62.5 -153t-101.5 -140t-143.5 -133.5t-166 -123t-194 -121.5t-202.5 -116t-215 -118t-210 -117q613 11 1114 101l-24 -109h-1102z" glyph-name="two" horiz-adv-x="1191" unicode="2"/>
<glyph d="M43 430h10q-9 -178 113 -272.5t330 -96.5q203 0 345 78.5t175 222.5q19 81 -4 145.5t-76.5 107t-136.5 71.5t-174.5 42.5t-198.5 16.5l2 9q634 24 713 366q32 143 -58 233.5t-270 90.5q-107 0 -208.5 -47t-171.5 -117.5t-116 -145.5t-59 -139h-6q-12 84 21 165.5 t103.5 146.5t185 105t253.5 40q103 0 188.5 -19.5t148.5 -58.5t89.5 -104.5t7.5 -149.5q-26 -110 -129 -190t-249.5 -122.5t-329.5 -55.5q131 -6 241 -32t197.5 -73t127.5 -124.5t17 -176.5q-38 -163 -208.5 -263.5t-411.5 -100.5q-237 0 -360 117.5t-101 330.5z" glyph-name="three" horiz-adv-x="1222" unicode="3"/>
<glyph d="M-8 451v6l1134 977h111l-223 -967l307 4l-8 -35l-305 4l-103 -440h-110l102 440zM115 459l788 8l221 956q-155 -143 -325 -305t-371 -357t-313 -302z" glyph-name="four" horiz-adv-x="1359" unicode="4"/>
<glyph d="M66 295h6q56 -123 180.5 -183.5t298.5 -58.5q228 1 388.5 120.5t205.5 311.5q51 219 -50 346t-323 127q-96 0 -184.5 -28t-152.5 -73t-108 -96.5t-63 -103.5h-8h-78l336 777h4l918 14l-9 -33q-117 2 -453.5 6t-453.5 6l-237 -712q66 111 203 188.5t315 77.5 q121 0 216 -31t159 -94t84.5 -158t-7.5 -223q-37 -157 -141.5 -269.5t-246 -167t-306.5 -56.5q-194 0 -322.5 83t-170.5 230z" glyph-name="five" horiz-adv-x="1386" unicode="5"/>
<glyph d="M109 614q75 324 317.5 551t609.5 295q131 26 258 29l-2 -8q-130 -3 -252 -31q-167 -35 -306 -113.5t-238.5 -189.5t-167 -245t-103.5 -290q-20 -85 -26 -174q28 140 121 243t218 153.5t265 50.5q223 0 339 -123t70 -328q-47 -202 -233 -327t-430 -125q-267 0 -387 169.5 t-53 462.5zM197 381q-2 -187 88 -289t266 -102q199 0 351 120t196 316q45 195 -49 314.5t-281 119.5q-80 0 -157.5 -19.5t-147.5 -59.5t-125.5 -96t-93 -134.5t-47.5 -169.5z" glyph-name="six" horiz-adv-x="1290" unicode="6"/>
<glyph d="M-23 0q64 126 159.5 260t204 260t265 282.5t304.5 295t360 329.5l-1010 -12l8 33l1010 -14h6q-188 -178 -322 -312t-274.5 -286.5t-241 -281.5t-189.5 -271.5t-151 -282.5h-129z" glyph-name="seven" horiz-adv-x="1103" unicode="7"/>
<glyph d="M23 346q21 91 89.5 164.5t167 120t199 75t211.5 44.5q-74 13 -137.5 31.5t-124.5 50t-101 70.5t-57 95.5t-2 122.5q35 156 198.5 244t399.5 88q235 0 358 -88.5t87 -243.5q-19 -82 -79 -148t-146.5 -109t-177 -70t-191.5 -43q82 -13 153.5 -32.5t141 -53t115.5 -76.5 t66.5 -105.5t2.5 -136.5q-39 -170 -222.5 -267t-447.5 -97q-265 0 -403.5 96.5t-99.5 267.5zM139 348q-35 -154 66.5 -256t322.5 -102q220 0 369 102t184 256q11 60 6.5 109t-29.5 89.5t-60 72t-84.5 56t-101.5 41t-112 27.5q-99 -17 -185.5 -47t-166 -76.5t-134.5 -116 t-75 -155.5zM375 1120q-18 -77 0.5 -141t67 -107.5t114.5 -72.5t148 -43q120 20 220 63t178 121t101 180q32 137 -58 230.5t-282 93.5q-193 0 -325 -93.5t-164 -230.5z" glyph-name="eight" horiz-adv-x="1296" unicode="8"/>
<glyph d="M80 -55l2 8q130 3 252 31q168 35 306.5 113t238 189t167 245t103.5 290q21 91 27 172q-29 -139 -121.5 -241.5t-217.5 -152.5t-266 -50q-223 0 -339 122.5t-70 327.5q47 202 233 327.5t430 125.5q267 0 387.5 -170t53.5 -463q-75 -324 -318 -551t-610 -295 q-125 -25 -258 -28zM276 1008q-45 -195 49 -315t281 -120q100 0 196 31.5t175.5 90.5t133.5 152t67 206q2 187 -88.5 289t-266.5 102q-199 0 -351 -120t-196 -316z" glyph-name="nine" horiz-adv-x="1269" unicode="9"/>
<glyph d="M-12 68q8 32 35 54.5t59 22.5q33 0 50.5 -22.5t8.5 -54.5q-6 -32 -34 -55t-60 -23t-49.5 23t-9.5 55zM131 690q8 32 35 55t59 23q33 0 51 -23t9 -55q-6 -32 -34.5 -55t-60.5 -23t-49.5 23t-9.5 55z" glyph-name="colon" horiz-adv-x="335" unicode=":"/>
<glyph d="M-59 -266q176 141 211 401h88q-22 -125 -94.5 -232.5t-200.5 -172.5zM227 690q8 32 35.5 55t59.5 23t49.5 -23t9.5 -55q-7 -32 -35 -55t-59 -23q-33 0 -50.5 22.5t-9.5 55.5z" glyph-name="semicolon" horiz-adv-x="430" unicode=";"/>
<glyph d="M92 522l606 492l4 -8l-596 -484l373 -483l-8 -8z" glyph-name="less" horiz-adv-x="679" unicode="&lt;"/>
<glyph d="M76 449l4 20h901l-4 -20h-901zM98 547l4 20h902l-5 -20h-901z" glyph-name="equal" horiz-adv-x="1081" unicode="="/>
<glyph d="M14 39l594 483l-370 484l8 8l377 -492l-605 -491z" glyph-name="greater" horiz-adv-x="743" unicode="&gt;"/>
<glyph d="M184.5 1014.5q-4.5 61.5 15 122t64.5 118t108 101t150.5 70t186.5 26.5q218 0 316.5 -94t57.5 -275q-14 -60 -44.5 -112.5t-81 -102.5t-103.5 -91t-133 -95q-170 -118 -229 -171q-110 -98 -130 -192h-8q2 62 23.5 118t49 96t79.5 87t89.5 74.5t104.5 73.5 q132 91 209 173.5t101 184.5q34 153 -39.5 235.5t-253.5 82.5q-96 1 -181 -37.5t-143.5 -99t-99.5 -133t-57.5 -143.5t-8.5 -128h-6q-32 50 -36.5 111.5zM238 68q8 32 35 54.5t59 22.5t49.5 -22.5t9.5 -54.5t-35 -55t-59 -23t-49.5 23t-9.5 55z" glyph-name="question" horiz-adv-x="1021" unicode="?"/>
<glyph d="M61 512q42 181 188.5 323.5t354.5 218.5t438 76q156 0 284.5 -45t212 -124.5t116 -196t0.5 -252.5q-37 -159 -131.5 -271t-225.5 -153q-101 -30 -152.5 11.5t-27.5 144.5l146 600q46 5 96 35l-154 -635q-21 -83 5.5 -122.5t93.5 -31.5q184 59 266 422q62 271 -87.5 439.5 t-467.5 168.5q-143 0 -285.5 -45.5t-260 -124.5t-203 -193.5t-115.5 -244.5q-36 -156 -2.5 -282t122.5 -217.5t227 -145.5t312 -66l-4 -10q-192 12 -346 67t-255.5 146t-141 222t-3.5 286zM358 481q40 180 183 298t329 118q179 0 257 -116t36 -300q-41 -178 -172.5 -294.5 t-310.5 -116.5q-183 0 -273 116.5t-49 294.5zM451 481q-42 -183 34 -291t217 -108q160 0 287 111.5t168 287.5q40 181 -34.5 291.5t-235.5 110.5q-91 0 -179 -46.5t-159 -140t-98 -215.5z" glyph-name="at" horiz-adv-x="1716" unicode="@"/>
<glyph d="M-80 0l1030 1442l357 -1442h-117l-123 524h-756q-221 -332 -307 -524h-84zM319 535l746 2l-191 780q-441 -612 -555 -782z" glyph-name="A" unicode="A"/>
<glyph d="M-29 0l332 1434h598q269 0 383 -86q84 -64 85 -179q0 -41 -11 -88q-24 -106 -104.5 -182t-191 -115t-249.5 -51q114 -3 202.5 -25t151 -64t86.5 -110q13 -37 13 -82q0 -36 -9 -77q-43 -184 -205 -279.5t-431 -95.5h-650zM82 8h520q220 0 361 95t182 272q11 48 11 89 q0 109 -75 174q-103 89 -327 89h-506zM250 735h463q211 0 354 89t182 261q13 55 13 101q0 100 -62 157q-90 82 -317 82h-473z" glyph-name="B" horiz-adv-x="1323" unicode="B"/>
<glyph d="M92 422q-8 48 -7 99q0 96 26 204q76 327 317.5 527t544.5 200q104 0 188 -23.5t138 -63t88 -91.5q35 -51 43 -108q4 -26 4 -51q0 -33 -6 -65q-10 -58 -42 -110h-8q3 28 3 57q0 35 -4 69q-7 64 -34.5 133t-72.5 122.5t-122.5 88t-176.5 34.5q-131 -1 -254.5 -56.5 t-220 -149.5t-167 -220t-102.5 -266q-23 -109 -23 -206v-12q2 -102 36.5 -187t93 -146t147 -94.5t197.5 -34.5q181 0 348 85t287 236h8q-127 -200 -309.5 -305.5t-386.5 -105.5q-147 1 -261.5 54.5t-182 151t-89.5 234.5z" glyph-name="C" horiz-adv-x="1394" unicode="C"/>
<glyph d="M-29 0l332 1434h473q378 0 554 -192q122 -134 123 -338q0 -88 -23 -189q-51 -218 -188 -380t-342.5 -248.5t-455.5 -86.5h-473zM82 8h364q331 0 559.5 188.5t305.5 518.5q26 116 26 214q1 184 -91 307q-140 189 -472 189h-364z" glyph-name="D" horiz-adv-x="1468" unicode="D"/>
<glyph d="M-29 0l332 1434l1055 8l-33 -142q-123 67 -384.5 96t-530.5 29l-156 -671q547 11 870 47l-22 -99q-295 34 -848 46l-172 -740q608 16 997 144l-35 -152h-1073z" glyph-name="E" horiz-adv-x="1216" unicode="E"/>
<glyph d="M-29 0l332 1434l1055 8l-33 -142q-123 67 -384.5 96t-530.5 29l-156 -671q547 11 870 47l-22 -99q-295 34 -848 46l-174 -748h-109z" glyph-name="F" horiz-adv-x="1185" unicode="F"/>
<glyph d="M110 337q-24 84 -24 181t25 207q76 327 317.5 527t546.5 200q124 0 219 -31.5t148.5 -83t78.5 -116.5q19 -50 19 -102q0 -16 -2 -31q-7 -69 -43 -132h-9q4 34 5 76v6q0 39 -12 83q-13 47 -32 92.5t-54.5 87.5t-78.5 73.5t-105 50.5t-134 19q-132 -1 -256.5 -56 t-220.5 -149t-166.5 -218.5t-102.5 -264.5q-24 -110 -24 -208q0 -6 1 -12q1 -103 35.5 -188.5t93.5 -147t148.5 -96.5t200.5 -36q143 4 266.5 57.5t211 142.5t147 196.5t90.5 229.5q-397 -13 -619 -73l23 92q412 -4 604 -8h4q-37 -155 -107.5 -286t-168.5 -228.5 t-227.5 -152.5t-276.5 -56q-199 1 -335 93.5t-186 261.5z" glyph-name="G" horiz-adv-x="1427" unicode="G"/>
<glyph d="M-29 0l332 1434h109l-158 -678h1022l158 678h108l-332 -1434h-108l172 745h-1022l-172 -745h-109z" glyph-name="H" horiz-adv-x="1421" unicode="H"/>
<glyph d="M-29 0l332 1434h109l-332 -1434h-109z" glyph-name="I" horiz-adv-x="290" unicode="I"/>
<glyph d="M-4 373h10q20 -131 130 -216t298 -85q195 0 327 113.5t173 297.5l221 951h109l-222 -957q-53 -228 -211.5 -361.5t-386.5 -133.5q-212 0 -328.5 104t-119.5 287z" glyph-name="J" horiz-adv-x="1140" unicode="J"/>
<glyph d="M-29 0l332 1434h109l-154 -666l1047 666h174l-1219 -674q549 -349 909 -760h-157q-319 421 -758 750l-174 -750h-109z" glyph-name="K" horiz-adv-x="1306" unicode="K"/>
<glyph d="M-29 0l332 1434h109l-330 -1426q601 16 991 144l-35 -152h-1067z" glyph-name="L" horiz-adv-x="1189" unicode="L"/>
<glyph d="M-29 0l332 1434h129l387 -967l-10 -14l811 981h117l-332 -1434h-109l330 1423l-887 -1075l-424 1075q-118 -508 -176.5 -821t-83.5 -602h-84z" glyph-name="M" horiz-adv-x="1613" unicode="M"/>
<glyph d="M-29 0l332 1434h139l744 -1266l293 1266h14l-332 -1434h-14l-832 1423q-118 -508 -176.5 -821t-83.5 -602h-84z" glyph-name="N" horiz-adv-x="1370" unicode="N"/>
<glyph d="M94 415q-9 51 -9 107q0 91 24 193q50 218 182.5 387.5t314.5 259.5t383 90q152 0 271 -52.5t190.5 -149t95.5 -232.5q9 -51 8 -107q0 -92 -24 -196q-50 -216 -181.5 -384t-314 -258.5t-385.5 -90.5q-150 0 -269 52.5t-190.5 149t-95.5 231.5zM202 421q14 -133 68.5 -229 t152.5 -149t228 -53q264 0 475 202t285 523q28 119 28 223q1 37 -3 72q-14 134 -68 230.5t-152.5 150t-228.5 53.5t-252.5 -54t-222 -149t-174.5 -231t-111 -295q-29 -118 -29 -222q0 -37 4 -72z" glyph-name="O" horiz-adv-x="1544" unicode="O"/>
<glyph d="M-29 0l332 1434h639q238 0 358 -106q89 -78 89 -200q0 -44 -11 -94q-43 -188 -213 -293.5t-407 -105.5h-531l-147 -635h-109zM229 643h494q208 0 355 106.5t188 284.5q12 54 12 102q0 108 -64 182q-92 106 -290 107h-514z" glyph-name="P" horiz-adv-x="1298" unicode="P"/>
<glyph d="M94 415q-9 51 -9 107q0 91 24 193q50 218 182.5 387.5t314.5 259.5t383 90q152 0 271 -52.5t190.5 -149t95.5 -232.5q8 -51 8 -107q0 -92 -24 -196q-70 -297 -283 -494t-489 -233q279 -11 402 -116q92 -78 92 -209q0 -44 -11 -95h-8q-33 177 -180.5 295.5t-358.5 118.5v2 q-14 -2 -45 -2q-150 0 -269 52.5t-190.5 149t-95.5 231.5zM202 421q14 -133 68.5 -229t152.5 -149t228 -53q264 0 475 202t285 523q28 119 28 223q0 37 -3 72q-14 134 -68 230.5t-152.5 150t-228.5 53.5t-252.5 -54t-222 -149t-174.5 -231t-111 -295q-29 -118 -29 -222 q0 -37 4 -72z" glyph-name="Q" horiz-adv-x="1562" unicode="Q"/>
<glyph d="M-29 0l332 1434h655q246 0 358 -92q84 -69 85 -180q0 -36 -10 -77q-35 -146 -173.5 -235t-345.5 -107q106 -7 176 -36t104 -77q34 -50 44 -116q5 -31 4 -65q0 -39 -6 -82q-14 -119 -14 -229q0 -5 -1 -10q0 -101 11 -128h-123q-7 28 -7 93q0 96 15 274q9 61 9 114 q0 18 -1 35q-4 68 -26.5 117t-84.5 76.5t-165 27.5h-557l-170 -737h-109zM252 745h518q204 0 337.5 91t170.5 249q11 47 11 88q0 97 -60 161q-85 91 -281 91h-538z" glyph-name="R" horiz-adv-x="1353" unicode="R"/>
<glyph d="M40 311q2 71 38 148h8q0 -56 15.5 -116.5t53.5 -125t93 -114.5q54 -50 142 -82q85 -31 188 -31h6h5q227 0 375 83q148 84 181 226q9 38 9 72q0 103 -83 164q-68 51 -248 102q-20 5 -63 17q-42 12 -64 18q-59 18 -100.5 31.5t-89.5 31t-81 33.5t-67.5 37t-55.5 42.5 t-39.5 48.5t-26 56.5t-7.5 66t9 77.5q21 92 81.5 162t147 111.5t186.5 62t211 20.5q122 0 217 -26.5t153 -73.5q56 -46 86 -106q27 -54 27 -116v-12q-3 -68 -36 -139h-8q1 14 1 29q0 42 -8 86q-12 60 -45 123.5t-83 113.5t-130 82q-77 31 -170 31h-6h-5q-215 0 -359 -79 q-144 -80 -176 -220q-6 -27 -6 -51q0 -30 10 -58q18 -50 45 -80t98.5 -63t115 -47.5t143.5 -44.5q17 -5 26 -8q217 -63 277 -88q146 -58 189 -145q23 -46 23 -108q0 -44 -12 -96q-28 -124 -128.5 -210.5t-233 -125t-285.5 -38.5q-133 0 -238.5 25t-171.5 69t-101 104 q-33 56 -33 123v8z" glyph-name="S" horiz-adv-x="1323" unicode="S"/>
<glyph d="M215 1300l31 134h737l-332 -1434h-108l329 1423q-343 -8 -657 -123zM981 1423l2 11h627l-31 -134q-280 115 -598 123z" glyph-name="T" horiz-adv-x="1431" unicode="T"/>
<glyph d="M92 532l209 902h109l-213 -920q-21 -90 -23 -168q0 -5 1 -10q1 -72 21 -134q22 -66 68 -113t124 -73t183 -26q276 0 445 139t225 385l213 920h14l-211 -912q-58 -254 -228 -397t-460 -143q-499 0 -499 375q0 79 22 175z" glyph-name="U" horiz-adv-x="1343" unicode="U"/>
<glyph d="M250 1434h117l297 -1309q154 233 243 369.5t201 318t192 331.5t140 290h98l-952 -1442z" glyph-name="V" horiz-adv-x="1361" unicode="V"/>
<glyph d="M242 1434h114l281 -1295l862 1295h14l263 -1301l876 1301h14l-974 -1452l-265 1321l-882 -1321z" glyph-name="W" horiz-adv-x="2480" unicode="W"/>
<glyph d="M-92 -10l770 717l-402 727h130l358 -648l694 648h19l-707 -658l432 -782h-129l-389 702l-758 -706h-18z" glyph-name="X" horiz-adv-x="1351" unicode="X"/>
<glyph d="M242 1434h129l446 -772l799 772h14l-809 -787l-149 -647h-109l146 627z" glyph-name="Y" horiz-adv-x="1445" unicode="Y"/>
<glyph d="M-35 0l1333 1425q-362 -7 -588.5 -30.5t-428.5 -89.5l30 133l1119 -4l-1334 -1426q372 10 613.5 40.5t470.5 109.5l-37 -158h-1178z" glyph-name="Z" horiz-adv-x="1335" unicode="Z"/>
<glyph d="M-82 -236l399 1731h357l-2 -8h-254l-398 -1723h-102zM20 -236l3 9h253l-2 -9h-254z" glyph-name="bracketleft" horiz-adv-x="446" unicode="["/>
<glyph d="M248 1454h18l334 -1474h-18z" glyph-name="backslash" horiz-adv-x="753" unicode="\"/>
<glyph d="M-172 -236l2 9h254l397 1722h103l-400 -1731h-356zM225 1487l2 8h254l-2 -8h-254z" glyph-name="bracketright" horiz-adv-x="387" unicode="]"/>
<glyph d="M139 721l674 711v2l12 10l9 -10l-3 -2l343 -715l-13 -10l-342 712l-674 -708z" glyph-name="asciicircum" horiz-adv-x="1218" unicode="^"/>
<glyph d="M2 -78l16 74h893l-16 -74h-893z" glyph-name="underscore" horiz-adv-x="1169" unicode="_"/>
<glyph d="M268 1288h111q42 -149 96 -264h-10q-86 92 -197 264z" glyph-name="grave" horiz-adv-x="448" unicode="`"/>
<glyph d="M55 483q58 223 228.5 360.5t388.5 139.5q143 0 220 -68t97 -182h2q24 100 41 185q55 8 113 43q-27 -114 -51 -228q-11 -45 -30 -123t-32 -131l-61 -272q-11 -46 -11 -82q0 -47 19 -77q28 -45 104 -46q13 0 27 2l-2 -4q-58 -14 -103 -14q-71 0 -107 34q-40 37 -40 108 q0 35 10 79l29 123q-61 -151 -193 -249.5t-311 -98.5q-201 0 -295 142q-61 92 -61 216q0 67 18 143zM158 268q21 -102 97 -162t194 -61q94 0 176 31t139 83.5t95 117t54 135.5h2l17 73l6 31q14 70 15 135v8q0 61 -14 117q-15 60 -46.5 103.5t-86 69.5t-128.5 26 q-174 -3 -317 -133.5t-197 -339.5q-15 -75 -15 -140q0 -50 9 -94z" glyph-name="a" horiz-adv-x="1232" unicode="a"/>
<glyph d="M-29 0l326 1403q58 8 115 43l-197 -852q71 177 216 283t333 106q223 0 331 -142q75 -98 75 -233q0 -60 -15 -127q-51 -216 -226 -357.5t-397 -141.5q-187 0 -283 108q-86 97 -86 248q0 17 1 35l-86 -373h-107zM182 455q-11 -60 -11 -113q0 -126 64 -216q91 -128 279 -128 q110 0 216 55.5t191.5 167.5t120.5 260q18 78 18 143t-18 119q-34 108 -115.5 166t-191.5 58q-188 0 -335.5 -125.5t-204.5 -333.5z" glyph-name="b" horiz-adv-x="1222" unicode="b"/>
<glyph d="M55 483q51 224 230.5 361.5t425.5 138.5q106 0 185.5 -22.5t121.5 -58t61 -80.5q14 -34 14 -68q0 -11 -1 -22q-6 -45 -31 -85h-6q2 15 2 31q-1 18 -3 40q-6 40 -28 86t-58.5 84t-103.5 63.5t-153 25.5q-202 -3 -350.5 -135.5t-194.5 -327.5q-15 -64 -14 -121 q0 -118 63 -202q94 -125 307 -128q155 0 290 65.5t212 170.5h8q-85 -143 -237.5 -230t-329.5 -87q-236 2 -349 139q-77 94 -77 229q0 62 16 133z" glyph-name="c" horiz-adv-x="1134" unicode="c"/>
<glyph d="M57 481q50 217 223.5 359.5t397.5 142.5q190 0 286 -107q87 -96 86 -250q0 -18 -1 -36l188 813q58 8 115 43l-334 -1446h-107l86 375q-71 -176 -217.5 -284.5t-333.5 -108.5q-221 0 -330 141q-75 97 -75 229q0 61 16 129zM169 220q34 -108 115 -165t191 -57 q186 0 335 126t206 327l14 63q11 59 11 111q0 129 -65 217q-91 124 -278 125q-81 0 -163.5 -33.5t-154.5 -94t-128.5 -153.5t-81.5 -205q-18 -78 -18 -144q0 -64 17 -117z" glyph-name="d" horiz-adv-x="1226" unicode="d"/>
<glyph d="M55 483q50 218 228 358.5t419 141.5q220 0 322 -121q74 -88 74 -210q0 -47 -11 -99v-4l-913 -2l-8 -33q-15 -65 -15 -123q0 -119 65 -202q96 -123 306 -126q153 0 288.5 65t209.5 171h8q-82 -140 -234.5 -228.5t-330.5 -88.5q-155 1 -260 65.5t-143 178.5q-20 60 -21 129 q0 60 16 128zM176 555h819q13 61 13 115q0 110 -52 188q-78 118 -258 117q-185 -1 -325.5 -116.5t-196.5 -303.5z" glyph-name="e" horiz-adv-x="1138" unicode="e"/>
<glyph d="M25 -410l315 1360h-231l2 6h231l27 119q15 66 37.5 119t61 102.5t90.5 82.5t127.5 53t170.5 20q97 0 166 -23t101 -59t43 -82q5 -22 5 -44.5t-5 -44.5q-11 -44 -36 -83h-6q3 22 3.5 48t-4.5 58.5t-15.5 63t-31.5 60t-49.5 51.5t-73 35.5t-99.5 13.5q-78 0 -140 -23 t-99.5 -55.5t-67 -84t-43.5 -92.5t-27 -97l-31 -138h7l598 15l-19 -76l-579 55h-9l-313 -1360h-106z" glyph-name="f" horiz-adv-x="1054" unicode="f"/>
<glyph d="M-12 -158q36 156 313 217l2 -4q-82 -25 -139.5 -80t-75.5 -131q-5 -22 -5 -43q0 -51 33 -93q45 -57 131 -84t197 -27q194 0 322 60.5t154 172.5q6 27 6 50q0 78 -67 122q-88 58 -290 76q-326 31 -410 50q-115 25 -134 75q-8 24 0 57q12 54 77 94.5t170 59.5 q-85 67 -85 171q0 32 8 68q36 154 190 242t369 88h4q91 1 178 33.5t151.5 82.5t111 105.5t71.5 110.5h6q-9 -136 -129 -226.5t-322 -107.5q181 -15 273 -101q69 -65 69 -159q0 -32 -8 -68q-35 -152 -190 -239.5t-369 -87.5q-208 0 -321 84q-84 -15 -137 -46.5t-62 -74.5 q-6 -26 11.5 -42t84.5 -30t157.5 -24t268.5 -25q173 -15 273.5 -56t133.5 -102q21 -39 21 -87q0 -29 -8 -62q-16 -71 -71.5 -125t-136.5 -85t-174.5 -46t-197.5 -15q-73 0 -140.5 7.5t-131 26.5t-108 47t-65.5 72q-13 28 -13 60q0 19 4 39zM303 653q-9 -42 -9 -79 q0 -88 50 -152q73 -90 258 -90t300.5 90.5t148.5 230.5q11 40 11 78q0 24 -4 46q-11 59 -43.5 103.5t-100.5 70.5t-162 26q-186 0 -301 -91.5t-148 -232.5z" glyph-name="g" horiz-adv-x="1236" unicode="g"/>
<glyph d="M-29 0l326 1407q57 6 115 43l-195 -846q71 177 217.5 278t341.5 101q336 0 336 -256q0 -52 -14 -115l-144 -612h-104l143 621q16 68 16 122q0 86 -40 138q-65 84 -232 84q-184 0 -328 -113t-208 -315l-123 -537h-107z" glyph-name="h" horiz-adv-x="1159" unicode="h"/>
<glyph d="M-4 0l213 922q56 6 115 41l-224 -963h-104zM264 1266q8 29 35 50t59 21q34 0 52 -21t10 -50q-6 -31 -33 -51.5t-61 -20.5q-32 0 -50 20.5t-12 51.5z" glyph-name="i" horiz-adv-x="335" unicode="i"/>
<glyph d="M-623 -162h9q12 -100 77.5 -155.5t176.5 -55.5q135 0 217.5 76t113.5 207l234 1012q47 5 114 41l-247 -1074q-35 -149 -139 -241t-275 -92q-139 0 -208.5 75.5t-72.5 206.5zM256 1266q8 29 35 50t59 21q34 0 52 -21t10 -50q-6 -31 -33.5 -51.5t-61.5 -20.5 q-32 0 -49.5 20.5t-11.5 51.5z" glyph-name="j" horiz-adv-x="307" unicode="j"/>
<glyph d="M-29 0l324 1397q53 5 115 43l-205 -887l743 403h168l-905 -411q424 -269 731 -545h-154q-249 279 -587 537l-123 -537h-107z" glyph-name="k" horiz-adv-x="1075" unicode="k"/>
<glyph d="M-29 0l326 1407q57 6 115 43l-334 -1450h-107z" glyph-name="l" horiz-adv-x="286" unicode="l"/>
<glyph d="M-29 0l213 922q56 6 115 41l-80 -351q69 176 198.5 273.5t307.5 97.5q205 0 277 -88q46 -56 46 -149q0 -54 -16 -121l-8 -35q66 186 197 289.5t319 103.5q204 0 276 -88q46 -56 46 -149q0 -54 -15 -121l-145 -625h-109l150 649q14 62 14 112q-1 77 -35 125 q-56 78 -221 79q-187 0 -317.5 -129t-182.5 -355h-2l-110 -481h-111l152 649q14 61 14 111q0 78 -36 126q-58 78 -222 79q-169 0 -296.5 -112t-186.5 -310l-125 -543h-107z" glyph-name="m" horiz-adv-x="1906" unicode="m"/>
<glyph d="M-29 0l213 922q56 6 115 41l-82 -361q72 178 217.5 279.5t341.5 101.5q336 0 336 -256q0 -52 -14 -115l-144 -612h-104l143 621q16 68 16 122q0 86 -40 138q-65 84 -232 84q-185 0 -329.5 -113.5t-206.5 -316.5l-123 -535h-107z" glyph-name="n" horiz-adv-x="1159" unicode="n"/>
<glyph d="M55 481q33 148 131 263t237 177t296 62q117 0 210 -36t151 -102q56 -67 78 -159q10 -41 10 -86q0 -57 -15 -119q-52 -222 -239.5 -360.5t-426.5 -138.5t-361 138q-86 97 -86 236q0 59 15 125zM170 481q-20 -86 -19 -158q0 -120 54 -203q88 -132 284 -132t346 132t203 361 q19 85 19 156q1 123 -55 207q-88 134 -285 133q-195 0 -344.5 -133t-202.5 -363z" glyph-name="o" horiz-adv-x="1220" unicode="o"/>
<glyph d="M-123 -410l307 1332q56 6 115 41l-86 -373q71 179 217 286t334 107q223 0 331 -142q75 -98 75 -233q0 -60 -15 -127q-51 -216 -226 -357.5t-397 -141.5q-187 0 -283 109q-86 98 -86 250q0 18 1 36l-180 -787h-107zM188 481q-18 -76 -18 -141q0 -120 59 -207 q91 -135 285 -135q110 0 216 55.5t191.5 167.5t120.5 260q18 78 18 143t-18 119q-34 108 -115.5 166t-191.5 58q-195 0 -345.5 -134t-201.5 -352z" glyph-name="p" horiz-adv-x="1222" unicode="p"/>
<glyph d="M57 481q50 217 223.5 359.5t397.5 142.5q186 0 282 -104q90 -96 90 -253q0 -13 -1 -26l84 363q45 -36 94 -41l-307 -1332h-105l178 775q-71 -172 -216.5 -277.5t-330.5 -105.5q-221 0 -330 141q-75 97 -75 229q0 61 16 129zM169 220q34 -108 115 -165t191 -57 q180 0 325.5 118t207.5 310l26 115q7 45 7 87q0 134 -71 223q-91 116 -272 116q-81 0 -163.5 -33.5t-154.5 -94t-128.5 -153.5t-81.5 -205q-18 -78 -18 -144q0 -65 17 -117z" glyph-name="q" horiz-adv-x="1226" unicode="q"/>
<glyph d="M-29 0l213 922q56 6 115 41l-104 -457q34 96 81.5 178.5t110 151t144 108t171.5 39.5q80 0 135.5 -22.5t80.5 -58.5q24 -36 30 -83q2 -14 2 -29q0 -32 -8 -66q-12 -48 -39 -97h-6q5 31 7 65q0 9 1 19q0 26 -3 55q-4 40 -19 74.5t-39 63.5t-66 46t-96 17h-4 q-90 0 -170 -45q-82 -46 -144.5 -124.5t-109 -169.5t-76.5 -192l-100 -436h-107z" glyph-name="r" horiz-adv-x="933" unicode="r"/>
<glyph d="M-14 222q4 48 34 95h7q-3 -14 -2 -30q0 -21 4 -44q8 -41 33.5 -86.5t66.5 -82.5t109 -61.5t153 -24.5q197 0 313 54.5t140 152.5q4 16 4 30q0 21 -8 40q-14 31 -39.5 51.5t-72 38.5t-87 29t-100.5 25q-11 2 -16.5 3.5t-14.5 3.5t-16 4q-214 53 -300 120q-65 51 -66 134 q0 27 7 57q19 81 90.5 139t171.5 85.5t217 27.5q102 0 179 -21t119 -55q42 -33 62 -77q16 -35 15 -71q0 -9 -1 -19q-5 -46 -30 -89h-6q8 27 2.5 61t-15.5 70.5t-37.5 71.5t-63 62t-93 44t-127.5 17q-180 0 -290 -56.5t-133 -148.5q-3 -14 -3 -27q0 -23 10 -43 q14 -32 39.5 -53t80.5 -42.5t99 -34.5t124 -33q49 -12 81.5 -20.5t72 -20.5t64 -22.5t52 -24.5t43 -29t30 -34t19 -41t4.5 -49t-8 -58q-28 -127 -167 -192.5t-345 -65.5q-103 0 -184 19.5t-129 53t-72 76.5q-20 36 -20 76q-1 7 0 15z" glyph-name="s" horiz-adv-x="1042" unicode="s"/>
<glyph d="M102 926l2 6q77 8 146 40t116.5 73t85.5 89t57.5 86.5t27.5 67.5h6q5 -19 5 -40q0 -30 -10 -65q-18 -59 -67 -108q-74 -93 -278 -137l811 53l-19 -78l-491 37l-156 -676q-11 -49 -11 -86q1 -55 25 -85q42 -50 154 -50q200 0 346 166h8q-82 -112 -177.5 -174.5 t-227.5 -62.5q-156 0 -207 69q-31 42 -31 110q0 42 12 95l158 684l53 6z" glyph-name="t" horiz-adv-x="987" unicode="t"/>
<glyph d="M41 326l137 592q53 8 115 43l-150 -654q-13 -59 -13 -106q0 -83 42 -129q66 -72 229 -72q182 0 327 119.5t204 329.5l108 469q58 8 115 43l-221 -961h-105l86 373q-71 -182 -215.5 -286.5t-332.5 -104.5q-207 0 -287 84q-53 56 -52 152q0 49 13 108z" glyph-name="u" horiz-adv-x="1142" unicode="u"/>
<glyph d="M133 956h115l237 -854l625 854h12l-710 -979z" glyph-name="v" horiz-adv-x="1050" unicode="v"/>
<glyph d="M133 956h115l215 -843l565 843h12l185 -847l596 847h14l-688 -976l-186 856l-572 -856z" glyph-name="w" horiz-adv-x="1763" unicode="w"/>
<glyph d="M-90 0l565 463l-338 493h123l293 -430l526 430h19l-537 -440l352 -516h-122l-310 453l-553 -453h-18z" glyph-name="x" horiz-adv-x="1060" unicode="x"/>
<glyph d="M39 -410l369 404l-281 962h115l243 -854l623 854h12l-708 -979l-267 -387h-106z" glyph-name="y" horiz-adv-x="1046" unicode="y"/>
<glyph d="M-86 0l977 950l-746 -22l9 35l860 -7l-969 -950l776 31l-8 -37h-899z" glyph-name="z" horiz-adv-x="962" unicode="z"/>
<glyph d="M63 -92q2 43 17 104l133 477q27 116 -68 138h-57l2 8h57q110 23 132 137l86 477q23 99 57.5 154t77.5 73.5t110 18.5h174l-2 -8h-96q-100 -1 -144 -45t-71 -160l-92 -510q-11 -52 -49 -96.5t-94 -44.5q38 0 59.5 -24t22 -55.5t-4.5 -62.5l-143 -509q-28 -114 -3 -159 t124 -46h96l-2 -8h-174q-40 0 -66.5 6t-47 21.5t-28.5 43t-6 70.5z" glyph-name="braceleft" horiz-adv-x="557" unicode="{"/>
<glyph d="M-74 -205l377 1639h27l-377 -1639h-27z" glyph-name="bar" horiz-adv-x="210" unicode="|"/>
<glyph d="M-117 -233l2 8h97q100 1 144 45t71 160l90 509q13 53 50.5 97.5t92.5 44.5q-55 0 -72 44t-6 97l146 510q27 114 2.5 159t-123.5 46h-96l2 8h174q50 0 80 -10t50 -37t18 -75t-17 -124l-135 -477q-5 -32 -5 -59t18 -48t54 -30h60l-2 -8h-60q-104 -22 -131 -138l-84 -477 q-33 -146 -89 -195.5t-157 -49.5h-174z" glyph-name="braceright" horiz-adv-x="612" unicode="}"/>
<glyph d="M240 1161h12q1 -42 27 -64t67 -22q28 0 60.5 16t57.5 34.5t61 34.5t71 16q57 0 85 -37t19 -103h-10q-6 86 -94 86q-36 0 -77.5 -24.5t-85.5 -49t-87 -24.5q-58 0 -85 36t-21 101z" glyph-name="asciitilde" horiz-adv-x="669" unicode="~"/>
<glyph glyph-name="uni00A0" horiz-adv-x="581" unicode=" "/>
<glyph d="M-109 -410q180 535 314 1102h8q-130 -597 -193 -1102h-129zM182 911q9 32 36.5 54t60.5 22q32 0 49.5 -22.5t9.5 -53.5q-7 -33 -35 -55t-61 -22q-32 0 -49 21.5t-11 55.5z" glyph-name="exclamdown" horiz-adv-x="335" unicode="¡"/>
<glyph d="M55 483q50 216 219.5 352t403.5 148l57 252h10l-57 -252h23q106 0 185.5 -22.5t121.5 -58t61 -80.5t13 -90t-31 -85h-6q5 31 -0.5 70.5t-28 86t-59 84.5t-103.5 63.5t-153 25.5h-25v-2h-10q-189 -15 -327.5 -145t-182.5 -316q-45 -198 49 -323t307 -128q155 0 290 65.5 t212 170.5h8q-85 -143 -237.5 -230t-329.5 -87h-8l-49 -218h-11l49 218q-227 8 -334.5 144.5t-56.5 356.5z" glyph-name="cent" horiz-adv-x="1134" unicode="¢"/>
<glyph d="M-4 0q147 69 232 159t112 214q11 47 13.5 92t-5 91t-15 78t-22.5 81h-225l2 10h221q-17 55 -24.5 85t-16 78.5t-6.5 94.5t14 94q16 73 65.5 139t127 119.5t191 85t247.5 31.5v2q137 0 237.5 -33t152 -86.5t71.5 -120.5t8 -134.5t-49 -129.5h-8q7 37 7.5 79t-8 90.5 t-26.5 94t-51 88t-78 74.5t-111.5 51t-146.5 19v-2q-204 0 -342.5 -94.5t-173.5 -243.5q-6 -24 -9.5 -47t-3.5 -48v-41.5t4.5 -44.5t6 -39.5t10 -42.5t10 -37.5t12 -42t11.5 -38.5h727l-2 -10h-721q17 -59 25 -102.5t11 -110t-13 -121.5q-54 -238 -361 -373 q468 6 705.5 36.5t363.5 100.5l-35 -145h-1134z" glyph-name="sterling" horiz-adv-x="1302" unicode="£"/>
<glyph d="M27 238l274 223q-39 54 -20 133q15 74 84 133l-172 225l14 11l170 -224q84 64 186 64q68 0 119 -33l236 191l8 -11l-234 -188q78 -62 56 -168q-24 -106 -132 -170l144 -188l-15 -11l-145 191q-64 -33 -133 -33q-105 0 -158 66l-274 -222zM350 500l115 94l-72 94 q-30 -48 -41 -94q-12 -48 -2 -94zM352 485q12 -42 43 -67t74 -25q60 0 113 47l-109 144zM403 702l76 -98l174 141q-33 48 -92 48q-43 0 -84.5 -25t-73.5 -66zM487 594l109 -143q63 67 80 143q19 83 -17 141z" glyph-name="currency" horiz-adv-x="917" unicode="¤"/>
<glyph d="M98 426l2 10h564l45 191l-7 10h-557l2 10h549l-454 787h129l446 -772l799 772h14l-809 -787h590l-2 -10h-590l-47 -201h592l-2 -10h-592l-98 -426h-109l99 426h-564z" glyph-name="yen" horiz-adv-x="1445" unicode="¥"/>
<glyph d="M-76 -205l162 697h27l-162 -697h-27zM141 737l162 697h27l-162 -697h-27z" glyph-name="brokenbar" horiz-adv-x="208" unicode="¦"/>
<glyph d="M223 1083q5 25 28 42.5t52 17.5q28 0 43.5 -17.5t9.5 -42.5q-4 -24 -28 -41.5t-52 -17.5q-29 0 -44 17t-9 42zM463 1083q6 25 29.5 42.5t52.5 17.5q27 0 42.5 -17.5t10.5 -42.5q-6 -25 -29 -42t-51 -17q-29 0 -44.5 17t-10.5 42z" glyph-name="dieresis" horiz-adv-x="555" unicode="¨"/>
<glyph d="M51 469q44 191 186 342.5t348.5 235t438.5 83.5q177 0 321 -49t236 -135t128 -210t3 -267q-44 -191 -190 -343.5t-357.5 -236.5t-447.5 -84q-232 0 -399.5 84t-239 236.5t-27.5 343.5zM158 469q-43 -189 13.5 -338t199.5 -232t348 -83q210 0 397 82.5t317 232t173 338.5 t-17 337.5t-208.5 231t-358.5 82.5q-205 0 -387 -82.5t-308 -231t-169 -337.5zM371 483q51 224 230 361.5t425 138.5q106 0 185 -22.5t121 -58t61.5 -80.5t13.5 -90t-31 -85h-6q5 31 -1 70.5t-28 86t-59 84.5t-103.5 63.5t-152.5 25.5q-204 -3 -352.5 -135.5t-192.5 -327.5 q-45 -198 49 -323t308 -128q155 0 289.5 65.5t209.5 170.5h9q-83 -143 -235.5 -230t-330.5 -87q-237 2 -349 139t-60 362z" glyph-name="copyright" horiz-adv-x="1783" unicode="©"/>
<glyph d="M109 502l645 450h10l-555 -450l346 -451h-10zM438 512l645 451h11l-555 -451l346 -451h-11z" glyph-name="guillemotleft" horiz-adv-x="1044" unicode="«"/>
<glyph d="M129 541l18 73h543l-16 -73h-545z" glyph-name="uni00AD" horiz-adv-x="790" unicode="­"/>
<glyph d="M51 469q44 191 186 342.5t348.5 235t438.5 83.5q177 0 321 -49t236 -135t128 -210t3 -267q-44 -191 -190 -343.5t-357.5 -236.5t-447.5 -84q-232 0 -399.5 84t-239 236.5t-27.5 343.5zM158 469q-43 -189 13.5 -338t199.5 -232t348 -83q210 0 397 82.5t317 232t173 338.5 t-17 337.5t-208.5 231t-358.5 82.5q-205 0 -387 -82.5t-308 -231t-169 -337.5zM424 23l213 890h412q155 0 225.5 -58t46.5 -159q-21 -90 -107.5 -145.5t-212.5 -67.5q125 -7 166.5 -64.5t28.5 -168.5q-8 -74 -8 -138.5t6 -88.5h-88q-11 42 4 227q6 69 5.5 120t-38.5 81 t-121 30h-346l-104 -458h-82zM612 485h322q126 0 202.5 55.5t100.5 155.5q22 100 -25.5 155.5t-167.5 55.5h-335z" glyph-name="registered" horiz-adv-x="1783" unicode="®"/>
<glyph d="M213 1040l10 41h561l-10 -41h-561z" glyph-name="macron" horiz-adv-x="743" unicode="¯"/>
<glyph d="M231 1245q19 86 101 147.5t182 61.5q98 0 151.5 -61.5t34.5 -147.5q-22 -89 -102.5 -150t-179.5 -61q-101 0 -155 61.5t-32 149.5zM305 1245q-19 -81 13.5 -141t101.5 -60q68 0 128 60t79 141q18 79 -15 139t-100 60q-69 0 -129 -60t-78 -139z" glyph-name="degree" horiz-adv-x="591" unicode="°"/>
<glyph d="M209 1024q112 117 217 264h109q-155 -148 -314 -264h-12z" glyph-name="acute" horiz-adv-x="448" unicode="´"/>
<glyph d="M162 1034q45 189 214.5 294.5t405.5 105.5h639l-329 -1434h-109l145 635h-530q-236 0 -357.5 105.5t-78.5 293.5zM276 1034q-40 -178 56.5 -284.5t304.5 -106.5h493l181 782h-512q-201 0 -341 -106t-182 -285zM1337 0l334 1450q43 -37 94 -43l-323 -1407h-105z" glyph-name="paragraph" horiz-adv-x="1652" unicode="¶"/>
<glyph d="M80 461q8 32 35 55t59 23t49.5 -23t9.5 -55t-36 -55t-60 -23t-48.5 22.5t-8.5 55.5z" glyph-name="periodcentered" horiz-adv-x="335" unicode="·"/>
<glyph d="M-123 -410l2 9q142 0 226.5 33t97.5 94q12 54 -44.5 82t-181.5 28l132 172l10 -6l-103 -147q133 0 199.5 -29.5t54.5 -87.5q-17 -72 -117 -110t-276 -38z" glyph-name="cedilla" horiz-adv-x="538" unicode="¸"/>
<glyph d="M4 51l555 451l-348 450h10l438 -450l-645 -451h-10zM330 41l555 451l-348 450h10l438 -450l-645 -451h-10z" glyph-name="guillemotright" horiz-adv-x="1044" unicode="»"/>
<glyph d="M-23 -109q10 42 27.5 79.5t47 72.5t54.5 61.5t71 61t74 54.5t85 58l10.5 7.5t9.5 6.5t11 7q60 40 86 58t69.5 51.5t64 55.5t46.5 55t40 67.5t23 75.5h9q-4 -60 -15 -108.5t-34.5 -90t-45 -70.5t-64 -64t-72 -56t-87.5 -60q-47 -32 -66.5 -46t-60.5 -44.5t-60.5 -48.5 t-49.5 -49t-46.5 -56.5t-32.5 -58.5t-24 -68q-27 -117 45.5 -180t253.5 -63q113 -1 212.5 45.5t159.5 114t87.5 143t9.5 133.5h8q31 -34 41 -75t-2 -83t-39.5 -84t-74.5 -78.5t-105 -64.5t-133 -44t-156 -16q-220 0 -316 75t-61 226zM653 926q8 31 35.5 53t59.5 22t50 -22 t9 -53q-8 -34 -35 -57t-59 -23t-49.5 23t-10.5 57z" glyph-name="questiondown" horiz-adv-x="1056" unicode="¿"/>
<glyph d="M-80 0l1030 1442l357 -1442h-117l-123 524h-756q-221 -332 -307 -524h-84zM319 535l746 2l-191 780q-441 -612 -555 -782zM813 1810h111q90 -130 215 -264h-11q-141 101 -315 264z" glyph-name="Agrave" unicode="À"/>
<glyph d="M-80 0l1030 1442l357 -1442h-117l-123 524h-756q-221 -332 -307 -524h-84zM319 535l746 2l-191 780q-441 -612 -555 -782zM858 1546q112 117 217 264h109q-155 -148 -314 -264h-12z" glyph-name="Aacute" unicode="Á"/>
<glyph d="M-80 0l1030 1442l357 -1442h-117l-123 524h-756q-221 -332 -307 -524h-84zM319 535l746 2l-191 780q-441 -612 -555 -782zM696 1546l334 264l219 -264h-10l-225 191l-305 -191h-13z" glyph-name="Acircumflex" unicode="Â"/>
<glyph d="M-80 0l1030 1442l357 -1442h-117l-123 524h-756q-221 -332 -307 -524h-84zM319 535l746 2l-191 780q-441 -612 -555 -782zM758 1683h12q1 -42 27 -64t67 -22q28 0 60.5 16t57.5 34.5t61 34.5t71 16q57 0 85.5 -37t19.5 -102h-11q-6 86 -94 86q-29 0 -62 -15.5t-58 -34 t-60.5 -34t-69.5 -15.5q-58 0 -85 36t-21 101z" glyph-name="Atilde" unicode="Ã"/>
<glyph d="M-80 0l1030 1442l357 -1442h-117l-123 524h-756q-221 -332 -307 -524h-84zM319 535l746 2l-191 780q-441 -612 -555 -782zM799 1606q5 25 28 42t52 17q28 0 43.5 -17t9.5 -42q-4 -25 -28 -42.5t-52 -17.5q-29 0 -44 17.5t-9 42.5zM1038 1606q6 25 29.5 42t52.5 17 q28 0 43.5 -17t10.5 -42q-6 -25 -29 -42.5t-51 -17.5q-29 0 -45 17.5t-11 42.5z" glyph-name="Adieresis" unicode="Ä"/>
<glyph d="M-80 0l1030 1442l357 -1442h-117l-123 524h-756q-221 -332 -307 -524h-84zM319 535l746 2l-191 780q-441 -612 -555 -782zM817 1653q11 46 66 75t137 29q81 0 123 -29t31 -75q-11 -50 -66 -79.5t-137 -29.5q-83 0 -124 29.5t-30 79.5zM879 1653q-10 -45 15.5 -72 t78.5 -27q54 0 91 26.5t48 72.5q9 43 -16.5 68.5t-77.5 25.5q-54 0 -92 -25.5t-47 -68.5z" glyph-name="Aring" unicode="Å"/>
<glyph d="M-119 0l1438 1434l1059 8l-33 -142q-123 67 -384.5 96t-530.5 29l-156 -671q547 11 870 47l-22 -99q-295 34 -848 46l-172 -740q608 16 997 144l-35 -152h-1073l135 582l-643 2l-200 -201q-191 -194 -316 -383h-86zM494 594l634 -2l193 831z" glyph-name="AE" horiz-adv-x="2236" unicode="Æ"/>
<glyph d="M108.5 343q-44.5 162 2.5 382q76 327 317.5 527t544.5 200q104 0 188 -23.5t138 -63t88 -91t42.5 -108.5t-2 -115.5t-41.5 -110.5h-8q6 61 -1 125.5t-34.5 133.5t-72.5 122.5t-122.5 88t-176.5 34.5q-131 -1 -254.5 -56.5t-220 -149.5t-167 -220t-102.5 -266 q-24 -116 -22.5 -218t36 -187t93 -146t147 -94.5t197.5 -34.5q181 0 348 85t287 236h8q-127 -200 -309.5 -305.5t-386.5 -105.5h-13l-88 -127q133 0 199.5 -29.5t54.5 -87.5q-17 -72 -117 -110t-276 -38l2 9q142 0 226.5 33t97.5 94q12 54 -44.5 82t-181.5 28l111 146 q-188 8 -315.5 103.5t-172 257.5z" glyph-name="Ccedilla" horiz-adv-x="1394" unicode="Ç"/>
<glyph d="M-29 0l332 1434l1055 8l-33 -142q-123 67 -384.5 96t-530.5 29l-156 -671q547 11 870 47l-22 -99q-295 34 -848 46l-172 -740q608 16 997 144l-35 -152h-1073zM672 1810h110q90 -130 215 -264h-10q-141 101 -315 264z" glyph-name="Egrave" horiz-adv-x="1216" unicode="È"/>
<glyph d="M-29 0l332 1434l1055 8l-33 -142q-123 67 -384.5 96t-530.5 29l-156 -671q547 11 870 47l-22 -99q-295 34 -848 46l-172 -740q608 16 997 144l-35 -152h-1073zM719 1546q112 117 217 264h108q-158 -151 -313 -264h-12z" glyph-name="Eacute" horiz-adv-x="1216" unicode="É"/>
<glyph d="M-29 0l332 1434l1055 8l-33 -142q-123 67 -384.5 96t-530.5 29l-156 -671q547 11 870 47l-22 -99q-295 34 -848 46l-172 -740q608 16 997 144l-35 -152h-1073zM555 1546l334 264l219 -264h-10l-226 191l-305 -191h-12z" glyph-name="Ecircumflex" horiz-adv-x="1216" unicode="Ê"/>
<glyph d="M-29 0l332 1434l1055 8l-33 -142q-123 67 -384.5 96t-530.5 29l-156 -671q547 11 870 47l-22 -99q-295 34 -848 46l-172 -740q608 16 997 144l-35 -152h-1073zM657 1606q5 25 28 42t52 17q28 0 44 -17t10 -42q-4 -25 -28 -42.5t-52 -17.5q-29 0 -44.5 17.5t-9.5 42.5z M897 1606q6 25 29.5 42t52.5 17q28 0 43 -17t10 -42q-6 -25 -29 -42.5t-51 -17.5q-29 0 -44.5 17.5t-10.5 42.5z" glyph-name="Edieresis" horiz-adv-x="1216" unicode="Ë"/>
<glyph d="M-29 0l332 1434h109l-332 -1434h-109zM225 1810h109q96 -134 217 -264h-10q-146 104 -316 264z" glyph-name="Igrave" horiz-adv-x="290" unicode="Ì"/>
<glyph d="M-29 0l332 1434h109l-332 -1434h-109zM270 1546q112 117 217 264h109q-158 -151 -313 -264h-13z" glyph-name="Iacute" horiz-adv-x="290" unicode="Í"/>
<glyph d="M-29 0l332 1434h109l-332 -1434h-109zM109 1546l333 264l220 -264h-11l-225 191l-305 -191h-12z" glyph-name="Icircumflex" horiz-adv-x="290" unicode="Î"/>
<glyph d="M-29 0l332 1434h109l-332 -1434h-109zM211 1606q5 25 28 42t52 17q28 0 43.5 -17t9.5 -42q-4 -25 -28 -42.5t-52 -17.5q-29 0 -44 17.5t-9 42.5zM451 1606q6 25 29 42t52 17q28 0 43.5 -17t10.5 -42q-6 -25 -29 -42.5t-51 -17.5q-29 0 -44.5 17.5t-10.5 42.5z" glyph-name="Idieresis" horiz-adv-x="290" unicode="Ï"/>
<glyph d="M-29 0l166 713h-155l2 10h155l164 711h473q379 0 554.5 -192.5t99.5 -526.5q-51 -218 -188 -380t-342.5 -248.5t-455.5 -86.5h-473zM82 8h364q331 0 559.5 188.5t305.5 518.5q75 332 -65.5 521t-471.5 189h-364l-162 -702h485l-2 -10h-485z" glyph-name="Eth" horiz-adv-x="1468" unicode="Ð"/>
<glyph d="M-29 0l332 1434h139l744 -1266l293 1266h14l-332 -1434h-14l-832 1423q-118 -508 -176.5 -821t-83.5 -602h-84zM725 1683h12q1 -42 27 -64t67 -22q28 0 60.5 16t57.5 34.5t61 34.5t71 16q57 0 85.5 -37t19.5 -102h-10q-3 43 -28.5 64.5t-66.5 21.5q-29 0 -62 -15.5 t-58 -34t-60.5 -34t-69.5 -15.5q-58 0 -85 36t-21 101z" glyph-name="Ntilde" horiz-adv-x="1370" unicode="Ñ"/>
<glyph d="M94 415q-24 135 15 300q50 218 182.5 387.5t314.5 259.5t383 90q152 0 271 -52.5t190.5 -149t95 -232.5t-15.5 -303q-50 -216 -181.5 -384t-314 -258.5t-385.5 -90.5q-150 0 -269 52.5t-190.5 149t-95.5 231.5zM202 421q14 -133 68.5 -229t152.5 -149t228 -53 q264 0 475 202t285 523q38 161 24.5 295t-67.5 230.5t-152.5 150t-228.5 53.5t-252.5 -54t-222 -149t-174.5 -231t-111 -295q-39 -161 -25 -294zM852 1808h111q90 -130 215 -264h-11q-141 101 -315 264z" glyph-name="Ograve" horiz-adv-x="1544" unicode="Ò"/>
<glyph d="M94 415q-24 135 15 300q50 218 182.5 387.5t314.5 259.5t383 90q152 0 271 -52.5t190.5 -149t95 -232.5t-15.5 -303q-50 -216 -181.5 -384t-314 -258.5t-385.5 -90.5q-150 0 -269 52.5t-190.5 149t-95.5 231.5zM202 421q14 -133 68.5 -229t152.5 -149t228 -53 q264 0 475 202t285 523q38 161 24.5 295t-67.5 230.5t-152.5 150t-228.5 53.5t-252.5 -54t-222 -149t-174.5 -231t-111 -295q-39 -161 -25 -294zM899 1544q112 117 217 264h109q-155 -148 -314 -264h-12z" glyph-name="Oacute" horiz-adv-x="1544" unicode="Ó"/>
<glyph d="M94 415q-24 135 15 300q50 218 182.5 387.5t314.5 259.5t383 90q152 0 271 -52.5t190.5 -149t95 -232.5t-15.5 -303q-50 -216 -181.5 -384t-314 -258.5t-385.5 -90.5q-150 0 -269 52.5t-190.5 149t-95.5 231.5zM202 421q14 -133 68.5 -229t152.5 -149t228 -53 q264 0 475 202t285 523q38 161 24.5 295t-67.5 230.5t-152.5 150t-228.5 53.5t-252.5 -54t-222 -149t-174.5 -231t-111 -295q-39 -161 -25 -294zM735 1544l334 264l219 -264h-10l-225 191l-305 -191h-13z" glyph-name="Ocircumflex" horiz-adv-x="1544" unicode="Ô"/>
<glyph d="M94 415q-24 135 15 300q50 218 182.5 387.5t314.5 259.5t383 90q152 0 271 -52.5t190.5 -149t95 -232.5t-15.5 -303q-50 -216 -181.5 -384t-314 -258.5t-385.5 -90.5q-150 0 -269 52.5t-190.5 149t-95.5 231.5zM202 421q14 -133 68.5 -229t152.5 -149t228 -53 q264 0 475 202t285 523q38 161 24.5 295t-67.5 230.5t-152.5 150t-228.5 53.5t-252.5 -54t-222 -149t-174.5 -231t-111 -295q-39 -161 -25 -294zM797 1681h12q1 -42 27 -64t67 -22q28 0 60.5 16t57.5 34.5t61 34.5t71 16q57 0 85 -37t19 -103h-10q-6 86 -94 86 q-36 0 -77.5 -24.5t-85.5 -49t-87 -24.5q-58 0 -85 36t-21 101z" glyph-name="Otilde" horiz-adv-x="1544" unicode="Õ"/>
<glyph d="M94 415q-24 135 15 300q50 218 182.5 387.5t314.5 259.5t383 90q152 0 271 -52.5t190.5 -149t95 -232.5t-15.5 -303q-50 -216 -181.5 -384t-314 -258.5t-385.5 -90.5q-150 0 -269 52.5t-190.5 149t-95.5 231.5zM202 421q14 -133 68.5 -229t152.5 -149t228 -53 q264 0 475 202t285 523q38 161 24.5 295t-67.5 230.5t-152.5 150t-228.5 53.5t-252.5 -54t-222 -149t-174.5 -231t-111 -295q-39 -161 -25 -294zM838 1604q5 25 28 42t52 17q28 0 43.5 -17t9.5 -42q-4 -25 -28 -42.5t-52 -17.5q-29 0 -44 17.5t-9 42.5zM1077 1604 q6 25 29.5 42t52.5 17q28 0 43 -17t10 -42q-6 -25 -29 -42.5t-50 -17.5q-29 0 -45 17.5t-11 42.5z" glyph-name="Odieresis" horiz-adv-x="1544" unicode="Ö"/>
<glyph d="M8 156l438 356l-272 358l14 11l273 -359l438 357l8 -11l-438 -356l272 -358l-14 -11l-272 359l-439 -357z" glyph-name="multiply" horiz-adv-x="917" unicode="×"/>
<glyph d="M-20 -25l219 195q-80 99 -104 235.5t14 309.5q50 218 182.5 387.5t314.5 259.5t383 90q144 0 258.5 -46.5t186.5 -133.5l208 184h15l-217 -192q81 -98 104.5 -236t-14.5 -313q-50 -216 -181.5 -384t-314 -258.5t-385.5 -90.5q-142 0 -256 47t-188 135l-211 -189h-14z M227 715q-70 -296 27 -494l1124 1000q-55 107 -155 165t-236 58q-130 0 -252.5 -54t-222 -149t-174.5 -231t-111 -295zM260 211q55 -106 155 -163.5t236 -57.5q264 0 475 202t285 523q67 298 -29 497z" glyph-name="Oslash" horiz-adv-x="1544" unicode="Ø"/>
<glyph d="M92 532l209 902h109l-213 -920q-21 -91 -22.5 -168.5t21 -144t68.5 -113t124 -72.5t183 -26q276 0 445 139t225 385l213 920h14l-211 -912q-58 -254 -228 -397t-460 -143q-605 0 -477 550zM762 1810h110q90 -130 215 -264h-10q-141 101 -315 264z" glyph-name="Ugrave" horiz-adv-x="1343" unicode="Ù"/>
<glyph d="M92 532l209 902h109l-213 -920q-21 -91 -22.5 -168.5t21 -144t68.5 -113t124 -72.5t183 -26q276 0 445 139t225 385l213 920h14l-211 -912q-58 -254 -228 -397t-460 -143q-605 0 -477 550zM807 1546q112 117 217 264h109q-155 -148 -314 -264h-12z" glyph-name="Uacute" horiz-adv-x="1343" unicode="Ú"/>
<glyph d="M92 532l209 902h109l-213 -920q-21 -91 -22.5 -168.5t21 -144t68.5 -113t124 -72.5t183 -26q276 0 445 139t225 385l213 920h14l-211 -912q-58 -254 -228 -397t-460 -143q-605 0 -477 550zM643 1546l334 264l219 -264h-10l-225 191l-306 -191h-12z" glyph-name="Ucircumflex" horiz-adv-x="1343" unicode="Û"/>
<glyph d="M92 532l209 902h109l-213 -920q-21 -91 -22.5 -168.5t21 -144t68.5 -113t124 -72.5t183 -26q276 0 445 139t225 385l213 920h14l-211 -912q-58 -254 -228 -397t-460 -143q-605 0 -477 550zM748 1606q5 25 27.5 42t51.5 17q28 0 44 -17t10 -42q-4 -25 -28 -42.5t-52 -17.5 q-29 0 -44 17.5t-9 42.5zM987 1606q6 25 29.5 42t52.5 17q28 0 43 -17t10 -42q-6 -25 -29 -42.5t-51 -17.5q-29 0 -44.5 17.5t-10.5 42.5z" glyph-name="Udieresis" horiz-adv-x="1343" unicode="Ü"/>
<glyph d="M242 1434h129l446 -772l799 772h14l-809 -787l-149 -647h-109l146 627zM844 1546q112 117 217 264h108q-158 -151 -313 -264h-12z" glyph-name="Yacute" horiz-adv-x="1445" unicode="Ý"/>
<glyph d="M-29 0l332 1434h109l-70 -301h530q238 0 359 -105.5t78 -294.5q-43 -188 -213.5 -293.5t-407.5 -105.5h-530l-78 -334h-109zM160 342h493q208 0 355 106.5t188 284.5q40 178 -51.5 284.5t-290.5 106.5h-514z" glyph-name="Thorn" horiz-adv-x="1339" unicode="Þ"/>
<glyph d="M-123 -410l332 1438q47 202 190 313t355 111q202 0 297 -80.5t61 -226.5q-29 -129 -155.5 -210.5t-317.5 -96.5q209 -18 304.5 -126t53.5 -294q-49 -208 -220.5 -322t-414.5 -114l3 6q196 0 339 116.5t189 313.5q43 191 -46 304.5t-288 113.5l2 6q178 0 300.5 82.5 t152.5 210.5q34 149 -32 230t-226 81q-168 0 -279 -101.5t-151 -273.5l-342 -1481h-107z" glyph-name="germandbls" horiz-adv-x="1073" unicode="ß"/>
<glyph d="M55 483q58 223 228.5 360.5t388.5 139.5q143 0 220 -68t97 -182h2q24 100 41 185q55 8 113 43q-27 -114 -51 -228q-11 -45 -30 -123t-32 -131l-61 -272q-25 -107 8 -159.5t131 -43.5l-2 -4q-149 -35 -209.5 20t-30.5 187l29 123q-61 -151 -193 -249.5t-311 -98.5 q-200 1 -294.5 142.5t-43.5 358.5zM158 267.5q21 -101.5 97 -161.5t194 -61q94 0 176 31t139 83.5t95 117t54 135.5h2l17 73l6 31q14 70 15 135t-14 124.5t-46.5 103.5t-86 70t-128.5 26q-174 -3 -317 -133.5t-197 -339.5q-27 -133 -6 -234.5zM530 1329h111 q90 -130 215 -264h-10q-146 104 -316 264z" glyph-name="agrave" horiz-adv-x="1232" unicode="à"/>
<glyph d="M55 483q58 223 228.5 360.5t388.5 139.5q143 0 220 -68t97 -182h2q24 100 41 185q55 8 113 43q-27 -114 -51 -228q-11 -45 -30 -123t-32 -131l-61 -272q-25 -107 8 -159.5t131 -43.5l-2 -4q-149 -35 -209.5 20t-30.5 187l29 123q-61 -151 -193 -249.5t-311 -98.5 q-200 1 -294.5 142.5t-43.5 358.5zM158 267.5q21 -101.5 97 -161.5t194 -61q94 0 176 31t139 83.5t95 117t54 135.5h2l17 73l6 31q14 70 15 135t-14 124.5t-46.5 103.5t-86 70t-128.5 26q-174 -3 -317 -133.5t-197 -339.5q-27 -133 -6 -234.5zM578 1065q112 117 217 264h108 q-158 -151 -313 -264h-12z" glyph-name="aacute" horiz-adv-x="1232" unicode="á"/>
<glyph d="M55 483q58 223 228.5 360.5t388.5 139.5q143 0 220 -68t97 -182h2q24 100 41 185q55 8 113 43q-27 -114 -51 -228q-11 -45 -30 -123t-32 -131l-61 -272q-25 -107 8 -159.5t131 -43.5l-2 -4q-149 -35 -209.5 20t-30.5 187l29 123q-61 -151 -193 -249.5t-311 -98.5 q-200 1 -294.5 142.5t-43.5 358.5zM158 267.5q21 -101.5 97 -161.5t194 -61q94 0 176 31t139 83.5t95 117t54 135.5h2l17 73l6 31q14 70 15 135t-14 124.5t-46.5 103.5t-86 70t-128.5 26q-174 -3 -317 -133.5t-197 -339.5q-27 -133 -6 -234.5zM414 1065l334 264l219 -264 h-11l-225 190l-305 -190h-12z" glyph-name="acircumflex" horiz-adv-x="1232" unicode="â"/>
<glyph d="M55 483q58 223 228.5 360.5t388.5 139.5q143 0 220 -68t97 -182h2q24 100 41 185q55 8 113 43q-27 -114 -51 -228q-11 -45 -30 -123t-32 -131l-61 -272q-25 -107 8 -159.5t131 -43.5l-2 -4q-149 -35 -209.5 20t-30.5 187l29 123q-61 -151 -193 -249.5t-311 -98.5 q-200 1 -294.5 142.5t-43.5 358.5zM158 267.5q21 -101.5 97 -161.5t194 -61q94 0 176 31t139 83.5t95 117t54 135.5h2l17 73l6 31q14 70 15 135t-14 124.5t-46.5 103.5t-86 70t-128.5 26q-174 -3 -317 -133.5t-197 -339.5q-27 -133 -6 -234.5zM477 1202h12q1 -41 27.5 -63.5 t67.5 -22.5q35 0 76 25t85.5 50.5t88.5 25.5q57 0 85 -37t19 -103h-10q-6 86 -94 86q-36 0 -77.5 -24.5t-85.5 -49t-87 -24.5q-58 0 -85.5 36t-21.5 101z" glyph-name="atilde" horiz-adv-x="1232" unicode="ã"/>
<glyph d="M55 483q58 223 228.5 360.5t388.5 139.5q143 0 220 -68t97 -182h2q24 100 41 185q55 8 113 43q-27 -114 -51 -228q-11 -45 -30 -123t-32 -131l-61 -272q-25 -107 8 -159.5t131 -43.5l-2 -4q-149 -35 -209.5 20t-30.5 187l29 123q-61 -151 -193 -249.5t-311 -98.5 q-200 1 -294.5 142.5t-43.5 358.5zM158 267.5q21 -101.5 97 -161.5t194 -61q94 0 176 31t139 83.5t95 117t54 135.5h2l17 73l6 31q14 70 15 135t-14 124.5t-46.5 103.5t-86 70t-128.5 26q-174 -3 -317 -133.5t-197 -339.5q-27 -133 -6 -234.5zM516 1124q5 25 28 42.5 t52 17.5q28 0 43.5 -17.5t9.5 -42.5q-4 -24 -28 -41.5t-52 -17.5q-29 0 -44 17t-9 42zM756 1124q6 25 29.5 42.5t52.5 17.5q27 0 42.5 -17.5t10.5 -42.5q-6 -25 -29 -42t-51 -17q-29 0 -44.5 17t-10.5 42z" glyph-name="adieresis" horiz-adv-x="1232" unicode="ä"/>
<glyph d="M55 483q58 223 228.5 360.5t388.5 139.5q143 0 220 -68t97 -182h2q24 100 41 185q55 8 113 43q-27 -114 -51 -228q-11 -45 -30 -123t-32 -131l-61 -272q-25 -107 8 -159.5t131 -43.5l-2 -4q-149 -35 -209.5 20t-30.5 187l29 123q-61 -151 -193 -249.5t-311 -98.5 q-200 1 -294.5 142.5t-43.5 358.5zM158 267.5q21 -101.5 97 -161.5t194 -61q94 0 176 31t139 83.5t95 117t54 135.5h2l17 73l6 31q14 70 15 135t-14 124.5t-46.5 103.5t-86 70t-128.5 26q-174 -3 -317 -133.5t-197 -339.5q-27 -133 -6 -234.5zM537 1171q11 47 65.5 76 t136.5 29q81 0 123 -29.5t31 -75.5q-10 -49 -65.5 -78.5t-137.5 -29.5q-83 0 -123.5 29t-29.5 79zM598 1171q-10 -45 15.5 -71.5t78.5 -26.5q54 0 91.5 26t47.5 72q9 43 -16.5 69t-77.5 26q-54 0 -92 -26t-47 -69z" glyph-name="aring" horiz-adv-x="1232" unicode="å"/>
<glyph d="M2 254q61 261 526 287l390 24l18 76q38 166 -34 251t-249 85q-82 0 -158 -24.5t-130 -62t-97.5 -83.5t-68 -86.5t-35.5 -73.5h-6q-7 55 21 112.5t86.5 108t161 83t230.5 32.5q359 0 365 -240q87 111 210.5 175t268.5 65q199 0 289 -121t51 -309v-4l-829 -2l-8 -33 q-47 -202 37.5 -325t275.5 -126q139 0 264 65t193 171h8q-79 -139 -219.5 -228t-300.5 -89q-175 1 -274.5 96.5t-102.5 255.5q-40 -160 -178 -256t-332 -96q-221 0 -312 70.5t-61 201.5zM113 256q-28 -118 40.5 -189t249.5 -71q170 0 298 91t165 257l52 215 q-59 -4 -178.5 -11t-180.5 -11q-388 -24 -446 -281zM1014 555h743q41 184 -28.5 302t-233.5 118q-166 -1 -296 -117t-185 -303z" glyph-name="ae" horiz-adv-x="1890" unicode="æ"/>
<glyph d="M55 483q51 224 230.5 361.5t425.5 138.5q106 0 185.5 -22.5t121.5 -58t61 -80.5t13 -90t-31 -85h-6q5 31 -0.5 70.5t-28 86t-59 84.5t-103.5 63.5t-153 25.5q-202 -3 -350.5 -135.5t-194.5 -327.5q-45 -198 49 -323t307 -128q155 0 290 65.5t212 170.5h8 q-85 -143 -237.5 -230t-329.5 -87h-27l-88 -127q133 0 199.5 -29.5t54.5 -87.5q-17 -72 -117 -110t-276 -38l2 9q142 0 226.5 33t97.5 94q12 54 -44.5 82t-181.5 28l113 148q-216 14 -317 149.5t-52 349.5z" glyph-name="ccedilla" horiz-adv-x="1134" unicode="ç"/>
<glyph d="M55 483q50 218 228 358.5t419 141.5q220 0 322 -121t63 -309v-4l-913 -2l-8 -33q-46 -202 50 -325t306 -126q153 0 288.5 65t209.5 171h8q-82 -140 -234.5 -228.5t-330.5 -88.5q-155 1 -260 65.5t-143.5 178t-4.5 257.5zM176 555h819q39 185 -39.5 302.5t-257.5 117.5 q-185 -1 -325.5 -116.5t-196.5 -303.5zM561 1329h111q90 -130 215 -264h-10q-146 104 -316 264z" glyph-name="egrave" horiz-adv-x="1138" unicode="è"/>
<glyph d="M55 483q50 218 228 358.5t419 141.5q220 0 322 -121t63 -309v-4l-913 -2l-8 -33q-46 -202 50 -325t306 -126q153 0 288.5 65t209.5 171h8q-82 -140 -234.5 -228.5t-330.5 -88.5q-155 1 -260 65.5t-143.5 178t-4.5 257.5zM176 555h819q39 185 -39.5 302.5t-257.5 117.5 q-185 -1 -325.5 -116.5t-196.5 -303.5zM608 1065q112 117 217 264h109q-158 -151 -313 -264h-13z" glyph-name="eacute" horiz-adv-x="1138" unicode="é"/>
<glyph d="M55 483q50 218 228 358.5t419 141.5q220 0 322 -121t63 -309v-4l-913 -2l-8 -33q-46 -202 50 -325t306 -126q153 0 288.5 65t209.5 171h8q-82 -140 -234.5 -228.5t-330.5 -88.5q-155 1 -260 65.5t-143.5 178t-4.5 257.5zM176 555h819q39 185 -39.5 302.5t-257.5 117.5 q-185 -1 -325.5 -116.5t-196.5 -303.5zM444 1065l334 264l219 -264h-10l-225 190l-305 -190h-13z" glyph-name="ecircumflex" horiz-adv-x="1138" unicode="ê"/>
<glyph d="M55 483q50 218 228 358.5t419 141.5q220 0 322 -121t63 -309v-4l-913 -2l-8 -33q-46 -202 50 -325t306 -126q153 0 288.5 65t209.5 171h8q-82 -140 -234.5 -228.5t-330.5 -88.5q-155 1 -260 65.5t-143.5 178t-4.5 257.5zM176 555h819q39 185 -39.5 302.5t-257.5 117.5 q-185 -1 -325.5 -116.5t-196.5 -303.5zM547 1124q5 25 28 42.5t52 17.5q28 0 43.5 -17.5t9.5 -42.5q-4 -24 -28 -41.5t-52 -17.5q-29 0 -44 17t-9 42zM786 1124q6 25 29.5 42.5t52.5 17.5q28 0 43.5 -17.5t10.5 -42.5q-6 -25 -29 -42t-51 -17q-29 0 -45 17t-11 42z" glyph-name="edieresis" horiz-adv-x="1138" unicode="ë"/>
<glyph d="M33 0l213 922q55 5 114 41l-223 -963h-104zM258 1425h111q42 -149 96 -264h-10q-86 92 -197 264z" glyph-name="igrave" horiz-adv-x="407" unicode="ì"/>
<glyph d="M33 0l213 922q55 5 114 41l-223 -963h-104zM238 1161q112 117 217 264h108q-158 -151 -313 -264h-12z" glyph-name="iacute" horiz-adv-x="407" unicode="í"/>
<glyph d="M33 0l213 922q55 5 114 41l-223 -963h-104zM76 1161l334 264l219 -264h-11l-225 191l-305 -191h-12z" glyph-name="icircumflex" horiz-adv-x="407" unicode="î"/>
<glyph d="M33 0l213 922q55 5 114 41l-223 -963h-104zM178 1221q5 25 28 42t52 17q28 0 43.5 -17t9.5 -42q-4 -25 -28 -42.5t-52 -17.5q-29 0 -44 17.5t-9 42.5zM418 1221q6 25 29.5 42t52.5 17q28 0 43 -17t10 -42q-6 -25 -29 -42.5t-51 -17.5q-29 0 -44.5 17.5t-10.5 42.5z" glyph-name="idieresis" horiz-adv-x="407" unicode="ï"/>
<glyph d="M49 461q48 207 221 344t396 137q169 0 271 -77t114 -216q30 345 -168 580l-279 -156l-4 10l277 154q-96 109 -240 195h16q146 -76 252 -179l326 181l4 -9l-322 -180q153 -148 210 -337t10 -394q-37 -164 -133.5 -285t-235 -184t-303.5 -63q-229 0 -344 133t-68 346z M149 257q16 -88 64.5 -147.5t115.5 -89.5t144 -30q105 1 198 38.5t162.5 103t118 151.5t70.5 186l18 90q15 167 -77 268t-273 101q-76 0 -157 -30.5t-156 -86.5t-134 -147.5t-85 -202.5q-25 -116 -9 -204z" glyph-name="eth" horiz-adv-x="1193" unicode="ð"/>
<glyph d="M-29 0l213 922q56 6 115 41l-82 -361q72 178 217.5 279.5t341.5 101.5q405 0 322 -371l-144 -612h-104l143 621q41 176 -24 260t-232 84q-185 0 -329.5 -113.5t-206.5 -316.5l-123 -535h-107zM537 1202h12q1 -42 27 -64t67 -22q35 0 76 25t85.5 50.5t88.5 25.5 q57 0 85 -37t19 -103h-10q-6 86 -94 86q-36 0 -77.5 -24.5t-85.5 -49t-87 -24.5q-58 0 -85 36t-21 101z" glyph-name="ntilde" horiz-adv-x="1159" unicode="ñ"/>
<glyph d="M55 481q33 148 131 263t237 177t296 62q117 0 210 -36t150.5 -102t79 -158.5t-5.5 -205.5q-52 -222 -239.5 -360.5t-426.5 -138.5t-361.5 138.5t-70.5 360.5zM170 481q-53 -229 35 -361t284 -132t346 132t203 361q52 229 -36.5 362.5t-284.5 133.5q-195 0 -344.5 -133 t-202.5 -363zM580 1329h110q90 -130 215 -264h-10q-141 101 -315 264z" glyph-name="ograve" horiz-adv-x="1220" unicode="ò"/>
<glyph d="M55 481q33 148 131 263t237 177t296 62q117 0 210 -36t150.5 -102t79 -158.5t-5.5 -205.5q-52 -222 -239.5 -360.5t-426.5 -138.5t-361.5 138.5t-70.5 360.5zM170 481q-53 -229 35 -361t284 -132t346 132t203 361q52 229 -36.5 362.5t-284.5 133.5q-195 0 -344.5 -133 t-202.5 -363zM627 1065q112 117 217 264h108q-158 -151 -313 -264h-12z" glyph-name="oacute" horiz-adv-x="1220" unicode="ó"/>
<glyph d="M55 481q33 148 131 263t237 177t296 62q117 0 210 -36t150.5 -102t79 -158.5t-5.5 -205.5q-52 -222 -239.5 -360.5t-426.5 -138.5t-361.5 138.5t-70.5 360.5zM170 481q-53 -229 35 -361t284 -132t346 132t203 361q52 229 -36.5 362.5t-284.5 133.5q-195 0 -344.5 -133 t-202.5 -363zM463 1065l334 264l219 -264h-10l-226 190l-305 -190h-12z" glyph-name="ocircumflex" horiz-adv-x="1220" unicode="ô"/>
<glyph d="M55 481q33 148 131 263t237 177t296 62q117 0 210 -36t150.5 -102t79 -158.5t-5.5 -205.5q-52 -222 -239.5 -360.5t-426.5 -138.5t-361.5 138.5t-70.5 360.5zM170 481q-53 -229 35 -361t284 -132t346 132t203 361q52 229 -36.5 362.5t-284.5 133.5q-195 0 -344.5 -133 t-202.5 -363zM524 1202h13q1 -42 27 -64t67 -22q35 0 76 25t85.5 50.5t88.5 25.5q57 0 85 -37t19 -103h-10q-6 86 -94 86q-36 0 -77.5 -24.5t-85.5 -49t-87 -24.5q-58 0 -85.5 36t-21.5 101z" glyph-name="otilde" horiz-adv-x="1220" unicode="õ"/>
<glyph d="M55 481q33 148 131 263t237 177t296 62q117 0 210 -36t150.5 -102t79 -158.5t-5.5 -205.5q-52 -222 -239.5 -360.5t-426.5 -138.5t-361.5 138.5t-70.5 360.5zM170 481q-53 -229 35 -361t284 -132t346 132t203 361q52 229 -36.5 362.5t-284.5 133.5q-195 0 -344.5 -133 t-202.5 -363zM565 1124q5 25 28 42.5t52 17.5q28 0 43.5 -17.5t9.5 -42.5q-4 -24 -28 -41.5t-52 -17.5q-29 0 -44 17t-9 42zM805 1124q6 25 29.5 42.5t52.5 17.5q27 0 42.5 -17.5t10.5 -42.5q-6 -25 -29 -42t-51 -17q-29 0 -44.5 17t-10.5 42z" glyph-name="odieresis" horiz-adv-x="1220" unicode="ö"/>
<glyph d="M-45 -18l174 135q-126 139 -74 364q33 148 131 263t237 177t296 62q232 0 354 -131l168 131h16l-178 -139q59 -65 78.5 -157.5t-4.5 -205.5q-52 -222 -239.5 -360.5t-426.5 -138.5q-229 0 -352 129l-164 -129h-16zM170 481q-46 -195 14 -321l836 651q-38 80 -116.5 123 t-186.5 43q-195 0 -344.5 -133t-202.5 -363zM188 150q38 -78 116 -120t185 -42q196 0 346 132t203 361q43 194 -14 320z" glyph-name="oslash" horiz-adv-x="1220" unicode="ø"/>
<glyph d="M41 326l137 592q53 8 115 43l-150 -654q-37 -163 28.5 -235t229.5 -72q182 0 327 119.5t204 329.5l108 469q58 8 115 43l-221 -961h-105l86 373q-71 -182 -215.5 -286.5t-332.5 -104.5q-207 0 -286.5 83.5t-39.5 260.5zM543 1329h110q90 -130 215 -264h-10 q-141 101 -315 264z" glyph-name="ugrave" horiz-adv-x="1142" unicode="ù"/>
<glyph d="M41 326l137 592q53 8 115 43l-150 -654q-37 -163 28.5 -235t229.5 -72q182 0 327 119.5t204 329.5l108 469q58 8 115 43l-221 -961h-105l86 373q-71 -182 -215.5 -286.5t-332.5 -104.5q-207 0 -286.5 83.5t-39.5 260.5zM590 1065q112 117 217 264h108 q-158 -151 -313 -264h-12z" glyph-name="uacute" horiz-adv-x="1142" unicode="ú"/>
<glyph d="M41 326l137 592q53 8 115 43l-150 -654q-37 -163 28.5 -235t229.5 -72q182 0 327 119.5t204 329.5l108 469q58 8 115 43l-221 -961h-105l86 373q-71 -182 -215.5 -286.5t-332.5 -104.5q-207 0 -286.5 83.5t-39.5 260.5zM426 1065l334 264l219 -264h-10l-226 190 l-305 -190h-12z" glyph-name="ucircumflex" horiz-adv-x="1142" unicode="û"/>
<glyph d="M41 326l137 592q53 8 115 43l-150 -654q-37 -163 28.5 -235t229.5 -72q182 0 327 119.5t204 329.5l108 469q58 8 115 43l-221 -961h-105l86 373q-71 -182 -215.5 -286.5t-332.5 -104.5q-207 0 -286.5 83.5t-39.5 260.5zM528 1124q5 25 28 42.5t52 17.5q28 0 44 -17.5 t10 -42.5q-4 -24 -28 -41.5t-52 -17.5q-29 0 -44.5 17t-9.5 42zM768 1124q6 25 29.5 42.5t52.5 17.5q27 0 42.5 -17.5t10.5 -42.5q-6 -25 -29 -42t-51 -17q-29 0 -44.5 17t-10.5 42z" glyph-name="udieresis" horiz-adv-x="1142" unicode="ü"/>
<glyph d="M39 -410l369 404l-281 962h115l243 -854l623 854h12l-708 -979l-267 -387h-106zM559 1065q112 117 217 264h109q-155 -148 -314 -264h-12z" glyph-name="yacute" horiz-adv-x="1046" unicode="ý"/>
<glyph d="M-123 -410l94 410l109 469l104 453l113 485q57 6 115 43l-199 -858q71 177 217 284t334 107q223 0 331 -142t60 -360q-51 -216 -226 -357.5t-397 -141.5q-187 0 -283 108.5t-85 284.5l-86 -375l-94 -410h-107zM184 463q-41 -205 50 -335t280 -130q110 0 216 55.5 t191.5 167.5t120.5 260q35 154 0.5 262t-116 166t-191.5 58q-191 0 -339.5 -129t-202.5 -340z" glyph-name="thorn" horiz-adv-x="1222" unicode="þ"/>
</font>
</defs>
</svg>
