<?xml version="1.0" encoding="UTF-8"?>
<!DOCTYPE svg  PUBLIC '-//W3C//DTD SVG 1.1//EN'  'http://www.w3.org/Graphics/SVG/1.1/DTD/svg11.dtd'>
<svg version="1.1" xmlns="http://www.w3.org/2000/svg">
<defs>
<font id="Orelo-SemiWideItalic" horiz-adv-x="1232">
<font-face font-family="Orelo SemiWide" font-stretch="semi-expanded" font-style="italic" font-weight="400" ascent="1638" bbox="-586 -442 2634 1810" cap-height="1434" descent="-410" panose-1="0 0 5 5 0 0 0 0 0 0" slope="-13" underline-position="-274" underline-thickness="14" unicode-range="U+0020-00FE" units-per-em="2048" x-height="956"/>
<missing-glyph/>
<glyph glyph-name="space" horiz-adv-x="573" unicode=" "/>
<glyph d="M-8 86q11 40 44 67t73 27t61 -27t12 -67t-42.5 -68t-73.5 -28t-61.5 28t-12.5 68zM133 301q55 251 106.5 569.5t75.5 563.5h168q-87 -242 -183 -561t-159 -572h-8z" glyph-name="exclam" horiz-adv-x="393" unicode="!"/>
<glyph d="M248 1055q70 33 117.5 107.5t54.5 137.5q-26 -30 -66 -30q-38 0 -56 28.5t-9 65.5q8 40 40.5 67t73.5 27q48 0 65 -41.5t3 -103.5q-19 -85 -74.5 -157t-144.5 -105zM502 1055q70 33 117.5 107.5t54.5 137.5q-26 -30 -66 -30q-38 0 -56 28.5t-9 65.5q8 40 40.5 67t73.5 27 q48 0 65 -41.5t3 -103.5q-19 -85 -74.5 -157t-144.5 -105z" glyph-name="quotedbl" horiz-adv-x="630" unicode='"'/>
<glyph d="M35 -20l338 491h-328l39 92h352l172 250h-438l39 92h463l379 549h20l-379 -549h680l379 549h21l-379 -549h227l-39 -92h-252l-172 -250h336l-37 -92h-362l-338 -491h-21l338 491h-680l-338 -491h-20zM457 563h680l172 250h-680z" glyph-name="numbersign" horiz-adv-x="1591" unicode="#"/>
<glyph d="M35 325q9 72 55 148h8q-2 -56 11 -116t45 -123t79 -113.5t121 -86t164 -42.5l152 657q-57 18 -95 30.5t-85.5 31t-78.5 34t-66 36.5t-55.5 42.5t-39.5 49.5t-26 58.5t-7 68t10 79.5q22 97 83.5 171t148 117t185.5 64t208 21h2l43 186h10l-43 -186q118 -1 211 -29.5 t148 -76.5t81 -109.5t16.5 -131.5t-50.5 -140h-6q6 57 -4 119t-39 126t-74.5 115t-119.5 84t-165 35l-143 -625q5 -1 14.5 -4t14.5 -4q206 -61 266 -86q145 -60 186 -151q37 -80 8 -203q-23 -99 -87 -176t-153.5 -122t-191 -68t-209.5 -23h-41l-51 -218h-10l51 220 q-120 5 -215.5 32t-156 73t-89.5 105t-20 131zM326.5 1097q-0.5 -26 7 -49t17 -42t30 -36.5t37.5 -31t48 -28t53 -24t60 -22.5t62.5 -20.5t67.5 -20.5l143 621h-2q-208 1 -346.5 -78t-169.5 -213q-7 -30 -7.5 -56zM526 -8q14 -2 41 -2q218 -1 359 79t172 216q9 38 8.5 70.5 t-5 57.5t-22 48.5t-32 39.5t-46.5 33.5t-53 27.5t-64.5 24.5t-69 22t-76.5 21.5q-40 11 -60 17z" glyph-name="dollar" horiz-adv-x="1294" unicode="$"/>
<glyph d="M190 1071q38 163 155.5 271t254.5 108q140 0 208 -107.5t30 -271.5q-37 -161 -155.5 -269t-256.5 -108q-137 0 -205 108t-31 269zM255.5 886q4.5 -83 49 -135.5t121.5 -52.5q116 0 205.5 107.5t126.5 265.5q20 102 14.5 185.5t-51 136.5t-123.5 53q-77 0 -145 -53 t-113 -136.5t-68 -185.5q-21 -102 -16.5 -185zM344 -20l1016 1474h20l-1015 -1474h-21zM844 369q38 164 155 271.5t254 107.5q140 0 208 -107.5t30 -271.5q-37 -161 -155.5 -269t-256.5 -108q-137 0 -204.5 108t-30.5 269zM908 226.5q0 -66.5 17 -118.5t56.5 -82t97.5 -30 q116 0 205.5 107.5t126.5 265.5q20 102 15 185.5t-50 136t-123 52.5q-115 0 -203 -108t-124 -266q-18 -76 -18 -142.5z" glyph-name="percent" horiz-adv-x="1585" unicode="%"/>
<glyph d="M23 344q34 145 177 247t367 142q-100 132 -126.5 214t-2.5 179q33 148 174.5 237t360.5 89q210 0 294.5 -88.5t47.5 -243.5q-31 -136 -182.5 -227.5t-415.5 -132.5q19 -25 39.5 -51t51.5 -63t50.5 -60t65 -75.5t64 -73t79 -90t80.5 -91.5q75 87 106.5 189t23 198.5 t-49.5 190.5h190q-21 -308 -264 -586q27 -31 98.5 -114.5t114.5 -133.5h-184q-17 20 -60 70.5t-65 76.5q-184 -165 -527 -165q-269 0 -408 93.5t-99 268.5zM184 354q-39 -168 71.5 -261t326.5 -93q147 0 267 41t202 115q-57 67 -152.5 178t-139.5 162.5t-97.5 116.5 t-88.5 110q-156 -39 -257.5 -137.5t-131.5 -231.5zM588 1157q-22 -97 4.5 -181t118.5 -208q201 38 325 131.5t154 224.5q77 320 -219 320q-157 0 -254 -76t-129 -211z" glyph-name="ampersand" horiz-adv-x="1511" unicode="&amp;"/>
<glyph d="M244 1036q70 33 117.5 107t54.5 137q-29 -29 -68 -29q-38 0 -55.5 29t-9.5 66q9 40 42 67t74 27q48 0 65 -42t3 -104q-21 -86 -75.5 -157.5t-143.5 -104.5z" glyph-name="quotesingle" horiz-adv-x="376" unicode="'"/>
<glyph d="M90 635q55 238 218.5 447t475.5 413h11q-205 -158 -358.5 -387.5t-211.5 -472.5q-56 -258 -8.5 -483.5t180.5 -376.5h-10q-217 211 -284 417.5t-13 442.5z" glyph-name="parenleft" horiz-adv-x="567" unicode="("/>
<glyph d="M-170 -225q203 151 357.5 380.5t211.5 479.5q54 251 7 476t-179 384h11q219 -204 286 -413t11 -447q-54 -236 -217 -442.5t-478 -417.5h-10z" glyph-name="parenright" horiz-adv-x="567" unicode=")"/>
<glyph d="M211 1161l80 113q127 -94 188 -135t142 -82q8 35 12.5 66.5t7 70.5t3.5 64.5t1.5 83.5t1.5 92h137q-8 -19 -30.5 -68t-28.5 -63.5t-22 -50.5t-22 -52.5t-16.5 -44.5t-17.5 -51t-14 -49q70 29 139.5 63.5t117 60t175.5 95.5l27 -113q-49 -11 -136 -29t-122 -26t-91 -25 t-110 -39q19 -24 40 -47t35 -37.5t44.5 -41.5t42.5 -37t57 -48t61 -51l-120 -78q-11 24 -31.5 71t-28.5 65t-23.5 51.5t-26.5 52.5t-26.5 44t-33.5 50q-35 -29 -63.5 -55t-63.5 -63t-53 -56.5t-69.5 -76.5t-74.5 -83l-86 78q31 19 87 52.5t78 47t62 38.5t63 41t54 38.5 t61 46.5v3q-43 20 -90.5 36t-81.5 24t-109.5 25t-125.5 29z" glyph-name="asterisk" horiz-adv-x="1003" unicode="*"/>
<glyph d="M88 504l4 20h543l98 426h21l-99 -426h543l-4 -20h-543l-98 -426h-21l99 426h-543z" glyph-name="plus" horiz-adv-x="1288" unicode="+"/>
<glyph d="M-193 -272q100 78 149.5 190.5t63.5 220.5h109q-11 -63 -33.5 -121t-59.5 -113.5t-94 -102.5t-130 -78z" glyph-name="comma" horiz-adv-x="319" unicode=","/>
<glyph d="M121 526l24 101h574l-25 -101h-573z" glyph-name="hyphen" horiz-adv-x="808" unicode="-"/>
<glyph d="M-8 86q11 40 44 67t73 27t61 -27t12 -67t-42.5 -68t-73.5 -28t-61.5 28t-12.5 68z" glyph-name="period" horiz-adv-x="372" unicode="."/>
<glyph d="M-98 -20l1016 1474h20l-1016 -1474h-20z" glyph-name="slash" horiz-adv-x="747" unicode="/"/>
<glyph d="M85 477q-3 111 24 238q48 210 169 379t286 263.5t341 94.5q107 0 196.5 -36t151.5 -101t100 -156.5t41 -203t-24 -240.5q-48 -208 -170 -376t-289 -262.5t-346 -94.5q-105 0 -193.5 35.5t-149 101t-97.5 156.5t-40 202zM232 439q0 -130 33.5 -230.5t111 -159.5t190.5 -59 q115 0 220.5 59t187 159.5t142.5 230.5t95 276q27 118 33 225.5t-12.5 199.5t-58.5 159.5t-109.5 106t-161.5 38.5q-113 0 -217.5 -59t-185 -160t-141 -231.5t-93.5 -278.5q-34 -146 -34 -276z" glyph-name="zero" horiz-adv-x="1384" unicode="0"/>
<glyph d="M104 795l2 8q145 10 281.5 71t237 152t172 197t102.5 211h8q-29 -112 -75 -207.5t-115.5 -177t-157 -138t-203.5 -87.5t-252 -29zM575 0l332 1434h144l-332 -1434h-144z" glyph-name="one" horiz-adv-x="997" unicode="1"/>
<glyph d="M-92 0l2 8q123 73 208 124t189 116t175 114t152 109t136 110t111 107.5t92 111.5t64 113t42 119q43 186 -35 299t-256 113q-92 0 -178.5 -36t-150 -92.5t-114 -126t-79.5 -135t-39 -120.5h-8q-14 49 -15 100t19.5 102t53 97.5t85 86.5t115 69t144 46t170.5 17 q106 0 195.5 -25.5t155.5 -75.5t93 -132.5t2 -186.5q-15 -63 -46.5 -125t-73 -116t-101.5 -110t-120.5 -103t-141 -100t-152 -95.5t-165.5 -94.5t-169.5 -92t-175.5 -94t-172 -94q366 6 629.5 38.5t513.5 100.5l-35 -147h-1120z" glyph-name="two" horiz-adv-x="1208" unicode="2"/>
<glyph d="M47 449h10q1 -92 34.5 -162t94 -113t140.5 -65t178 -23q124 0 225.5 32t171 96.5t90.5 154.5q18 77 -3 139t-70.5 104t-127 71t-167 43.5t-195.5 18.5l2 9q610 24 690 366q31 138 -50 231t-257 93q-86 0 -168.5 -32.5t-144.5 -83.5t-112 -114.5t-79 -126t-39 -116.5h-6 q-21 57 -12.5 115t34 111.5t77 100t116 81t152 54t184.5 19.5q82 0 154 -11.5t134.5 -36.5t101.5 -63.5t57 -93.5t0 -127q-20 -85 -85.5 -152t-164 -110.5t-215 -69.5t-250.5 -36q107 -5 199.5 -21t174 -48t134.5 -76.5t75.5 -111t2.5 -147.5q-37 -163 -205 -264.5 t-408 -101.5q-241 0 -364.5 122t-108.5 345z" glyph-name="three" unicode="3"/>
<glyph d="M-8 442v7l1126 985h148l-226 -975l301 4l-8 -35l-299 4l-100 -432h-146l101 432zM154 451l741 8l223 966q-81 -79 -170.5 -167.5t-156 -154.5t-169 -170.5t-150.5 -154t-165 -170t-153 -157.5z" glyph-name="four" horiz-adv-x="1376" unicode="4"/>
<glyph d="M63 330h7q114 -256 479 -256q223 1 376 118t195 304q50 212 -45.5 339.5t-304.5 127.5q-178 0 -312.5 -97.5t-181.5 -226.5h-10h-100l366 795h7l917 14l-8 -33q-116 2 -454.5 6t-454.5 6l-238 -716q69 119 202.5 197.5t309.5 78.5q121 0 216 -32.5t158 -97t84 -159 t-7 -219.5q-35 -152 -138 -265t-248 -171.5t-313 -60.5q-203 0 -332 93.5t-170 254.5z" glyph-name="five" horiz-adv-x="1390" unicode="5"/>
<glyph d="M113 616q74 324 325 551.5t631 292.5q136 25 242 25l-2 -8q-117 0 -236 -29q-170 -34 -309 -112t-236 -190t-161.5 -244.5t-100.5 -287.5q-21 -100 -26 -163q29 134 117 234.5t210 151t260 50.5q109 0 196 -31.5t141.5 -90.5t74.5 -142t-4 -187q-31 -133 -127.5 -236.5 t-239.5 -160.5t-307 -57q-269 0 -392.5 171.5t-55.5 462.5zM236 383q-5 -187 77 -290t250 -103q191 0 335 121t187 311q43 192 -42.5 311t-264.5 119q-96 0 -187.5 -31.5t-166.5 -89t-125.5 -148t-62.5 -200.5z" glyph-name="six" horiz-adv-x="1310" unicode="6"/>
<glyph d="M-31 0q45 92 109 189t132.5 185t169.5 196.5t186.5 195.5t219.5 212t233.5 215t260.5 234l-1026 -12l10 33l1024 -14h6q-183 -174 -310 -300t-268 -280t-239.5 -283t-188 -277t-149.5 -294h-170z" glyph-name="seven" horiz-adv-x="1114" unicode="7"/>
<glyph d="M23 346q21 91 90.5 165t169 121t203 75.5t214.5 42.5q-75 11 -141 29.5t-127 50t-101.5 71.5t-58 96.5t-2.5 122.5q36 158 203 245t404 87q153 0 262.5 -37t161.5 -113t28 -182q-19 -82 -80 -148.5t-148.5 -110t-180 -70.5t-193.5 -41q83 -11 156.5 -30.5t144.5 -53.5 t118 -77t68 -106t3 -137q-27 -115 -124.5 -198.5t-240 -124.5t-315.5 -41q-174 0 -298 41t-183 124.5t-33 198.5zM171 238.5q4 -52.5 31.5 -98t70.5 -79t111.5 -52.5t154.5 -19q208 0 349 104t175 254q18 86 1.5 152t-68.5 115t-123 79.5t-162 46.5q-204 -33 -349.5 -132 t-183.5 -261q-11 -57 -7 -109.5zM412 1120q-34 -147 50.5 -241.5t252.5 -120.5q180 26 309.5 120.5t163.5 241.5q31 133 -51 228.5t-263 95.5q-183 0 -307.5 -95.5t-154.5 -228.5z" glyph-name="eight" horiz-adv-x="1316" unicode="8"/>
<glyph d="M80 -51l2 8q115 0 237 29q137 27 254 83.5t205 133.5t157.5 176t115.5 208t75 232q23 107 27 164q-29 -134 -117.5 -234.5t-210.5 -151t-260 -50.5q-224 0 -339 123t-68 327q46 202 233.5 328.5t437.5 126.5q270 0 394 -172t57 -463q-74 -324 -325 -551.5t-631 -292.5 q-134 -24 -244 -24zM307 1012q-44 -191 42 -310.5t265 -119.5q96 0 187 31.5t166.5 89t126.5 148t63 200.5q5 187 -77.5 290t-252.5 103q-190 0 -333.5 -121t-186.5 -311z" glyph-name="nine" horiz-adv-x="1288" unicode="9"/>
<glyph d="M-8 86q11 40 44 67t73 27t61 -27t12 -67t-42.5 -68t-73.5 -28t-61.5 28t-12.5 68zM135 709q11 40 44 67t73 27t61.5 -27t12.5 -67t-43 -68.5t-74 -28.5t-61.5 28.5t-12.5 68.5z" glyph-name="colon" horiz-adv-x="372" unicode=":"/>
<glyph d="M-59 -272q100 78 149.5 190.5t63.5 220.5h108q-11 -63 -33.5 -121t-59.5 -113.5t-94 -102.5t-130 -78zM223 709q11 40 44.5 67t74.5 27q39 0 60.5 -27.5t11.5 -66.5q-9 -40 -43 -68.5t-74 -28.5t-61.5 28.5t-12.5 68.5z" glyph-name="semicolon" horiz-adv-x="460" unicode=";"/>
<glyph d="M92 522l606 492l4 -8l-596 -484l373 -483l-8 -8z" glyph-name="less" horiz-adv-x="679" unicode="&lt;"/>
<glyph d="M76 449l4 20h901l-4 -20h-901zM98 547l6 20h900l-5 -20h-901z" glyph-name="equal" horiz-adv-x="1083" unicode="="/>
<glyph d="M10 39l594 483l-371 484l7 8l378 -492l-604 -491z" glyph-name="greater" horiz-adv-x="733" unicode="&gt;"/>
<glyph d="M196 1024q-10 60 8 119t63 115t109.5 99t153.5 69t189 26q228 0 329 -94t60 -273q-14 -61 -45 -113t-85 -102t-105.5 -88t-139.5 -96q-71 -46 -108.5 -71.5t-91.5 -66t-81.5 -69.5t-51.5 -66t-31 -73h-9q-2 47 7 90t23.5 78t42 70t53.5 61.5t68 58.5t74 54t83 55 q131 90 207 168.5t100 175.5q31 140 -40 216.5t-247 76.5q-95 1 -177.5 -35t-138.5 -93.5t-95.5 -128.5t-56 -141.5t-11.5 -130.5h-6q-40 49 -50 109zM231 86q9 40 43 67t74 27t61 -27.5t11 -66.5q-9 -40 -43 -68t-74 -28t-60.5 28t-11.5 68z" glyph-name="question" horiz-adv-x="1040" unicode="?"/>
<glyph d="M61 512q42 181 190 323.5t359.5 218.5t446.5 76q159 0 290.5 -45t217 -124.5t119.5 -196t2 -252.5q-36 -155 -137 -268.5t-234 -157.5q-107 -32 -167.5 12t-33.5 156l137 575q65 8 133 54l-151 -629q-22 -87 1 -128.5t85 -35.5q170 56 254 422q41 178 -7.5 315t-186 215 t-347.5 78q-193 0 -373 -77t-308.5 -217t-168.5 -314q-47 -204 20 -361t228 -245t395 -101l-2 -10q-265 13 -453.5 102t-272.5 249t-36 366zM375 483q41 181 183 297.5t323 116.5q176 0 247.5 -115.5t30.5 -298.5q-42 -177 -168 -295t-301 -118q-179 0 -267.5 116t-47.5 297 zM500 483q-41 -182 27 -289.5t200 -107.5q147 0 265.5 110.5t158.5 286.5q42 181 -26 288.5t-216 107.5q-131 0 -249.5 -108t-159.5 -288z" glyph-name="at" horiz-adv-x="1746" unicode="@"/>
<glyph d="M-80 0l1028 1446l334 -1446h-160l-110 516l-707 -2q-240 -358 -266 -514h-119zM313 526h697l-168 742q-69 -98 -257 -358t-272 -384z" glyph-name="A" horiz-adv-x="1441" unicode="A"/>
<glyph d="M-29 0l332 1434h608q277 0 399 -87q91 -65 91 -182q0 -39 -10 -84q-19 -80 -72.5 -144t-132.5 -105.5t-172.5 -66t-200.5 -32.5q119 -4 212 -25.5t162.5 -62.5t97.5 -109q16 -39 16 -86q0 -35 -9 -75q-42 -186 -210.5 -280.5t-450.5 -94.5h-660zM121 8h481 q219 0 359.5 95t181.5 272q11 48 11 89q0 110 -76 174q-104 88 -335 89h-456zM289 735h422q209 0 353.5 90t184.5 262q12 54 12 99q1 102 -61 158q-88 81 -313 81h-438z" glyph-name="B" horiz-adv-x="1357" unicode="B"/>
<glyph d="M93 426q-7 48 -7 99q0 95 25 202q75 323 318.5 524t557.5 201q128 0 226 -34t151.5 -90.5t75.5 -125.5q13 -40 14 -82q0 -30 -7 -60q-16 -74 -65 -138h-8q4 46 5 96v7q-1 46 -11 93q-12 51 -29 98t-49.5 89t-74 72.5t-100.5 48.5t-130 18q-128 -1 -248 -56.5t-212 -149 t-159 -215t-98 -255.5q-24 -98 -24 -186q0 -39 4 -77q16 -122 69 -211.5t154.5 -141t237.5 -52.5q176 2 340.5 85.5t285.5 236.5h11q-131 -216 -315 -328t-400 -112q-151 1 -267.5 56t-183 153t-87.5 235z" glyph-name="C" horiz-adv-x="1413" unicode="C"/>
<glyph d="M-29 0l332 1434h488q186 0 329 -49.5t229 -142.5q86 -92 116 -226q13 -58 13 -123q0 -84 -22 -178q-50 -217 -191 -379.5t-349 -249t-457 -86.5h-488zM121 8h340q318 0 539 188.5t298 518.5q27 119 27 220q1 180 -85 301q-134 189 -452 189h-339z" glyph-name="D" horiz-adv-x="1488" unicode="D"/>
<glyph d="M-29 0l332 1434l1075 8l-43 -189q-195 172 -886 172l-156 -671q544 12 848 61l-31 -127q-273 48 -819 60l-170 -740q312 6 556 52t437 147l-47 -207h-1096z" glyph-name="E" horiz-adv-x="1241" unicode="E"/>
<glyph d="M-29 0l332 1434l1075 8l-43 -189q-195 172 -886 172l-156 -671q544 12 848 61l-31 -127q-273 48 -819 60l-172 -748h-148z" glyph-name="F" horiz-adv-x="1204" unicode="F"/>
<glyph d="M110 341q-24 84 -24 180q0 97 25 206q75 323 318.5 524t557.5 201q127 0 225 -32t152.5 -85t78.5 -119q15 -41 15 -85q0 -25 -4 -51q-14 -70 -61 -134h-9q4 38 6 82v9q0 40 -12 83q-12 48 -29.5 94t-51.5 88t-76 73.5t-102.5 50t-131.5 18.5q-129 -1 -249 -55.5 t-212 -147t-159 -213.5t-99 -256q-23 -109 -23 -207v-8q1 -101 34.5 -185.5t91 -145.5t146 -95t200.5 -35q137 4 255.5 54.5t205.5 135t148 192.5t93 233q-170 -7 -354.5 -33.5t-298.5 -71.5l27 121l637 -6h2q-38 -160 -111 -295t-173.5 -233.5t-231 -153.5t-277.5 -55 q-204 0 -342 94t-187 263z" glyph-name="G" horiz-adv-x="1445" unicode="G"/>
<glyph d="M-29 0l332 1434h148l-158 -678h964l158 678h146l-332 -1434h-146l172 745h-964l-172 -745h-148z" glyph-name="H" horiz-adv-x="1437" unicode="H"/>
<glyph d="M-29 0l332 1434h148l-332 -1434h-148z" glyph-name="I" horiz-adv-x="327" unicode="I"/>
<glyph d="M-2 391h12q20 -128 130.5 -208.5t291.5 -80.5q187 0 313.5 107t167.5 285l217 940h146l-219 -955q-54 -231 -215.5 -364t-390.5 -133q-215 0 -334 108t-119 301z" glyph-name="J" horiz-adv-x="1155" unicode="J"/>
<glyph d="M-29 0l332 1434h148l-154 -668l989 668h230l-1217 -676q609 -336 909 -758h-198q-259 443 -717 748l-174 -748h-148z" glyph-name="K" horiz-adv-x="1345" unicode="K"/>
<glyph d="M-29 0l332 1434h148l-330 -1426q310 6 550.5 52t434.5 147l-47 -207h-1088z" glyph-name="L" horiz-adv-x="1210" unicode="L"/>
<glyph d="M-29 0l332 1434h170l381 -951l-16 -22l786 973h154l-332 -1434h-146l330 1423l-882 -1099l-433 1099q-128 -555 -177 -855q-48 -294 -48 -557v-11h-119z" glyph-name="M" horiz-adv-x="1654" unicode="M"/>
<glyph d="M-29 0l332 1434h186l723 -1213l281 1213h14l-331 -1434h-15l-846 1423q-128 -555 -177 -855q-48 -294 -48 -557v-11h-119z" glyph-name="N" horiz-adv-x="1384" unicode="N"/>
<glyph d="M96 415q-10 54 -10 113q0 88 23 187q37 164 125.5 303t208 233.5t265 147.5t296.5 53q152 0 273 -52.5t195 -149.5q74 -96 100 -232q10 -54 11 -112q0 -90 -24 -191q-50 -215 -185 -383.5t-321 -259t-389 -90.5q-151 0 -272.5 52.5t-195.5 149t-100 231.5zM239 424 q12 -133 62.5 -229.5t144.5 -150.5t220 -54q167 0 318 93t259 257.5t158 374.5q29 122 29 228q0 33 -3 65q-12 134 -62.5 231t-144 151t-219.5 54q-253 0 -457 -204t-278 -525q-30 -121 -29 -227q-1 -33 2 -64z" glyph-name="O" horiz-adv-x="1572" unicode="O"/>
<glyph d="M-29 0l332 1434h649q242 0 370 -104q95 -77 95 -203q0 -43 -12 -93q-43 -191 -218.5 -295t-418.5 -104h-502l-147 -635h-148zM268 643h445q210 0 355 106t187 285q13 56 13 106q0 107 -60 179q-87 106 -284 106h-475z" glyph-name="P" horiz-adv-x="1325" unicode="P"/>
<glyph d="M96 415q-10 54 -10 113q0 88 23 187q37 164 125.5 303t208 233.5t265 147.5t296.5 53q152 0 273 -52.5t195.5 -149t99.5 -232.5q11 -54 11 -112q0 -90 -24 -191q-46 -196 -163.5 -354.5t-279 -253.5t-344.5 -119q312 -12 430 -124q73 -67 73 -166q0 -64 -30 -140h-8 q-34 181 -175 302.5t-360 121.5h-38q-151 0 -272.5 52.5t-195.5 149t-100 231.5zM239 424q12 -133 62.5 -229.5t144.5 -150.5t220 -54q167 0 318 93t259 257.5t158 374.5q29 122 29 228q0 33 -3 65q-12 134 -62.5 231t-144 151t-219.5 54q-253 0 -457 -204t-278 -525 q-30 -121 -30 -227q0 -33 3 -64z" glyph-name="Q" horiz-adv-x="1587" unicode="Q"/>
<glyph d="M-29 0l332 1434h647q263 0 383 -90q91 -69 91 -183q0 -36 -9 -76q-23 -101 -101.5 -175t-191.5 -114.5t-256 -52.5q113 -6 188 -32.5t113.5 -75.5t50.5 -112q6 -34 5 -74q0 -35 -4 -76q-13 -125 -15 -231v-24q0 -86 10 -118h-161q-6 27 -6 87q0 98 16 286q7 54 7 102 q0 24 -2 46q-6 67 -28.5 115t-82.5 74.5t-158 26.5h-510l-170 -737h-148zM291 745h459q207 0 343 90t173 250q11 49 11 91q0 98 -59 160q-85 90 -280 89h-489z" glyph-name="R" horiz-adv-x="1382" unicode="R"/>
<glyph d="M34 320q8 74 60 153h8v-7q0 -56 14 -115q16 -63 53.5 -128.5t92.5 -117t141 -83.5q83 -32 183 -32h6h6q220 0 363 79q145 80 176 216q9 36 9 67q0 34 -6 62q-6 26 -23 48.5t-33.5 39t-47.5 33t-55.5 27.5t-66.5 24.5t-71.5 22t-78.5 21.5q-41 11 -62 17q-54 16 -90 27.5 t-82.5 27.5t-77 30t-67 32t-59 36t-46 41t-35.5 48t-20.5 54t-7.5 63t10 73q23 97 86.5 171t153.5 117t192.5 64t214.5 21q157 0 271.5 -43t167.5 -112q54 -70 54 -160q0 -86 -56 -172h-8q2 20 2 42q0 39 -7 79q-11 63 -42.5 127.5t-80 115.5t-127.5 83q-77 32 -170 32h-6 h-5q-209 0 -351 -78q-142 -79 -174 -213q-6 -26 -6 -50q0 -30 10 -57q18 -48 44.5 -77.5t97.5 -61t114 -45.5t143 -43q6 -2 9.5 -3t8.5 -2.5t9 -2.5q213 -62 272 -85q153 -60 198 -151q23 -47 24 -108q0 -44 -13 -96q-22 -99 -88 -176t-158.5 -122t-198 -68t-216.5 -23 q-136 0 -245.5 25t-179.5 71q-69 46 -105 106q-29 49 -29 107q-1 15 1 29z" glyph-name="S" horiz-adv-x="1341" unicode="S"/>
<glyph d="M205 1253l43 181h764l-332 -1434h-145l329 1423q-353 -5 -659 -170zM1010 1423l2 11h618l-41 -181q-123 80 -260 123.5t-319 46.5z" glyph-name="T" horiz-adv-x="1452" unicode="T"/>
<glyph d="M92 530l207 904h147l-215 -926q-21 -88 -23 -163v-17q0 -66 18 -124q20 -66 62.5 -112.5t117 -73.5t176.5 -28q278 0 441 136t218 382l215 926h12l-211 -920q-121 -532 -677 -532q-320 0 -435 140q-75 91 -75 236q0 78 22 172z" glyph-name="U" horiz-adv-x="1343" unicode="U"/>
<glyph d="M254 1434h160l256 -1258l76 114q126 189 186 280t150 234.5t137 232t95 195.5t77 202h133l-963 -1446z" glyph-name="V" horiz-adv-x="1351" unicode="V"/>
<glyph d="M240 1434h157l271 -1250l837 1250h13l260 -1258l843 1258h13l-969 -1452l-262 1278l-858 -1278z" glyph-name="W" horiz-adv-x="2447" unicode="W"/>
<glyph d="M-92 -12l756 706l-392 740h170l336 -633l676 633h16l-686 -643l422 -797h-170l-366 690l-744 -696h-18z" glyph-name="X" horiz-adv-x="1353" unicode="X"/>
<glyph d="M240 1434h174l426 -770l774 770h14l-786 -785l-150 -649h-145l143 623z" glyph-name="Y" horiz-adv-x="1443" unicode="Y"/>
<glyph d="M-29 0l1295 1425q-354 -3 -575.5 -38t-414.5 -125l41 176l1117 -4l-1295 -1426q254 4 419 19.5t327 59t311 122.5l-49 -209h-1176z" glyph-name="Z" horiz-adv-x="1341" unicode="Z"/>
<glyph d="M-82 -236l399 1731h394l-2 -8h-256l-398 -1723h-137zM55 -236l2 9h256l-2 -9h-256z" glyph-name="bracketleft" horiz-adv-x="483" unicode="["/>
<glyph d="M244 1454h20l334 -1474h-20z" glyph-name="backslash" horiz-adv-x="747" unicode="\"/>
<glyph d="M-172 -236l2 9h256l397 1722h138l-400 -1731h-393zM225 1487l2 8h256l-2 -8h-256z" glyph-name="bracketright" horiz-adv-x="425" unicode="]"/>
<glyph d="M139 721l674 711v2l12 10l9 -10l-3 -2l343 -715l-13 -10l-342 712l-674 -708z" glyph-name="asciicircum" horiz-adv-x="1218" unicode="^"/>
<glyph d="M-10 -106l22 100h924l-23 -100h-923z" glyph-name="underscore" horiz-adv-x="1187" unicode="_"/>
<glyph d="M268 1288h146q30 -147 90 -264h-10q-111 96 -226 264z" glyph-name="grave" horiz-adv-x="477" unicode="`"/>
<glyph d="M41 284q-4 30 -4 62q0 65 18 137q59 221 229.5 360t393.5 140q128 0 201 -60.5t96 -164.5q2 9 33 141q78 11 151 64q-10 -43 -29.5 -130.5t-29.5 -130.5l-53 -227l-60 -258q-13 -52 -13 -92q0 -45 16 -73q27 -49 109 -49q9 0 19 1l-2 -4q-67 -16 -118 -16q-74 0 -114 33 q-48 38 -48 119q0 36 10 81l22 98q-63 -147 -187.5 -240t-293.5 -93q-98 1 -173.5 39t-117.5 104.5t-55 158.5zM193 282q18 -100 88 -160t180 -61q87 0 163 30.5t129 81.5t88 112.5t50 128.5l16 69l13 54q14 71 14 134q0 59 -14 113q-14 56 -42.5 98t-78.5 66.5t-117 24.5 q-163 -1 -296.5 -129.5t-184.5 -331.5q-15 -77 -15 -143q0 -46 7 -87z" glyph-name="a" horiz-adv-x="1239" unicode="a"/>
<glyph d="M-29 0l322 1386q83 12 158 64l-197 -852q70 176 208 280.5t320 104.5q220 0 326 -141q72 -96 73 -228q0 -62 -16 -133q-51 -217 -225 -358t-389 -141q-181 0 -271 108q-80 97 -80 244q0 18 1 37l-86 -371h-144zM217 446q-10 -58 -10 -110q-1 -124 59 -211 q84 -123 254 -123q102 0 201 55.5t179 166.5t114 257q19 83 19 153q1 59 -13 107q-30 107 -104.5 164.5t-176.5 57.5q-170 0 -308.5 -119.5t-194.5 -321.5z" glyph-name="b" unicode="b"/>
<glyph d="M55 483q52 222 232.5 360.5t433.5 139.5q106 0 185.5 -22.5t121.5 -58.5t60 -82q11 -28 11 -58q-1 -17 -5 -35q-10 -47 -43 -88h-7q2 16 2 33q0 21 -3 44q-5 41 -25.5 88t-55 84t-97 62t-144.5 25q-97 -1 -184.5 -37t-153 -97.5t-111.5 -141.5t-67 -171q-15 -65 -15 -121 q0 -113 60 -193q90 -120 297 -122q151 0 280 60.5t207 162.5h10q-90 -151 -243.5 -242t-335.5 -91q-235 2 -349 140q-77 94 -78 228q0 62 17 133z" glyph-name="c" horiz-adv-x="1138" unicode="c"/>
<glyph d="M59 481q51 220 222 361t391 141q182 -1 272 -103q83 -94 83 -247q0 -14 -1 -27l180 780q83 12 158 64l-336 -1450h-143l84 362q-70 -168 -210.5 -274t-318.5 -106q-216 0 -324 142q-73 96 -73 226q0 62 16 131zM205 222q29 -106 102.5 -163t175.5 -57q164 0 301 115 t199 303l29 127q6 45 6 86q0 132 -64 218q-84 112 -249 112q-158 0 -300.5 -131.5t-193.5 -350.5q-19 -83 -19 -153q0 -58 13 -106z" glyph-name="d" horiz-adv-x="1236" unicode="d"/>
<glyph d="M55 483q33 142 123.5 254.5t229.5 178.5t303 67q148 0 244 -59q96 -58 129 -154q19 -54 19 -117q0 -47 -11 -98v-4l-881 -2l-6 -21q-15 -66 -15 -123q0 -113 61 -193q92 -118 296 -120q148 0 278.5 60.5t204.5 162.5h10q-90 -146 -243.5 -239.5t-335.5 -93.5 q-154 1 -259 66q-104 64 -142 178q-20 60 -21 129q0 61 16 128zM213 559h760q12 61 12 115q-1 107 -47 184q-70 117 -236 117q-175 -3 -306 -118t-183 -298z" glyph-name="e" horiz-adv-x="1140" unicode="e"/>
<glyph d="M25 -410l313 1360h-229v6h231l27 115q20 87 55.5 153.5t93.5 119.5t148 80.5t210 27.5q100 0 171 -23t104.5 -60.5t42.5 -82.5q4 -19 4 -37q0 -27 -8 -55q-15 -46 -47 -86h-6q6 27 2.5 63t-8.5 73.5t-25 73.5t-47.5 64.5t-75.5 46t-109 17.5q-75 0 -134.5 -23.5 t-94.5 -56t-63 -85t-40.5 -91.5t-25.5 -94l-33 -140h8l586 15l-22 -97l-566 76h-6l-315 -1360h-141z" glyph-name="f" horiz-adv-x="1075" unicode="f"/>
<glyph d="M-14 -168q10 47 42 83.5t81 60.5t99.5 39t113.5 26l2 -4q-79 -22 -133.5 -75.5t-71.5 -127.5q-5 -22 -5 -42q0 -78 77 -130q97 -65 258 -65q181 0 301.5 60t144.5 167q6 25 6 47q0 76 -67 119q-85 55 -271 71q-314 30 -400 49q-121 26 -142 80q-5 14 -5 31q0 16 4 33 q13 62 81 104.5t175 57.5q-91 68 -91 173q0 31 8 66q24 103 108.5 178.5t202 112.5t252.5 37h4l2 2q110 1 217.5 54.5t180.5 128t112 155.5h6v-14q0 -134 -123 -221q-130 -93 -340 -107q183 -13 283 -99q77 -64 77 -162q0 -31 -8 -65q-24 -103 -108.5 -177.5t-201.5 -110 t-253 -35.5q-208 0 -321 82q-78 -14 -128.5 -44t-60.5 -73q-5 -25 11.5 -40.5t83.5 -29t154 -23t265 -24.5q251 -24 352 -100q77 -59 77 -151q0 -29 -7 -60q-17 -74 -75 -129.5t-142 -87t-176 -47t-191 -15.5q-90 0 -172 12t-155.5 38.5t-110.5 75.5q-26 36 -26 79 q0 18 4 37zM327 554q0 -43 17 -82q19 -40 50.5 -70t85.5 -47t126 -17q90 0 163.5 26t123.5 71.5t82 100.5t47 119q9 50 10 97v4q0 44 -18 83q-18 41 -49 72t-85 48.5t-126 17.5q-90 0 -164 -27t-124 -73t-82 -102t-46 -120q-11 -55 -11 -101z" glyph-name="g" horiz-adv-x="1239" unicode="g"/>
<glyph d="M-29 0l324 1393q87 13 156 63l-197 -856q69 178 212 280.5t337 102.5t270 -93q49 -60 50 -158q0 -53 -15 -116l-143 -616h-144l150 637q15 65 15 117q0 80 -34 128q-56 80 -207 79q-173 0 -315 -118.5t-197 -330.5l-118 -512h-144z" glyph-name="h" horiz-adv-x="1169" unicode="h"/>
<glyph d="M-2 0l209 903q83 12 155 64l-223 -967h-141zM264 1257q9 37 42.5 63t74.5 26t64 -26q17 -19 16 -43q0 -10 -2 -20q-9 -37 -43.5 -63.5t-75.5 -26.5q-41 1 -63 27q-16 19 -16 42q0 10 3 21z" glyph-name="i" horiz-adv-x="376" unicode="i"/>
<glyph d="M-586 -150h11q15 -94 77 -145t166 -51q121 0 198.5 71t106.5 195l228 983q73 11 155 64l-245 -1069q-36 -154 -140 -246t-274 -92q-142 0 -210 78t-73 212zM252 1257q9 37 43 63t76 26q41 0 63 -26q15 -18 15 -42q0 -10 -3 -21q-8 -37 -41.5 -63.5t-74.5 -26.5 q-42 0 -64 26q-16 19 -16 45q0 9 2 19z" glyph-name="j" horiz-adv-x="344" unicode="j"/>
<glyph d="M-29 0l320 1378q77 8 158 64l-207 -889l680 403h219l-893 -411q452 -271 717 -545h-197q-218 302 -528 535l-125 -535h-144z" glyph-name="k" horiz-adv-x="1097" unicode="k"/>
<glyph d="M-29 0l324 1393q87 13 156 63l-336 -1456h-144z" glyph-name="l" horiz-adv-x="323" unicode="l"/>
<glyph d="M-29 0l209 903q83 12 158 64l-82 -355q67 175 191.5 273t302.5 98q196 0 266 -88q44 -55 43 -147q0 -54 -15 -121l-6 -23q66 179 191.5 279t308.5 100q196 0 266 -88q43 -55 42 -145q0 -55 -15 -123l-145 -627h-150l158 674q12 56 12 101q0 71 -30 113q-50 70 -197 70 q-168 0 -291.5 -126t-175.5 -351l-113 -481h-149l155 674q13 57 13 103q0 69 -30 111q-50 70 -196 70q-158 0 -279.5 -116t-176.5 -322l-121 -520h-144z" glyph-name="m" horiz-adv-x="1892" unicode="m"/>
<glyph d="M-29 0l209 903q83 12 158 64l-84 -367q69 178 212 280.5t337 102.5t270 -93q49 -60 50 -158q0 -53 -15 -116l-143 -616h-144l150 637q15 65 15 117q0 80 -34 128q-56 80 -207 79q-172 0 -313.5 -117.5t-198.5 -327.5l-118 -516h-144z" glyph-name="n" horiz-adv-x="1169" unicode="n"/>
<glyph d="M50 277q-10 41 -10 87q0 56 15 117q33 147 132.5 262.5t240 177.5t297.5 62q239 1 365 -139q90 -100 89 -243q0 -57 -14 -120q-34 -147 -133.5 -261.5t-240 -176t-297.5 -61.5q-117 0 -211 36t-152.5 101.5t-80.5 157.5zM211 481q-23 -95 -23 -173q0 -112 47 -190 q79 -130 261 -130t320.5 130t193.5 363q21 93 21 170q1 115 -47 195q-80 132 -261 131.5t-320 -132t-192 -364.5z" glyph-name="o" unicode="o"/>
<glyph d="M-123 -410l303 1313q83 12 158 64l-86 -371q70 176 209 281.5t321 105.5q220 0 326 -141q73 -96 73 -228q0 -63 -16 -133q-51 -217 -225 -358t-389 -141q-181 0 -271 108q-80 97 -80 244q0 18 1 37l-181 -781h-143zM219 451q-11 -61 -11 -115q0 -122 58 -209 q84 -125 254 -125q102 0 201 55.5t179 166.5t114 257q19 83 19 153q0 58 -13 107q-30 107 -104.5 164.5t-176.5 57.5q-171 0 -310.5 -121t-195.5 -326z" glyph-name="p" unicode="p"/>
<glyph d="M59 481q51 220 222 361t391 141q179 0 270 -102q84 -96 84 -252v-21l82 359q52 -52 127 -64l-303 -1313h-141l178 770q-72 -168 -211.5 -273t-317.5 -105q-216 0 -324 142q-73 96 -73 226q0 62 16 131zM205 222q29 -106 102.5 -163t175.5 -57q162 0 299 115t199 301 l31 133q6 45 6 85q0 131 -64 216q-85 111 -249 111q-158 0 -300.5 -131.5t-193.5 -350.5q-19 -83 -19 -153q0 -57 13 -106z" glyph-name="q" horiz-adv-x="1239" unicode="q"/>
<glyph d="M-29 0l209 903q83 12 158 64l-107 -457q26 75 59.5 141t79 128t97 106.5t117.5 71t137 26.5q99 0 159 -36t74 -92q7 -28 6 -57q0 -32 -7 -64q-15 -64 -58 -124h-6q9 42 11 86v16q0 37 -7 77q-9 49 -30 86.5t-64.5 62.5t-104.5 25q-71 0 -137 -31.5t-117.5 -83.5t-96 -122 t-75.5 -142.5t-53 -149.5l-100 -434h-144z" glyph-name="r" horiz-adv-x="944" unicode="r"/>
<glyph d="M-9 225q8 50 46 101h4q-2 -14 -2 -29q0 -24 5 -51q8 -43 33.5 -89.5t66 -83.5t108 -61t151.5 -24q193 0 303 50.5t132 141.5q3 13 3 25q0 21 -9 40q-14 29 -44 50t-73.5 38.5t-92 31.5t-101.5 28q-17 4 -25 6q-44 11 -79.5 21.5t-71.5 23.5t-63 26t-53.5 29t-43.5 33 t-32 38t-20 44t-7 51t7 58q28 124 165.5 192t324.5 68q104 0 183.5 -21.5t122.5 -57t61 -79.5q12 -29 13 -58q0 -17 -4 -33q-10 -46 -43 -87h-6q2 24 3.5 52.5t-8 60.5t-23 62.5t-41 58.5t-61.5 49.5t-84.5 34t-110.5 12.5q-180 0 -285 -54.5t-125 -140.5q-3 -13 -3 -25 q0 -21 8 -39q14 -29 43 -50t76.5 -40t99.5 -34t119 -33q6 -1 9 -2q45 -11 79.5 -21t71 -22t62.5 -24t51.5 -26.5t42 -30.5t30 -36t19 -42.5t5.5 -49t-8 -57.5q-30 -134 -168.5 -201t-350.5 -67q-105 0 -187.5 19.5t-132.5 53t-74 77.5q-18 33 -18 68q0 13 2 25z" glyph-name="s" horiz-adv-x="1048" unicode="s"/>
<glyph d="M98 911l2 7q92 12 174 57.5t135.5 105t87.5 114.5t46 99h6q15 -27 15 -62q0 -18 -4 -37q-12 -59 -54 -110q-68 -105 -301 -155l811 71l-23 -96l-475 45l-151 -657q-12 -49 -11 -87q0 -53 22 -81q40 -49 150 -49q201 0 342 174h11q-41 -59 -80.5 -103t-91 -83.5 t-115.5 -60.5t-137 -21h-2q-162 0 -216 74q-33 45 -33 117q0 45 13 101l154 660l67 10z" glyph-name="t" horiz-adv-x="999" unicode="t"/>
<glyph d="M43 324l133 575q82 12 156 64l-156 -678q-12 -54 -12 -97q0 -75 38 -117q60 -65 206 -65q172 0 315 127.5t195 351.5l96 414q83 12 155 64l-221 -963h-143l86 367q-72 -178 -212.5 -281.5t-324.5 -103.5q-200 0 -276 82q-50 54 -49 148q0 50 14 112z" glyph-name="u" horiz-adv-x="1157" unicode="u"/>
<glyph d="M133 956h156l239 -817l-8 -14l610 831h13l-719 -979z" glyph-name="v" horiz-adv-x="1071" unicode="v"/>
<glyph d="M133 956h156l215 -806l555 806h12l191 -811l579 811h14l-698 -976l-194 817l-560 -817z" glyph-name="w" horiz-adv-x="1783" unicode="w"/>
<glyph d="M-92 0l557 451l-330 505h164l272 -417l516 417h19l-528 -428l346 -528h-166l-287 440l-545 -440h-18z" glyph-name="x" horiz-adv-x="1069" unicode="x"/>
<glyph d="M14 -410l392 402l-281 964h154l233 -815l592 815h14l-708 -979l-258 -387h-138z" glyph-name="y" horiz-adv-x="1042" unicode="y"/>
<glyph d="M-84 0l946 950l-715 -20l9 35l868 -9l-936 -950l743 29l-8 -35h-907z" glyph-name="z" horiz-adv-x="972" unicode="z"/>
<glyph d="M72 16l137 473q27 116 -68 138h-53l2 8h53q109 23 131 137l80 473q32 141 95.5 195.5t173.5 54.5h202l-2 -8h-110q-96 -1 -142 -47t-71 -158l-92 -510q-11 -51 -50.5 -96t-95.5 -45q38 0 60 -24t23.5 -55.5t-3.5 -62.5l-143 -509q-28 -109 -3 -156.5t121 -48.5h111l-2 -8 h-203q-109 0 -146 54t-5 195z" glyph-name="braceleft" horiz-adv-x="598" unicode="{"/>
<glyph d="M-74 -205l377 1639h27l-377 -1639h-27z" glyph-name="bar" horiz-adv-x="210" unicode="|"/>
<glyph d="M-119 -233l2 8h111q96 1 142 47t71 158l88 509q13 52 51 97t94 45q-38 0 -59.5 24t-23 55t2.5 62l148 510q27 109 2 156.5t-121 48.5h-110l2 8h202q108 0 145 -54.5t5 -195.5l-137 -473q-5 -32 -5 -59t18 -48t54 -30h53l-2 -8h-53q-104 -22 -131 -138l-80 -473 q-32 -140 -95 -194.5t-171 -54.5h-203z" glyph-name="braceright" horiz-adv-x="649" unicode="}"/>
<glyph d="M244 1180h12q9 -86 98 -86q36 0 79 25t88.5 50t88.5 25q119 0 107 -158h-12q-8 86 -97 86q-37 0 -80 -24.5t-88.5 -49t-89.5 -24.5q-58 0 -85 40t-21 116z" glyph-name="asciitilde" horiz-adv-x="686" unicode="~"/>
<glyph glyph-name="uni00A0" horiz-adv-x="573" unicode=" "/>
<glyph d="M-111 -410q198 541 330 1084h8q-119 -560 -168 -1084h-170zM180 901q11 39 44.5 66.5t72.5 27.5q40 0 61.5 -28t12.5 -66q-9 -41 -43 -68.5t-74 -27.5t-61.5 27.5t-12.5 68.5z" glyph-name="exclamdown" horiz-adv-x="372" unicode="¡"/>
<glyph d="M55 483q50 213 219 349.5t408 148.5l57 258h11l-58 -256h29q106 0 185.5 -22.5t121.5 -59t59.5 -82t7 -92.5t-43.5 -88h-7q4 36 -1 77t-25.5 88t-55 84t-97 62t-144.5 25q-21 0 -31 -2h-10q-119 -10 -219.5 -73.5t-164.5 -160t-91 -211.5q-45 -194 45 -314.5t297 -121.5 q151 0 280 60.5t207 162.5h10q-90 -151 -243.5 -242t-335.5 -91h-2l-51 -218h-11l52 218q-231 6 -340.5 144t-57.5 357z" glyph-name="cent" horiz-adv-x="1138" unicode="¢"/>
<glyph d="M10 0q275 133 326 365q11 47 13.5 91.5t-5 94t-14 78.5t-21.5 86h-219l2 10h213q-12 47 -19 80.5t-12.5 78.5t-3 90t12.5 91q13 55 44.5 108.5t86.5 104.5t127.5 89t173.5 61.5t217 23.5v2q116 0 207 -24t146 -64t86.5 -92.5t34 -110t-16.5 -116.5t-60 -111h-8 q8 42 9.5 87.5t-6 96t-24 96.5t-48 88.5t-74.5 73.5t-106.5 49.5t-141.5 18.5v-2q-200 0 -330 -96.5t-164 -241.5q-12 -51 -14 -100t6.5 -102t16.5 -86t24 -93h707l-2 -10h-703q12 -48 19 -82t12.5 -79t2.5 -90t-13 -91q-54 -237 -355 -365q468 6 706 49t363 146l-47 -203 h-1149z" glyph-name="sterling" horiz-adv-x="1333" unicode="£"/>
<glyph d="M27 238l266 215q-46 55 -27 141q18 81 92 139l-165 219l14 11l166 -218q85 58 186 58q71 0 125 -33l234 191l8 -11l-232 -186q40 -29 56 -74t6 -96q-12 -53 -48 -97.5t-90 -74.5l142 -186l-15 -11l-143 189q-74 -31 -139 -31q-106 0 -162 59l-266 -215zM356 504l109 90 l-68 90q-30 -55 -37 -90q-11 -41 -4 -90zM358 489q9 -44 37 -70t70 -26q59 0 113 51l-105 140zM408 698l71 -94l168 135q-33 54 -90 54q-40 0 -79.5 -26t-69.5 -69zM487 594l103 -137q53 56 72 137q16 79 -11 135z" glyph-name="currency" horiz-adv-x="917" unicode="¤"/>
<glyph d="M98 426l2 10h547l43 187l-8 14h-537l2 10h531l-438 787h174l426 -770l774 770h14l-786 -785v-2h565l-2 -10h-565l-47 -201h567l-2 -10h-567l-99 -426h-145l98 426h-547z" glyph-name="yen" horiz-adv-x="1443" unicode="¥"/>
<glyph d="M-76 -205l162 697h27l-162 -697h-27zM141 737l162 697h27l-162 -697h-27z" glyph-name="brokenbar" horiz-adv-x="208" unicode="¦"/>
<glyph d="M225 1096q6 29 33 49t61 20t53 -20t13 -49q-8 -31 -35 -51.5t-61 -20.5t-52 20.5t-12 51.5zM483 1096q8 29 35.5 49t61.5 20t51.5 -20t11.5 -49q-6 -30 -34 -51t-62 -21q-33 0 -51.5 20.5t-12.5 51.5z" glyph-name="dieresis" horiz-adv-x="598" unicode="¨"/>
<glyph d="M51 469q44 190 189 341t358 235.5t455 84.5q245 0 424 -84.5t257 -235.5t35 -341q-44 -190 -193 -342.5t-367.5 -237t-463.5 -84.5q-181 0 -326.5 49.5t-237 137t-127.5 211t-3 266.5zM195 469q-43 -189 11.5 -337.5t195.5 -232t346 -83.5q320 0 565.5 183.5t310.5 469.5 q44 188 -13 336t-203 231.5t-357 83.5q-205 0 -385.5 -83.5t-303.5 -231.5t-167 -336zM395 483q52 221 233 360t433 140q106 0 186 -22.5t122 -59t60 -82t7.5 -92.5t-43.5 -88h-7q4 36 -1 77t-26 88t-56 84t-97.5 62t-144.5 25q-97 -1 -184.5 -37t-152.5 -97.5t-111 -141.5 t-68 -171q-29 -128 0 -225.5t116.5 -153.5t225.5 -57q151 0 280 60.5t209 162.5h8q-90 -151 -243.5 -242t-335.5 -91q-236 1 -348.5 139.5t-61.5 361.5z" glyph-name="copyright" horiz-adv-x="1841" unicode="©"/>
<glyph d="M102 502l648 450h10l-529 -450l320 -451h-10zM442 512l648 451h10l-529 -451l320 -451h-10z" glyph-name="guillemotleft" horiz-adv-x="1048" unicode="«"/>
<glyph d="M121 526l24 101h574l-25 -101h-573z" glyph-name="uni00AD" horiz-adv-x="808" unicode="­"/>
<glyph d="M51 469q44 190 189 341t358 235.5t455 84.5q245 0 424 -84.5t257 -235.5t35 -341q-44 -190 -193 -342.5t-367.5 -237t-463.5 -84.5q-181 0 -326.5 49.5t-237 137t-127.5 211t-3 266.5zM195 469q-43 -189 11.5 -337.5t195.5 -232t346 -83.5q320 0 565.5 183.5t310.5 469.5 q44 188 -13 336t-203 231.5t-357 83.5q-205 0 -385.5 -83.5t-303.5 -231.5t-167 -336zM446 23l211 890h410q164 0 239 -56.5t52 -160.5q-22 -93 -114.5 -146.5t-229.5 -66.5q136 -7 183 -62.5t36 -166.5q-20 -172 -2 -231h-113q-11 45 4 231q6 68 5 118.5t-37.5 79.5 t-116.5 29h-318l-106 -458h-103zM655 485h287q127 0 206 55t103 156t-24 156t-168 55h-305z" glyph-name="registered" horiz-adv-x="1841" unicode="®"/>
<glyph d="M213 1036l12 56h574l-13 -56h-573z" glyph-name="macron" horiz-adv-x="755" unicode="¯"/>
<glyph d="M231 1245q19 86 102.5 147.5t190.5 61.5q105 0 160.5 -61.5t36.5 -147.5q-22 -89 -104.5 -150t-188.5 -61q-108 0 -163.5 61t-33.5 150zM326 1245q-19 -81 10 -141t94 -60q64 0 121 59.5t76 141.5q18 79 -11.5 139t-93.5 60t-121 -60t-75 -139z" glyph-name="degree" horiz-adv-x="612" unicode="°"/>
<glyph d="M209 1024q114 114 211 264h143q-176 -160 -342 -264h-12z" glyph-name="acute" horiz-adv-x="477" unicode="´"/>
<glyph d="M162 1034q30 128 123 220t224.5 136t289.5 44h647l-330 -1434h-145l145 635h-502q-158 0 -269.5 44t-162.5 135.5t-20 219.5zM311 1034q-40 -179 56.5 -285t306.5 -106h444l180 782h-475q-197 0 -333.5 -106t-178.5 -285zM1352 0l336 1456q47 -50 127 -63l-320 -1393 h-143z" glyph-name="paragraph" horiz-adv-x="1703" unicode="¶"/>
<glyph d="M84 479q9 40 43 67t74 27t60.5 -27t10.5 -67q-9 -40 -42.5 -68t-73.5 -28t-60.5 28t-11.5 68z" glyph-name="periodcentered" horiz-adv-x="372" unicode="·"/>
<glyph d="M-123 -410l2 9q279 0 309 127q12 54 -41 81t-174 27l131 174l11 -6l-99 -143q136 0 201.5 -30.5t52.5 -90.5q-35 -148 -393 -148z" glyph-name="cedilla" horiz-adv-x="538" unicode="¸"/>
<glyph d="M0 51l528 451l-321 450h10l438 -450l-645 -451h-10zM334 41l528 451l-319 450h10l438 -450l-647 -451h-10z" glyph-name="guillemotright" horiz-adv-x="1048" unicode="»"/>
<glyph d="M-20 -100q14 61 43.5 111t89.5 102t96 77.5t129 86.5q26 17 39 26q54 35 79 51.5t66.5 45.5t61 46.5t47 44.5t41 49.5t26.5 51t19 59.5h10q0 -62 -9 -112t-31 -92t-45 -73.5t-66.5 -66.5t-78.5 -59.5t-96 -63.5q-49 -33 -64 -43.5t-58 -41.5t-60 -47t-48 -46.5t-46 -54.5 t-31 -56t-24 -65q-26 -109 43.5 -170t244.5 -61q91 -1 172.5 28.5t138 77.5t95.5 106t53.5 117.5t3.5 110.5h8q53 -47 60.5 -108.5t-29.5 -120t-102.5 -108.5t-167.5 -81t-217 -31q-231 0 -329.5 78.5t-63.5 231.5zM645 915q11 40 44.5 68.5t72.5 28.5q40 0 61.5 -28.5 t12.5 -68.5t-43 -68t-74 -28t-61.5 28t-12.5 68z" glyph-name="questiondown" horiz-adv-x="1073" unicode="¿"/>
<glyph d="M-80 0l1028 1446l334 -1446h-160l-110 516l-707 -2q-240 -358 -266 -514h-119zM313 526h697l-168 742q-69 -98 -257 -358t-272 -384zM776 1810h146q89 -142 208 -264h-10q-150 93 -344 264z" glyph-name="Agrave" horiz-adv-x="1441" unicode="À"/>
<glyph d="M-80 0l1028 1446l334 -1446h-160l-110 516l-707 -2q-240 -358 -266 -514h-119zM313 526h697l-168 742q-69 -98 -257 -358t-272 -384zM844 1546q114 114 211 264h143q-176 -160 -342 -264h-12z" glyph-name="Aacute" horiz-adv-x="1441" unicode="Á"/>
<glyph d="M-80 0l1028 1446l334 -1446h-160l-110 516l-707 -2q-240 -358 -266 -514h-119zM313 526h697l-168 742q-69 -98 -257 -358t-272 -384zM680 1546l338 264l221 -264h-12l-230 176l-305 -176h-12z" glyph-name="Acircumflex" horiz-adv-x="1441" unicode="Â"/>
<glyph d="M-80 0l1028 1446l334 -1446h-160l-110 516l-707 -2q-240 -358 -266 -514h-119zM313 526h697l-168 742q-69 -98 -257 -358t-272 -384zM741 1702h13q9 -86 98 -86q36 0 79 25t88.5 50t88.5 25q118 0 106 -157h-12q-8 86 -96 86q-37 0 -80 -24.5t-88.5 -49.5t-89.5 -25 q-58 0 -85.5 40.5t-21.5 115.5z" glyph-name="Atilde" horiz-adv-x="1441" unicode="Ã"/>
<glyph d="M-80 0l1028 1446l334 -1446h-160l-110 516l-707 -2q-240 -358 -266 -514h-119zM313 526h697l-168 742q-69 -98 -257 -358t-272 -384zM766 1618q6 29 33 49.5t61 20.5t53 -20.5t13 -49.5q-7 -31 -35 -51.5t-62 -20.5t-51.5 20.5t-11.5 51.5zM1024 1618q8 29 35.5 49.5 t60.5 20.5q34 0 52 -20.5t12 -49.5q-6 -30 -34.5 -51t-62.5 -21q-32 0 -50.5 20.5t-12.5 51.5z" glyph-name="Adieresis" horiz-adv-x="1441" unicode="Ä"/>
<glyph d="M-80 0l1028 1446l334 -1446h-160l-110 516l-707 -2q-240 -358 -266 -514h-119zM313 526h697l-168 742q-69 -98 -257 -358t-272 -384zM799 1655q11 48 68 77t141 29t127 -29t32 -77q-11 -50 -68 -80.5t-143 -30.5q-84 0 -126 30.5t-31 80.5zM877 1655q-10 -45 13 -73 t71 -28q49 0 83.5 27.5t45.5 73.5q11 43 -12 69.5t-72 26.5t-84.5 -26.5t-44.5 -69.5z" glyph-name="Aring" horiz-adv-x="1441" unicode="Å"/>
<glyph d="M-119 0l1444 1434l1079 8l-43 -189q-195 172 -886 172l-156 -671q544 12 848 61l-31 -127q-273 48 -819 60l-170 -740q312 6 556 52t437 147l-47 -207h-1096l136 582l-646 2l-196 -197q-199 -202 -291 -387h-119zM498 594l637 -2l192 831z" glyph-name="AE" horiz-adv-x="2267" unicode="Æ"/>
<glyph d="M111 727q75 323 318.5 524t557.5 201q128 0 226 -34t151.5 -90.5t76 -125.5t6.5 -142.5t-65 -137.5h-8q4 46 5 95.5t-10.5 100.5t-29 98t-50 89t-74 72.5t-100.5 48.5t-130 18q-128 -1 -248 -56.5t-212 -149t-159 -215t-98 -255.5q-35 -141 -19.5 -263t68.5 -211.5 t154.5 -141t237.5 -52.5q176 2 340.5 85.5t285.5 236.5h11q-131 -216 -315 -328t-400 -112h-10l-84 -123q136 0 201.5 -30.5t52.5 -90.5q-35 -148 -394 -148l2 9q280 0 310 127q12 54 -41 81t-174 27l110 148q-292 11 -429 217.5t-64 527.5z" glyph-name="Ccedilla" horiz-adv-x="1413" unicode="Ç"/>
<glyph d="M-29 0l332 1434l1075 8l-43 -189q-195 172 -886 172l-156 -671q544 12 848 61l-31 -127q-273 48 -819 60l-170 -740q312 6 556 52t437 147l-47 -207h-1096zM662 1810h145q87 -139 209 -264h-10q-150 93 -344 264z" glyph-name="Egrave" horiz-adv-x="1241" unicode="È"/>
<glyph d="M-29 0l332 1434l1075 8l-43 -189q-195 172 -886 172l-156 -671q544 12 848 61l-31 -127q-273 48 -819 60l-170 -740q312 6 556 52t437 147l-47 -207h-1096zM727 1546q114 114 211 264h143q-176 -160 -342 -264h-12z" glyph-name="Eacute" horiz-adv-x="1241" unicode="É"/>
<glyph d="M-29 0l332 1434l1075 8l-43 -189q-195 172 -886 172l-156 -671q544 12 848 61l-31 -127q-273 48 -819 60l-170 -740q312 6 556 52t437 147l-47 -207h-1096zM565 1546l338 264l221 -264h-12l-229 176l-305 -176h-13z" glyph-name="Ecircumflex" horiz-adv-x="1241" unicode="Ê"/>
<glyph d="M-29 0l332 1434l1075 8l-43 -189q-195 172 -886 172l-156 -671q544 12 848 61l-31 -127q-273 48 -819 60l-170 -740q312 6 556 52t437 147l-47 -207h-1096zM651 1618q6 29 33 49.5t61 20.5t53 -20.5t13 -49.5q-8 -31 -35 -51.5t-61 -20.5t-52 20.5t-12 51.5zM909 1618 q8 29 35.5 49.5t61.5 20.5q33 0 51 -20t12 -50t-34 -51t-62 -21q-33 0 -51.5 20.5t-12.5 51.5z" glyph-name="Edieresis" horiz-adv-x="1241" unicode="Ë"/>
<glyph d="M-29 0l332 1434h148l-332 -1434h-148zM219 1810h146q89 -142 208 -264h-10q-150 93 -344 264z" glyph-name="Igrave" horiz-adv-x="327" unicode="Ì"/>
<glyph d="M-29 0l332 1434h148l-332 -1434h-148zM287 1546q114 114 211 264h143q-176 -160 -342 -264h-12z" glyph-name="Iacute" horiz-adv-x="327" unicode="Í"/>
<glyph d="M-29 0l332 1434h148l-332 -1434h-148zM123 1546l338 264l221 -264h-12l-230 176l-305 -176h-12z" glyph-name="Icircumflex" horiz-adv-x="327" unicode="Î"/>
<glyph d="M-29 0l332 1434h148l-332 -1434h-148zM209 1618q6 29 33 49.5t61 20.5t53 -20.5t13 -49.5q-7 -31 -35 -51.5t-62 -20.5t-51.5 20.5t-11.5 51.5zM467 1618q8 29 35.5 49.5t60.5 20.5q34 0 52 -20.5t12 -49.5q-6 -30 -34.5 -51t-62.5 -21q-32 0 -50.5 20.5t-12.5 51.5z" glyph-name="Idieresis" horiz-adv-x="327" unicode="Ï"/>
<glyph d="M-29 0l166 713h-151l2 10h151l164 711h488q186 0 329 -49.5t229 -142.5t116 -226.5t-9 -300.5q-50 -217 -191 -379.5t-349 -249t-457 -86.5h-488zM121 8h340q318 0 539 188.5t298 518.5q75 332 -58.5 521t-451.5 189h-339l-162 -702h469l-2 -10h-469z" glyph-name="Eth" horiz-adv-x="1488" unicode="Ð"/>
<glyph d="M-29 0l332 1434h186l723 -1213l281 1213h14l-331 -1434h-15l-846 1423q-128 -554 -177 -854.5t-48 -568.5h-119zM735 1702h13q9 -86 98 -86q36 0 79 25t88.5 50t88.5 25q118 0 106 -157h-12q-8 86 -96 86q-37 0 -80 -24.5t-88.5 -49.5t-89.5 -25q-58 0 -85.5 40.5 t-21.5 115.5z" glyph-name="Ntilde" horiz-adv-x="1384" unicode="Ñ"/>
<glyph d="M96 415q-26 135 13 300q37 164 125.5 303t208 233.5t265 147.5t296.5 53q152 0 273 -52.5t195.5 -149t100 -232.5t-13.5 -303q-50 -215 -185 -383.5t-321 -259t-389 -90.5q-151 0 -272.5 52.5t-195.5 149t-100 231.5zM239 424q12 -133 62.5 -229.5t144.5 -150.5t220 -54 q167 0 318 93t259 257.5t158 374.5q38 160 26 293.5t-62.5 230.5t-144 151t-219.5 54q-253 0 -457 -204t-278 -525q-39 -158 -27 -291zM842 1808h145q87 -139 209 -264h-10q-150 93 -344 264z" glyph-name="Ograve" horiz-adv-x="1572" unicode="Ò"/>
<glyph d="M96 415q-26 135 13 300q37 164 125.5 303t208 233.5t265 147.5t296.5 53q152 0 273 -52.5t195.5 -149t100 -232.5t-13.5 -303q-50 -215 -185 -383.5t-321 -259t-389 -90.5q-151 0 -272.5 52.5t-195.5 149t-100 231.5zM239 424q12 -133 62.5 -229.5t144.5 -150.5t220 -54 q167 0 318 93t259 257.5t158 374.5q38 160 26 293.5t-62.5 230.5t-144 151t-219.5 54q-253 0 -457 -204t-278 -525q-39 -158 -27 -291zM909 1544q114 114 211 264h144q-176 -160 -342 -264h-13z" glyph-name="Oacute" horiz-adv-x="1572" unicode="Ó"/>
<glyph d="M96 415q-26 135 13 300q37 164 125.5 303t208 233.5t265 147.5t296.5 53q152 0 273 -52.5t195.5 -149t100 -232.5t-13.5 -303q-50 -215 -185 -383.5t-321 -259t-389 -90.5q-151 0 -272.5 52.5t-195.5 149t-100 231.5zM239 424q12 -133 62.5 -229.5t144.5 -150.5t220 -54 q167 0 318 93t259 257.5t158 374.5q38 160 26 293.5t-62.5 230.5t-144 151t-219.5 54q-253 0 -457 -204t-278 -525q-39 -158 -27 -291zM745 1544l338 264l222 -264h-13l-229 176l-305 -176h-13z" glyph-name="Ocircumflex" horiz-adv-x="1572" unicode="Ô"/>
<glyph d="M96 415q-26 135 13 300q37 164 125.5 303t208 233.5t265 147.5t296.5 53q152 0 273 -52.5t195.5 -149t100 -232.5t-13.5 -303q-50 -215 -185 -383.5t-321 -259t-389 -90.5q-151 0 -272.5 52.5t-195.5 149t-100 231.5zM239 424q12 -133 62.5 -229.5t144.5 -150.5t220 -54 q167 0 318 93t259 257.5t158 374.5q38 160 26 293.5t-62.5 230.5t-144 151t-219.5 54q-253 0 -457 -204t-278 -525q-39 -158 -27 -291zM807 1700h12q9 -86 99 -86q36 0 79 25t88.5 50t88.5 25q118 0 106 -158h-12q-8 86 -97 86q-37 0 -80 -24.5t-88.5 -49t-89.5 -24.5 q-58 0 -85 40t-21 116z" glyph-name="Otilde" horiz-adv-x="1572" unicode="Õ"/>
<glyph d="M96 415q-26 135 13 300q37 164 125.5 303t208 233.5t265 147.5t296.5 53q152 0 273 -52.5t195.5 -149t100 -232.5t-13.5 -303q-50 -215 -185 -383.5t-321 -259t-389 -90.5q-151 0 -272.5 52.5t-195.5 149t-100 231.5zM239 424q12 -133 62.5 -229.5t144.5 -150.5t220 -54 q167 0 318 93t259 257.5t158 374.5q38 160 26 293.5t-62.5 230.5t-144 151t-219.5 54q-253 0 -457 -204t-278 -525q-39 -158 -27 -291zM831 1616q6 29 33.5 49.5t61.5 20.5t52.5 -20.5t12.5 -49.5q-8 -31 -35 -51.5t-61 -20.5t-52 20.5t-12 51.5zM1090 1616q8 29 35.5 49.5 t60.5 20.5t51 -20t12 -50t-34 -51t-62 -21q-32 0 -50.5 20.5t-12.5 51.5z" glyph-name="Odieresis" horiz-adv-x="1572" unicode="Ö"/>
<glyph d="M8 156l438 356l-272 358l14 11l273 -359l438 357l8 -11l-438 -356l272 -358l-14 -11l-272 359l-439 -357z" glyph-name="multiply" horiz-adv-x="917" unicode="×"/>
<glyph d="M-25 -25l228 199q-82 99 -107 234.5t13 306.5q37 164 125.5 303t208 233.5t265 147.5t296.5 53q296 0 454 -184l215 188h15l-224 -194q82 -99 107.5 -236t-12.5 -311q-50 -215 -185 -383.5t-321 -259t-389 -90.5q-145 0 -261.5 47.5t-193.5 136.5l-219 -191h-15zM266 715 q-65 -280 15 -473l1101 960q-50 116 -147 179t-234 63q-253 0 -457 -204t-278 -525zM283 231q50 -116 147.5 -178.5t235.5 -62.5q167 0 318 93t259 257.5t158 374.5q64 278 -15 479z" glyph-name="Oslash" horiz-adv-x="1572" unicode="Ø"/>
<glyph d="M92 530l207 904h147l-215 -926q-20 -88 -22.5 -163t17 -141t62.5 -112.5t117.5 -73.5t176.5 -28q278 0 441 136t218 382l215 926h12l-211 -920q-121 -532 -677 -532q-320 0 -435 140.5t-53 407.5zM743 1810h146q87 -139 209 -264h-11q-150 93 -344 264z" glyph-name="Ugrave" horiz-adv-x="1343" unicode="Ù"/>
<glyph d="M92 530l207 904h147l-215 -926q-20 -88 -22.5 -163t17 -141t62.5 -112.5t117.5 -73.5t176.5 -28q278 0 441 136t218 382l215 926h12l-211 -920q-121 -532 -677 -532q-320 0 -435 140.5t-53 407.5zM811 1546q114 114 211 264h143q-176 -160 -342 -264h-12z" glyph-name="Uacute" horiz-adv-x="1343" unicode="Ú"/>
<glyph d="M92 530l207 904h147l-215 -926q-20 -88 -22.5 -163t17 -141t62.5 -112.5t117.5 -73.5t176.5 -28q278 0 441 136t218 382l215 926h12l-211 -920q-121 -532 -677 -532q-320 0 -435 140.5t-53 407.5zM647 1546l338 264l221 -264h-12l-229 176l-306 -176h-12z" glyph-name="Ucircumflex" horiz-adv-x="1343" unicode="Û"/>
<glyph d="M92 530l207 904h147l-215 -926q-20 -88 -22.5 -163t17 -141t62.5 -112.5t117.5 -73.5t176.5 -28q278 0 441 136t218 382l215 926h12l-211 -920q-121 -532 -677 -532q-320 0 -435 140.5t-53 407.5zM733 1618q6 29 33 49.5t61 20.5t53 -20.5t13 -49.5q-8 -31 -35 -51.5 t-61 -20.5t-52 20.5t-12 51.5zM991 1618q8 29 35.5 49.5t60.5 20.5q34 0 52 -20.5t12 -49.5q-6 -30 -34 -51t-62 -21q-33 0 -51.5 20.5t-12.5 51.5z" glyph-name="Udieresis" horiz-adv-x="1343" unicode="Ü"/>
<glyph d="M240 1434h174l426 -770l774 770h14l-786 -785l-150 -649h-145l143 623zM844 1546q114 114 211 264h143q-176 -160 -342 -264h-12z" glyph-name="Yacute" horiz-adv-x="1443" unicode="Ý"/>
<glyph d="M-29 0l332 1434h148l-70 -301h502q242 0 369 -104t83 -296q-43 -191 -218.5 -295t-418.5 -104h-501l-78 -334h-148zM199 342h444q210 0 355.5 106t187.5 285q40 179 -47.5 285t-284.5 106h-475z" glyph-name="Thorn" horiz-adv-x="1363" unicode="Þ"/>
<glyph d="M-123 -410l330 1430q49 207 194 319.5t361 112.5q211 0 311 -80t66 -227q-29 -127 -158.5 -209t-323.5 -96q211 -18 310 -126.5t57 -297.5q-50 -210 -223.5 -322t-419.5 -112l2 6q183 0 318.5 116.5t179.5 311.5q45 192 -36 306t-267 114l2 6q166 0 281.5 82t144.5 206 q35 153 -25.5 234.5t-212.5 81.5q-157 0 -261 -98.5t-142 -262.5l-345 -1495h-143z" glyph-name="germandbls" horiz-adv-x="1095" unicode="ß"/>
<glyph d="M41 284.5q-13 91.5 14 198.5q59 221 229.5 360t393.5 140q128 0 201 -60.5t96 -164.5q2 9 33 141q78 11 151 64q-10 -43 -29.5 -130.5t-29.5 -130.5l-53 -227l-60 -258q-27 -111 3.5 -165t127.5 -48l-2 -4q-163 -38 -232 17t-38 200l22 98q-63 -147 -187.5 -240 t-293.5 -93q-98 1 -173.5 39t-117.5 105t-55 158.5zM193 282.5q18 -99.5 88 -160t180 -61.5q87 0 163 30.5t129 81.5t88 112.5t50 128.5l16 69l13 54q13 68 13.5 129.5t-13.5 118t-42.5 98t-78.5 66t-117 24.5q-163 -1 -296.5 -129.5t-184.5 -331.5q-26 -130 -8 -229.5z M520 1329h146q89 -142 208 -264h-10q-150 93 -344 264z" glyph-name="agrave" horiz-adv-x="1239" unicode="à"/>
<glyph d="M41 284.5q-13 91.5 14 198.5q59 221 229.5 360t393.5 140q128 0 201 -60.5t96 -164.5q2 9 33 141q78 11 151 64q-10 -43 -29.5 -130.5t-29.5 -130.5l-53 -227l-60 -258q-27 -111 3.5 -165t127.5 -48l-2 -4q-163 -38 -232 17t-38 200l22 98q-63 -147 -187.5 -240 t-293.5 -93q-98 1 -173.5 39t-117.5 105t-55 158.5zM193 282.5q18 -99.5 88 -160t180 -61.5q87 0 163 30.5t129 81.5t88 112.5t50 128.5l16 69l13 54q13 68 13.5 129.5t-13.5 118t-42.5 98t-78.5 66t-117 24.5q-163 -1 -296.5 -129.5t-184.5 -331.5q-26 -130 -8 -229.5z M586 1065q114 114 211 264h143q-176 -160 -342 -264h-12z" glyph-name="aacute" horiz-adv-x="1239" unicode="á"/>
<glyph d="M41 284.5q-13 91.5 14 198.5q59 221 229.5 360t393.5 140q128 0 201 -60.5t96 -164.5q2 9 33 141q78 11 151 64q-10 -43 -29.5 -130.5t-29.5 -130.5l-53 -227l-60 -258q-27 -111 3.5 -165t127.5 -48l-2 -4q-163 -38 -232 17t-38 200l22 98q-63 -147 -187.5 -240 t-293.5 -93q-98 1 -173.5 39t-117.5 105t-55 158.5zM193 282.5q18 -99.5 88 -160t180 -61.5q87 0 163 30.5t129 81.5t88 112.5t50 128.5l16 69l13 54q13 68 13.5 129.5t-13.5 118t-42.5 98t-78.5 66t-117 24.5q-163 -1 -296.5 -129.5t-184.5 -331.5q-26 -130 -8 -229.5z M422 1065l338 264l221 -264h-12l-230 176l-305 -176h-12z" glyph-name="acircumflex" horiz-adv-x="1239" unicode="â"/>
<glyph d="M41 284.5q-13 91.5 14 198.5q59 221 229.5 360t393.5 140q128 0 201 -60.5t96 -164.5q2 9 33 141q78 11 151 64q-10 -43 -29.5 -130.5t-29.5 -130.5l-53 -227l-60 -258q-27 -111 3.5 -165t127.5 -48l-2 -4q-163 -38 -232 17t-38 200l22 98q-63 -147 -187.5 -240 t-293.5 -93q-98 1 -173.5 39t-117.5 105t-55 158.5zM193 282.5q18 -99.5 88 -160t180 -61.5q87 0 163 30.5t129 81.5t88 112.5t50 128.5l16 69l13 54q13 68 13.5 129.5t-13.5 118t-42.5 98t-78.5 66t-117 24.5q-163 -1 -296.5 -129.5t-184.5 -331.5q-26 -130 -8 -229.5z M483 1221h13q9 -86 98 -86q36 0 79 25t88.5 50t88.5 25q118 0 106 -158h-12q-8 86 -96 86q-37 0 -80 -24.5t-88.5 -49t-89.5 -24.5q-58 0 -85.5 40.5t-21.5 115.5z" glyph-name="atilde" horiz-adv-x="1239" unicode="ã"/>
<glyph d="M41 284.5q-13 91.5 14 198.5q59 221 229.5 360t393.5 140q128 0 201 -60.5t96 -164.5q2 9 33 141q78 11 151 64q-10 -43 -29.5 -130.5t-29.5 -130.5l-53 -227l-60 -258q-27 -111 3.5 -165t127.5 -48l-2 -4q-163 -38 -232 17t-38 200l22 98q-63 -147 -187.5 -240 t-293.5 -93q-98 1 -173.5 39t-117.5 105t-55 158.5zM193 282.5q18 -99.5 88 -160t180 -61.5q87 0 163 30.5t129 81.5t88 112.5t50 128.5l16 69l13 54q13 68 13.5 129.5t-13.5 118t-42.5 98t-78.5 66t-117 24.5q-163 -1 -296.5 -129.5t-184.5 -331.5q-26 -130 -8 -229.5z M510 1137q6 29 33 49t61 20t53 -20t13 -49q-7 -31 -35 -51.5t-62 -20.5t-51.5 20.5t-11.5 51.5zM768 1137q8 29 35 49t61 20t52 -20t12 -49q-6 -30 -34.5 -51t-62.5 -21q-32 0 -50.5 20.5t-12.5 51.5z" glyph-name="adieresis" horiz-adv-x="1239" unicode="ä"/>
<glyph d="M41 284.5q-13 91.5 14 198.5q59 221 229.5 360t393.5 140q128 0 201 -60.5t96 -164.5q2 9 33 141q78 11 151 64q-10 -43 -29.5 -130.5t-29.5 -130.5l-53 -227l-60 -258q-27 -111 3.5 -165t127.5 -48l-2 -4q-163 -38 -232 17t-38 200l22 98q-63 -147 -187.5 -240 t-293.5 -93q-98 1 -173.5 39t-117.5 105t-55 158.5zM193 282.5q18 -99.5 88 -160t180 -61.5q87 0 163 30.5t129 81.5t88 112.5t50 128.5l16 69l13 54q13 68 13.5 129.5t-13.5 118t-42.5 98t-78.5 66t-117 24.5q-163 -1 -296.5 -129.5t-184.5 -331.5q-26 -130 -8 -229.5z M543 1174q11 48 68 77t141 29t127 -29t32 -77q-11 -50 -68 -80.5t-143 -30.5q-84 0 -126 30.5t-31 80.5zM621 1174q-10 -45 13 -73t71 -28q49 0 83.5 27.5t45.5 73.5q11 43 -12 69.5t-72 26.5t-84.5 -26.5t-44.5 -69.5z" glyph-name="aring" horiz-adv-x="1239" unicode="å"/>
<glyph d="M2 254q62 257 518 287q64 5 189.5 14t189.5 14l23 97q35 152 -32 231.5t-233 79.5q-97 0 -184.5 -36t-145.5 -91t-95.5 -109t-53.5 -102h-6q-17 55 7.5 115t83 111.5t163.5 84.5t236 33q340 0 364 -211q87 98 205.5 154t255.5 57q134 0 220 -59t114.5 -155t3.5 -214v-4 l-803 -2q0 -9 -4 -21q-46 -198 34.5 -316.5t266.5 -119.5q134 0 254.5 60.5t189.5 162.5h9q-82 -145 -225 -239t-308 -94q-172 1 -271 97t-104 255q-45 -164 -174.5 -258t-320.5 -94q-218 0 -307.5 70t-59.5 202zM152 256q-28 -115 33.5 -186.5t228.5 -71.5q156 0 276 89.5 t158 260.5l49 213l-332 -24q-357 -25 -413 -281zM1026 559h690q37 182 -23.5 299t-211.5 117q-159 -3 -281.5 -118t-173.5 -298z" glyph-name="ae" horiz-adv-x="1871" unicode="æ"/>
<glyph d="M55 483q52 222 232.5 360.5t433.5 139.5q106 0 185.5 -22.5t121.5 -59t59.5 -82t7 -92.5t-43.5 -88h-7q4 36 -1 77t-25.5 88t-55 84t-97 62t-144.5 25q-97 -1 -184.5 -37t-153 -97.5t-111.5 -141.5t-67 -171q-45 -194 45 -314.5t297 -121.5q151 0 280 60.5t207 162.5h10 q-90 -151 -243.5 -242t-335.5 -91h-23l-84 -123q136 0 201.5 -30.5t52.5 -90.5q-35 -148 -393 -148l2 9q279 0 309 127q12 54 -41 81t-174 27l113 150q-219 12 -321.5 149t-51.5 350z" glyph-name="ccedilla" horiz-adv-x="1138" unicode="ç"/>
<glyph d="M55 483q33 142 123.5 254.5t229.5 178.5t303 67q148 0 244 -59t129 -154.5t8 -214.5v-4l-881 -2l-6 -21q-46 -198 46 -316.5t296 -119.5q148 0 278.5 60.5t204.5 162.5h10q-90 -146 -243.5 -239.5t-335.5 -93.5q-154 1 -258.5 66t-143 178.5t-4.5 256.5zM213 559h760 q35 182 -34.5 299t-236.5 117q-175 -3 -306 -118t-183 -298zM541 1329h145q87 -139 209 -264h-10q-150 93 -344 264z" glyph-name="egrave" horiz-adv-x="1140" unicode="è"/>
<glyph d="M55 483q33 142 123.5 254.5t229.5 178.5t303 67q148 0 244 -59t129 -154.5t8 -214.5v-4l-881 -2l-6 -21q-46 -198 46 -316.5t296 -119.5q148 0 278.5 60.5t204.5 162.5h10q-90 -146 -243.5 -239.5t-335.5 -93.5q-154 1 -258.5 66t-143 178.5t-4.5 256.5zM213 559h760 q35 182 -34.5 299t-236.5 117q-175 -3 -306 -118t-183 -298zM606 1065q114 114 211 264h144q-174 -157 -343 -264h-12z" glyph-name="eacute" horiz-adv-x="1140" unicode="é"/>
<glyph d="M55 483q33 142 123.5 254.5t229.5 178.5t303 67q148 0 244 -59t129 -154.5t8 -214.5v-4l-881 -2l-6 -21q-46 -198 46 -316.5t296 -119.5q148 0 278.5 60.5t204.5 162.5h10q-90 -146 -243.5 -239.5t-335.5 -93.5q-154 1 -258.5 66t-143 178.5t-4.5 256.5zM213 559h760 q35 182 -34.5 299t-236.5 117q-175 -3 -306 -118t-183 -298zM444 1065l338 264l222 -264h-13l-229 176l-305 -176h-13z" glyph-name="ecircumflex" horiz-adv-x="1140" unicode="ê"/>
<glyph d="M55 483q33 142 123.5 254.5t229.5 178.5t303 67q148 0 244 -59t129 -154.5t8 -214.5v-4l-881 -2l-6 -21q-46 -198 46 -316.5t296 -119.5q148 0 278.5 60.5t204.5 162.5h10q-90 -146 -243.5 -239.5t-335.5 -93.5q-154 1 -258.5 66t-143 178.5t-4.5 256.5zM213 559h760 q35 182 -34.5 299t-236.5 117q-175 -3 -306 -118t-183 -298zM530 1137q6 29 33.5 49t61.5 20t52.5 -20t12.5 -49q-8 -31 -35 -51.5t-61 -20.5t-52 20.5t-12 51.5zM788 1137q8 29 35.5 49t61.5 20t51.5 -20t11.5 -49q-6 -30 -34 -51t-62 -21q-33 0 -51.5 20.5t-12.5 51.5z " glyph-name="edieresis" horiz-adv-x="1140" unicode="ë"/>
<glyph d="M27 0l209 903q79 11 155 64l-223 -967h-141zM244 1425h145q30 -147 90 -264h-10q-108 94 -225 264z" glyph-name="igrave" horiz-adv-x="432" unicode="ì"/>
<glyph d="M27 0l209 903q79 11 155 64l-223 -967h-141zM246 1161q114 114 211 264h143q-176 -160 -342 -264h-12z" glyph-name="iacute" horiz-adv-x="432" unicode="í"/>
<glyph d="M27 0l209 903q79 11 155 64l-223 -967h-141zM82 1161l338 264l221 -264h-12l-230 176l-305 -176h-12z" glyph-name="icircumflex" horiz-adv-x="432" unicode="î"/>
<glyph d="M27 0l209 903q79 11 155 64l-223 -967h-141zM170 1233q6 29 33 49.5t61 20.5t53 -20.5t13 -49.5q-7 -31 -35 -51.5t-62 -20.5t-51.5 20.5t-11.5 51.5zM428 1233q8 29 35.5 49.5t60.5 20.5q34 0 52 -20.5t12 -49.5q-6 -30 -34 -51t-62 -21q-33 0 -51.5 20.5t-12.5 51.5z " glyph-name="idieresis" horiz-adv-x="432" unicode="ï"/>
<glyph d="M49 461q50 210 221 345.5t389 135.5q162 0 260 -72t111 -202q24 327 -158 559l-280 -156l-4 10l278 154q-94 114 -231 197h18q148 -77 252 -175l322 177l4 -9l-318 -176q157 -148 217 -336t13 -393q-58 -250 -243 -394t-435 -144q-150 0 -255.5 57.5t-149 167 t-11.5 254.5zM196.5 204.5q33.5 -104.5 109.5 -159.5t175 -55q99 1 187 39.5t152.5 105t110.5 153.5t68 187q18 84 21 109q11 158 -74 249t-248 91q-74 0 -150.5 -30.5t-146 -87t-124.5 -146.5t-80 -199q-34 -152 -0.5 -256.5z" glyph-name="eth" horiz-adv-x="1202" unicode="ð"/>
<glyph d="M-29 0l209 903q83 12 158 64l-84 -367q69 178 212 280.5t337 102.5t270 -93t35 -274l-143 -616h-144l150 637q37 165 -19.5 244.5t-206.5 79.5q-172 0 -313.5 -117.5t-198.5 -327.5l-118 -516h-144zM532 1221h13q9 -86 98 -86q36 0 79 25t88.5 50t88.5 25q119 0 107 -158 h-13q-8 86 -96 86q-37 0 -80 -24.5t-88.5 -49t-89.5 -24.5q-58 0 -85.5 40.5t-21.5 115.5z" glyph-name="ntilde" horiz-adv-x="1169" unicode="ñ"/>
<glyph d="M50 277q-22 92 5 204q33 147 132.5 262.5t240 177.5t297.5 62q239 0 364.5 -139.5t75.5 -362.5q-34 -147 -133.5 -261.5t-240 -176t-297.5 -61.5q-117 0 -211 36t-152.5 101.5t-80.5 157.5zM211 481q-55 -232 24 -362.5t261 -130.5t320.5 130t193.5 363 q53 233 -26.5 364.5t-260.5 131.5t-320 -131.5t-192 -364.5zM561 1329h146q89 -142 208 -264h-10q-150 93 -344 264z" glyph-name="ograve" unicode="ò"/>
<glyph d="M50 277q-22 92 5 204q33 147 132.5 262.5t240 177.5t297.5 62q239 0 364.5 -139.5t75.5 -362.5q-34 -147 -133.5 -261.5t-240 -176t-297.5 -61.5q-117 0 -211 36t-152.5 101.5t-80.5 157.5zM211 481q-55 -232 24 -362.5t261 -130.5t320.5 130t193.5 363 q53 233 -26.5 364.5t-260.5 131.5t-320 -131.5t-192 -364.5zM629 1065q114 114 211 264h143q-176 -160 -342 -264h-12z" glyph-name="oacute" unicode="ó"/>
<glyph d="M50 277q-22 92 5 204q33 147 132.5 262.5t240 177.5t297.5 62q239 0 364.5 -139.5t75.5 -362.5q-34 -147 -133.5 -261.5t-240 -176t-297.5 -61.5q-117 0 -211 36t-152.5 101.5t-80.5 157.5zM211 481q-55 -232 24 -362.5t261 -130.5t320.5 130t193.5 363 q53 233 -26.5 364.5t-260.5 131.5t-320 -131.5t-192 -364.5zM465 1065l338 264l221 -264h-12l-230 176l-305 -176h-12z" glyph-name="ocircumflex" unicode="ô"/>
<glyph d="M50 277q-22 92 5 204q33 147 132.5 262.5t240 177.5t297.5 62q239 0 364.5 -139.5t75.5 -362.5q-34 -147 -133.5 -261.5t-240 -176t-297.5 -61.5q-117 0 -211 36t-152.5 101.5t-80.5 157.5zM211 481q-55 -232 24 -362.5t261 -130.5t320.5 130t193.5 363 q53 233 -26.5 364.5t-260.5 131.5t-320 -131.5t-192 -364.5zM526 1221h13q9 -86 98 -86q36 0 79 25t88.5 50t88.5 25q118 0 106 -158h-12q-8 86 -96 86q-37 0 -80 -24.5t-88.5 -49t-89.5 -24.5q-58 0 -85.5 40.5t-21.5 115.5z" glyph-name="otilde" unicode="õ"/>
<glyph d="M50 277q-22 92 5 204q33 147 132.5 262.5t240 177.5t297.5 62q239 0 364.5 -139.5t75.5 -362.5q-34 -147 -133.5 -261.5t-240 -176t-297.5 -61.5q-117 0 -211 36t-152.5 101.5t-80.5 157.5zM211 481q-55 -232 24 -362.5t261 -130.5t320.5 130t193.5 363 q53 233 -26.5 364.5t-260.5 131.5t-320 -131.5t-192 -364.5zM551 1137q6 29 33 49t61 20t53 -20t13 -49q-7 -31 -35 -51.5t-62 -20.5t-51.5 20.5t-11.5 51.5zM809 1137q8 29 35 49t61 20t52 -20t12 -49q-6 -30 -34.5 -51t-62.5 -21q-32 0 -50.5 20.5t-12.5 51.5z" glyph-name="odieresis" unicode="ö"/>
<glyph d="M-47 -18l178 137q-128 140 -76 362q33 147 132.5 262.5t240 177.5t297.5 62q231 0 356 -131l170 131h17l-178 -137q124 -140 75 -365q-34 -147 -133.5 -261.5t-240 -176t-297.5 -61.5q-232 0 -355 129l-168 -129h-18zM209 178l799 617q-32 89 -105.5 135.5t-179.5 46.5 q-181 0 -320 -131.5t-192 -364.5q-43 -182 -2 -303zM213 168q31 -87 104 -133.5t179 -46.5q182 0 320.5 130t193.5 363q42 178 0 303z" glyph-name="oslash" unicode="ø"/>
<glyph d="M43 324l133 575q82 12 156 64l-156 -678q-34 -149 25.5 -214t206.5 -65q172 0 315 127.5t195 351.5l96 414q83 12 155 64l-221 -963h-143l86 367q-72 -178 -212.5 -281.5t-324.5 -103.5q-199 0 -275.5 82.5t-35.5 259.5zM526 1329h146q87 -139 209 -264h-11 q-150 93 -344 264z" glyph-name="ugrave" horiz-adv-x="1157" unicode="ù"/>
<glyph d="M43 324l133 575q82 12 156 64l-156 -678q-34 -149 25.5 -214t206.5 -65q172 0 315 127.5t195 351.5l96 414q83 12 155 64l-221 -963h-143l86 367q-72 -178 -212.5 -281.5t-324.5 -103.5q-199 0 -275.5 82.5t-35.5 259.5zM594 1065q114 114 211 264h143 q-176 -160 -342 -264h-12z" glyph-name="uacute" horiz-adv-x="1157" unicode="ú"/>
<glyph d="M43 324l133 575q82 12 156 64l-156 -678q-34 -149 25.5 -214t206.5 -65q172 0 315 127.5t195 351.5l96 414q83 12 155 64l-221 -963h-143l86 367q-72 -178 -212.5 -281.5t-324.5 -103.5q-199 0 -275.5 82.5t-35.5 259.5zM430 1065l338 264l221 -264h-12l-229 176 l-306 -176h-12z" glyph-name="ucircumflex" horiz-adv-x="1157" unicode="û"/>
<glyph d="M43 324l133 575q82 12 156 64l-156 -678q-34 -149 25.5 -214t206.5 -65q172 0 315 127.5t195 351.5l96 414q83 12 155 64l-221 -963h-143l86 367q-72 -178 -212.5 -281.5t-324.5 -103.5q-199 0 -275.5 82.5t-35.5 259.5zM516 1137q6 29 33 49t61 20t53 -20t13 -49 q-8 -31 -35 -51.5t-61 -20.5t-52 20.5t-12 51.5zM774 1137q8 29 35 49t61 20t52 -20t12 -49q-6 -30 -34 -51t-62 -21q-33 0 -51.5 20.5t-12.5 51.5z" glyph-name="udieresis" horiz-adv-x="1157" unicode="ü"/>
<glyph d="M14 -410l392 402l-281 964h154l233 -815l592 815h14l-708 -979l-258 -387h-138zM553 1065q114 114 211 264h143q-176 -160 -342 -264h-12z" glyph-name="yacute" horiz-adv-x="1042" unicode="ý"/>
<glyph d="M-123 -410l94 410l58 250l151 653l115 490q87 13 156 63l-113 -489l-86 -371q70 176 209 281.5t321 105.5q220 0 326.5 -141t56.5 -361q-51 -217 -225 -358t-389 -141q-181 0 -271 108.5t-79 280.5l-181 -781h-143zM219 451q-37 -199 47 -324t254 -125q102 0 201 55.5 t179 166.5t114 257q35 153 5.5 260t-104 164.5t-176.5 57.5q-171 0 -310.5 -121t-195.5 -326z" glyph-name="thorn" horiz-adv-x="1234" unicode="þ"/>
</font>
</defs>
</svg>
