<?xml version="1.0" encoding="UTF-8"?>
<!DOCTYPE svg  PUBLIC '-//W3C//DTD SVG 1.1//EN'  'http://www.w3.org/Graphics/SVG/1.1/DTD/svg11.dtd'>
<svg version="1.1" xmlns="http://www.w3.org/2000/svg">
<defs>
<font id="Orelo-SemiWideDemiBoldItalic" horiz-adv-x="1529">
<font-face font-family="Orelo SemiWide DemiBold" font-stretch="semi-expanded" font-style="italic" font-weight="600" ascent="1638" bbox="-516 -463 2572 1810" cap-height="1434" descent="-410" panose-1="0 0 7 5 0 0 0 0 0 0" slope="-13" underline-position="-204" underline-thickness="14" unicode-range="U+0020-00FE" units-per-em="2048" x-height="956"/>
<missing-glyph/>
<glyph glyph-name="space" horiz-adv-x="559" unicode=" "/>
<glyph d="M2 121q12 55 59 94t103 39q54 0 82.5 -39t15.5 -94q-12 -55 -59 -93t-101 -38q-56 0 -84.5 38t-15.5 93zM182 358q51 242 85.5 532t43.5 544h250q-245 -583 -368 -1076h-11z" glyph-name="exclam" horiz-adv-x="475" unicode="!"/>
<glyph d="M238 952q64 25 116 81t78 112t35 108q-33 -41 -92 -41q-54 0 -78.5 39t-13.5 90q14 57 59 94.5t102 37.5q64 0 87.5 -54.5t5.5 -132.5q-27 -113 -101.5 -208.5t-193.5 -129.5zM563 952q64 25 116 81t78.5 112t35.5 108q-33 -41 -93 -41q-53 0 -78 39.5t-12 89.5 q12 57 57.5 94.5t102.5 37.5q64 0 87 -54.5t5 -132.5q-27 -113 -101.5 -208.5t-193.5 -129.5z" glyph-name="quotedbl" horiz-adv-x="776" unicode='"'/>
<glyph d="M12 -20l355 514h-304l60 145h344l68 98h-398l62 146h436l393 571h25l-394 -571h625l395 571h25l-395 -571h225l-61 -146h-265l-67 -98h317l-61 -145h-357l-354 -514h-24l354 514h-625l-354 -514h-25zM492 639h624l68 98h-625z" glyph-name="numbersign" horiz-adv-x="1519" unicode="#"/>
<glyph d="M18.5 304q10.5 95 102.5 198h8q-4 -62 7 -127.5t40.5 -131t74 -118.5t113.5 -90t152 -45l143 616q-48 14 -79.5 24t-75.5 25t-73 28t-64.5 31.5t-58.5 37t-47 42.5t-36.5 50.5t-21 58t-7.5 68.5t11 78q20 87 68 156.5t111.5 115t142.5 75.5t159.5 43t165.5 13l43 186h10 l-43 -186q125 -1 224.5 -32t157 -83t81 -116.5t2 -139t-85.5 -145.5h-6q9 52 3 110t-19 114t-44 107t-72.5 90t-104 62.5t-138.5 24.5l-135 -586l43 -12q193 -56 255 -82q154 -65 195 -169q32 -80 5 -196q-21 -89 -71.5 -161t-117 -119.5t-147.5 -79.5t-161 -45.5 t-159 -13.5h-45l-49 -216h-10l49 218q-154 6 -270 49t-176 110.5t-49.5 162.5zM362.5 1117q-0.5 -24 6.5 -45t16 -39t26.5 -34.5t34.5 -29.5t43.5 -25.5t48.5 -22.5t55.5 -21t59.5 -19t64 -19l135 582q-192 1 -322.5 -74t-160.5 -201q-6 -28 -6.5 -52zM526 -10q14 -2 43 -2 q198 -1 329 73t159 197q9 56 9 97t-23.5 73.5t-51.5 55t-75 41.5t-95 34t-110 33q-25 7 -37 10q-4 0 -6 2z" glyph-name="dollar" horiz-adv-x="1300" unicode="$"/>
<glyph d="M190 1071q38 164 160.5 271.5t263.5 107.5q140 0 214 -107t36 -272q-38 -162 -161.5 -269.5t-264.5 -107.5q-139 0 -212.5 107.5t-35.5 269.5zM289 885q0 -83 38.5 -135t112.5 -52q109 0 187 105t114 268q22 104 22 187.5t-38.5 135.5t-112.5 52q-109 0 -186 -105 t-115 -270q-22 -103 -22 -186zM356 -20l1016 1474h25l-1016 -1474h-25zM864 369q38 165 160 272t262 107q142 0 215 -107t35 -272q-38 -162 -160.5 -269.5t-263.5 -107.5q-140 0 -213 107.5t-35 269.5zM963 183q0 -83 38 -135t111 -52q109 0 187 105t116 268q21 104 21 187 t-38.5 135t-113.5 52q-108 0 -185.5 -105t-113.5 -269q-22 -103 -22 -186z" glyph-name="percent" horiz-adv-x="1632" unicode="%"/>
<glyph d="M23 342q33 143 187.5 243t379.5 138q-101 133 -127 215.5t-4 177.5q33 150 177 243t372 93q216 0 305.5 -92t54.5 -242q-31 -135 -174 -225.5t-385 -128.5q80 -102 428 -485q82 97 114.5 205.5t18 202.5t-66.5 167l262 2q-58 -184 -135 -325.5t-187 -260.5 q37 -40 244 -270h-277q-106 122 -110 127q-88 -67 -229.5 -106t-307.5 -39q-135 0 -241.5 21t-182 64t-107 113t-9.5 162zM246 354q-21 -91 3 -160t84 -109t139.5 -59.5t176.5 -19.5q133 0 249.5 34.5t193.5 94.5q-154 174 -219 249t-146 170.5t-127 156.5 q-139 -43 -232.5 -136.5t-121.5 -220.5zM659 1167q-22 -92 10 -178.5t134 -216.5q159 46 262.5 140t128.5 206q12 50 15.5 93.5t-4.5 87.5t-29.5 75t-64.5 50.5t-105 19.5q-136 0 -226.5 -74t-120.5 -203z" glyph-name="ampersand" horiz-adv-x="1626" unicode="&amp;"/>
<glyph d="M229 922q64 25 116 81t78.5 112t35.5 108q-33 -41 -92 -41q-53 0 -78.5 39.5t-12.5 89.5q12 57 57.5 94t102.5 37q64 0 87 -54.5t5 -132.5q-27 -112 -101.5 -207.5t-193.5 -129.5z" glyph-name="quotesingle" horiz-adv-x="448" unicode="'"/>
<glyph d="M67 424q-4 106 23 211q26 113 75.5 214.5t136 209t222 217t320.5 219.5h10q-211 -164 -357.5 -396t-199.5 -464q-35 -163 -33.5 -316.5t51 -297.5t142.5 -246h-11q-133 116 -217 227t-121 213.5t-41 208.5z" glyph-name="parenleft" horiz-adv-x="626" unicode="("/>
<glyph d="M-170 -225q208 152 354.5 384t202.5 476q33 155 31 306t-51 297.5t-140 256.5h11q133 -110 218 -221t120.5 -214.5t40.5 -211.5t-23 -213q-26 -113 -75.5 -212.5t-136 -206t-221.5 -216t-321 -225.5h-10z" glyph-name="parenright" horiz-adv-x="626" unicode=")"/>
<glyph d="M201 1118l114 162q110 -91 181 -141t141 -82q12 99 10 163.5t-14 213.5h198q-80 -146 -119.5 -226.5t-62.5 -152.5q149 58 430 225l37 -162q-34 -4 -114.5 -13t-110 -13t-82.5 -12t-88.5 -17.5t-71.5 -22.5q45 -53 108 -102t199 -143l-176 -111q-65 205 -93 265 q-22 47 -48 85q-67 -60 -130.5 -135t-170.5 -215l-127 111q133 69 183.5 96.5t121 70t117.5 80.5q-29 12 -59.5 21.5t-80 17.5t-75.5 11.5t-106 12.5t-111 13z" glyph-name="asterisk" horiz-adv-x="1036" unicode="*"/>
<glyph d="M90 504l4 20h543l98 426h21l-99 -426h541l-4 -20h-541l-98 -426h-20l98 426h-543z" glyph-name="plus" horiz-adv-x="1288" unicode="+"/>
<glyph d="M-188 -291q66 51 114.5 136t70 158.5t30.5 146.5h153q-11 -71 -35.5 -134.5t-66.5 -124.5t-109 -109.5t-153 -76.5z" glyph-name="comma" horiz-adv-x="356" unicode=","/>
<glyph d="M104 502l35 149h635l-37 -149h-633z" glyph-name="hyphen" horiz-adv-x="847" unicode="-"/>
<glyph d="M2 121q12 55 59 94t103 39q54 0 82.5 -39t15.5 -94q-12 -55 -59 -93t-101 -38q-56 0 -84.5 38t-15.5 93z" glyph-name="period" horiz-adv-x="444" unicode="."/>
<glyph d="M-109 -20l1018 1474h25l-1018 -1474h-25z" glyph-name="slash" horiz-adv-x="731" unicode="/"/>
<glyph d="M92 419.5q-22 134.5 17 295.5q37 159 120.5 297.5t194 234.5t243 150.5t265.5 54.5q135 0 243 -54t173.5 -151.5t87.5 -233t-17 -298.5q-49 -209 -176.5 -378t-299 -262t-351.5 -93q-133 0 -240.5 54.5t-172.5 151.5t-87 231.5zM303.5 436q-5.5 -128 20 -229.5t94 -159 t176.5 -57.5q88 0 168 38t143.5 104.5t117.5 159t93.5 198t67.5 225.5q28 121 37.5 227t-1.5 199t-44 159.5t-95.5 105t-150.5 38.5q-108 0 -203.5 -58t-168 -160t-126 -230.5t-88.5 -280.5q-35 -151 -40.5 -279z" glyph-name="zero" horiz-adv-x="1433" unicode="0"/>
<glyph d="M94 784l2 9q144 9 275 66.5t229 147t169.5 199t109.5 228.5h8q-34 -125 -79.5 -225.5t-112.5 -186.5t-151.5 -141t-198.5 -81.5t-251 -15.5zM555 0l332 1434h219l-332 -1434h-219z" glyph-name="one" horiz-adv-x="1024" unicode="1"/>
<glyph d="M-94 0l2 8q265 150 450 271.5t334 248t233.5 250.5t114.5 256q43 183 -20.5 296.5t-224.5 113.5q-89 0 -170.5 -36.5t-141 -94.5t-107 -131t-75 -144t-37.5 -135h-8q-39 58 -46 122.5t15 125t73.5 115.5t122.5 96t168.5 65.5t207.5 24.5q89 0 168 -15.5t146.5 -48 t110.5 -82.5t60 -117.5t-4 -154.5q-15 -65 -47.5 -127.5t-75 -117.5t-104.5 -111.5t-123.5 -103t-145 -100t-157 -95t-171 -93.5t-175 -91.5t-182 -93t-179.5 -93.5q434 4 696.5 54t499.5 161l-51 -223h-1157z" glyph-name="two" horiz-adv-x="1243" unicode="2"/>
<glyph d="M55 485h8q25 -182 146.5 -265t312.5 -83q166 0 279.5 63.5t140.5 184.5q27 111 -33 190.5t-181.5 120t-295.5 49.5l2 9q561 17 645 366q8 46 9 92t-16.5 88t-47.5 74t-84.5 51t-126.5 19q-85 0 -164 -34t-137.5 -89t-105.5 -124t-75 -138.5t-38 -132.5h-6 q-38 58 -44.5 121t16.5 120.5t73.5 110t120.5 91t164 61t198 22.5q83 0 156.5 -10t140 -34.5t111 -61.5t63.5 -95t2 -131q-21 -88 -89.5 -157t-170.5 -111.5t-218.5 -67t-248.5 -32.5q113 -5 207.5 -20.5t176.5 -46.5t134 -76t73.5 -111.5t2.5 -149.5q-38 -160 -201.5 -263 t-400.5 -103q-248 0 -374 130.5t-124 372.5z" glyph-name="three" horiz-adv-x="1253" unicode="3"/>
<glyph d="M-6 426v6l1110 1002h223l-229 -990l282 5l-8 -35l-280 2l-97 -416h-221l96 418zM229 434l648 8l227 981q-52 -54 -103 -108.5t-106 -115.5t-96 -106t-102 -114.5t-92.5 -105.5t-99 -114.5t-90 -105t-96.5 -113.5t-90 -106z" glyph-name="four" horiz-adv-x="1409" unicode="4"/>
<glyph d="M59 397h7q122 -280 479 -280q211 0 350 111.5t180 293.5q46 203 -34 323t-263 120q-162 0 -292 -95.5t-175 -226.5h-2h-10h-147l417 791h4l883 14l-8 -33q-115 2 -437 6t-436 6l-239 -702q72 119 206.5 197.5t309.5 78.5q162 0 273 -60t155 -175t8 -270 q-34 -146 -134.5 -262.5t-252 -183t-326.5 -68.5q-220 0 -348.5 113t-167.5 302z" glyph-name="five" horiz-adv-x="1396" unicode="5"/>
<glyph d="M91 351.5q-20 117.5 15 264.5q36 159 121.5 299t213.5 252t304.5 189.5t384.5 107.5q118 20 224 23l-2 -8q-109 -3 -217 -25q-147 -26 -266.5 -83.5t-204 -133.5t-150 -179t-106 -209.5t-70.5 -234.5q-17 -74 -25 -127q52 187 205.5 298.5t351.5 111.5q108 0 192.5 -31 t136.5 -88.5t70 -140.5t-7 -188q-47 -207 -239.5 -337t-451.5 -130q-129 0 -231.5 44t-165.5 126t-83 199.5zM303 403q-40 -413 270 -413q174 0 296.5 119t166.5 315q46 196 -21.5 311t-226.5 115q-110 0 -211 -50t-177 -154t-97 -243z" glyph-name="six" horiz-adv-x="1335" unicode="6"/>
<glyph d="M-45 0q48 105 121.5 215t168 220t201.5 219.5t237.5 229t258 231.5t279.5 244q53 45 79 68l-1054 -12l8 33l1055 -14h8q-127 -121 -205 -197.5t-190.5 -191.5t-185.5 -199.5t-162 -196.5t-150.5 -209.5t-120.5 -211.5t-100 -228h-248z" glyph-name="seven" horiz-adv-x="1130" unicode="7"/>
<glyph d="M23 346q20 91 92.5 165.5t175 122t211.5 76.5t221 40q-77 8 -146.5 26t-132.5 49.5t-106 72t-61 98t-3 124.5q25 109 118.5 186t222.5 111.5t282 34.5q114 0 206.5 -20.5t159 -60t95.5 -104t10 -147.5t-82 -151t-152.5 -111.5t-186.5 -70t-199 -37.5q84 -8 162.5 -27.5 t151 -53.5t122.5 -78.5t72 -108t4 -136.5q-27 -119 -132.5 -203t-251.5 -122.5t-319 -38.5q-102 0 -190 14t-159 43.5t-117.5 72t-65 102.5t-2.5 132zM247 248.5q0 -51.5 21.5 -98t56.5 -82.5t95.5 -57t138.5 -21q96 0 180 32t142 85t96 115.5t53 129.5q37 156 -40 257.5 t-259 129.5q-191 -28 -314.5 -129.5t-160.5 -257.5q-9 -52 -9 -103.5zM483 1120q-34 -144 29.5 -241.5t224.5 -118.5q171 21 279.5 118.5t142.5 241.5q8 44 8 89t-19.5 87.5t-49.5 75t-83 52.5t-120 20q-83 0 -157 -30t-124.5 -78t-84 -103.5t-46.5 -112.5z" glyph-name="eight" horiz-adv-x="1359" unicode="8"/>
<glyph d="M70 -53l2 8q110 3 217 25q147 26 266.5 83t203.5 133.5t149 179t105.5 209t69.5 234.5q17 73 25 125q-52 -187 -204 -297t-351 -110q-221 0 -330.5 120.5t-62.5 327.5t239.5 337t450.5 130q174 0 295 -76t168.5 -221.5t3.5 -337.5q-37 -159 -123 -299t-214 -252 t-304 -189.5t-383 -107.5q-115 -19 -223 -22zM385 1010q-44 -196 23.5 -311t226.5 -115q106 0 204.5 47.5t175 145.5t101.5 229q50 438 -268 438q-173 0 -296 -119.5t-167 -314.5z" glyph-name="nine" horiz-adv-x="1318" unicode="9"/>
<glyph d="M2 121q12 55 59 94t103 39q54 0 82.5 -39t15.5 -94q-12 -55 -59 -93t-101 -38q-56 0 -84.5 38t-15.5 93zM145 743q12 56 59.5 95t102.5 39q54 0 83 -39.5t16 -94.5q-12 -55 -59 -93t-101 -38q-56 0 -85 38t-16 93z" glyph-name="colon" horiz-adv-x="444" unicode=":"/>
<glyph d="M-55 -291q66 51 114.5 136t70 158.5t30.5 146.5h153q-11 -71 -35.5 -134.5t-66.5 -124.5t-109 -109.5t-153 -76.5zM219 743q12 56 59.5 95t102.5 39q54 0 83 -39t17 -95q-14 -56 -60.5 -93.5t-101.5 -37.5q-56 0 -84.5 38t-15.5 93z" glyph-name="semicolon" horiz-adv-x="520" unicode=";"/>
<glyph d="M94 522l606 492l5 -8l-596 -484l372 -483l-8 -8z" glyph-name="less" horiz-adv-x="679" unicode="&lt;"/>
<glyph d="M78 449l4 20h899l-4 -20h-899zM98 547l6 20h902l-7 -20h-901z" glyph-name="equal" horiz-adv-x="1083" unicode="="/>
<glyph d="M0 39l594 483l-371 484l8 8l377 -492l-604 -491z" glyph-name="greater" horiz-adv-x="712" unicode="&gt;"/>
<glyph d="M209 1065q-17 70 18.5 136.5t103.5 123.5t176.5 92t231.5 35q250 0 355 -93t65 -267q-15 -63 -44 -112.5t-91.5 -101t-105.5 -80t-149 -93.5q-7 -5 -11 -7q-195 -119 -282 -187t-97 -132h-8q-6 37 -6.5 70.5t5.5 63.5t15 57t25.5 53t33.5 47.5t43.5 45t50.5 43t58 42.5 t63 41t70 43q62 40 101.5 68t86 68.5t75 84.5t40.5 92q24 114 -40 180t-228 66q-93 1 -172 -30.5t-132 -83t-90 -118t-53.5 -135.5t-15.5 -137h-6q-69 55 -86 125zM217 121q12 55 59 94t103 39q54 0 82.5 -39t15.5 -94q-12 -55 -59 -93t-101 -38q-56 0 -84.5 38t-15.5 93z " glyph-name="question" horiz-adv-x="1079" unicode="?"/>
<glyph d="M61 512q42 181 193.5 323.5t370 218.5t462.5 76q165 0 302 -45t227 -124.5t126.5 -196t4.5 -252.5q-34 -149 -146.5 -264.5t-252.5 -161.5q-43 -14 -84 -16t-75 9t-56.5 35.5t-30.5 63.5t4 94l127 531q108 15 201 88l-148 -619q-43 -184 66 -184q45 16 80.5 52.5 t62.5 95.5t46 121.5t40 154.5q41 180 -0.5 315.5t-172 214t-337.5 78.5q-197 0 -371 -77.5t-294 -216t-160 -314.5q-72 -312 92 -501t520 -201l-4 -11q-207 6 -371.5 59.5t-270 144.5t-146.5 222t-5 287zM410 483q42 184 181 299t314 115q85 0 144.5 -32.5t87 -88.5 t33 -131.5t-16.5 -161.5q-19 -81 -57 -154t-92.5 -131.5t-129.5 -93t-159 -34.5q-170 0 -258 115t-47 298zM600 483q-41 -178 10.5 -283.5t161.5 -105.5q120 0 226.5 107.5t146.5 281.5q43 183 -13.5 285t-179.5 102q-110 0 -211 -105t-141 -282z" glyph-name="at" horiz-adv-x="1808" unicode="@"/>
<glyph d="M-84 0l1077 1454l383 -1454h-237l-131 532l-682 -2q-225 -335 -225 -511q0 -10 1 -19h-186zM334 543l672 2l-172 676q-377 -495 -500 -678z" glyph-name="A" unicode="A"/>
<glyph d="M-27 0l332 1434h633q286 0 422 -88q105 -68 105 -189q0 -36 -9 -76q-18 -81 -79 -146t-150.5 -106.5t-194 -65.5t-221.5 -32q101 -3 186 -15t162.5 -38.5t126.5 -65.5q50 -40 72 -100q13 -34 14 -74q0 -30 -8 -63q-90 -375 -713 -375h-678zM195 8h407q214 0 354 95.5 t181 271.5q11 48 11 90q0 110 -76 174q-104 88 -343 88h-369zM362 735h349q205 0 349.5 91.5t184.5 263.5q12 54 12 99q1 99 -59 155q-86 80 -301 81h-375z" glyph-name="B" horiz-adv-x="1425" unicode="B"/>
<glyph d="M110 350q-23 83 -23 177q0 96 24 202q36 154 119 287t199.5 229.5t268 151.5t316.5 55q114 0 206 -26.5t150 -70.5q58 -45 90 -103q33 -59 32 -123q0 -62 -29 -125q-30 -65 -89 -121h-8q10 56 10 113v19q-2 67 -11.5 129t-38 117t-68.5 95.5t-103.5 64t-142.5 23.5 q-122 0 -234 -54.5t-196 -146t-144.5 -206.5t-89.5 -240q-23 -108 -23 -203.5t30.5 -175t84 -136.5t138.5 -89t194 -33q165 0 323.5 79t284.5 236h9q-271 -491 -742 -491q-211 0 -350.5 99t-186.5 267z" glyph-name="C" horiz-adv-x="1447" unicode="C"/>
<glyph d="M-27 0l332 1434h512q185 0 331 -49.5t238 -142.5q94 -92 128 -226q16 -63 16 -133q0 -79 -21 -168q-50 -216 -199.5 -379.5t-363.5 -249.5t-461 -86h-512zM195 8h292q291 0 499.5 189t285.5 518q29 127 29 233q-1 172 -75 288q-120 190 -411 189h-293z" glyph-name="D" horiz-adv-x="1536" unicode="D"/>
<glyph d="M-27 0l332 1434l1118 4l-65 -281q-35 67 -98.5 116t-139 77.5t-178 46t-200 23t-220.5 5.5l-155 -671q522 12 802 92l-43 -189q-237 79 -759 91l-172 -740q344 5 585.5 75t405.5 234l-74 -317h-1139z" glyph-name="E" horiz-adv-x="1288" unicode="E"/>
<glyph d="M-27 0l332 1434l1118 4l-65 -281q-35 67 -98.5 116t-139 77.5t-178 46t-200 23t-220.5 5.5l-155 -671q522 12 802 92l-43 -189q-237 79 -759 91l-174 -748h-220z" glyph-name="F" horiz-adv-x="1241" unicode="F"/>
<glyph d="M88 490v26q0 101 23 213q36 154 119 287t199.5 229.5t268 151.5t316.5 55q133 0 236 -33t159 -88.5t77 -123.5q9 -30 9 -61q0 -40 -15 -82q-26 -75 -94 -142h-8q10 42 10 89q0 12 -1 23q-3 60 -13.5 118t-40 111t-70 93t-104.5 64t-143 24q-123 0 -236 -53.5t-197 -143.5 t-144 -203.5t-89 -238.5q-22 -108 -23 -205v-6q0 -94 30 -173q31 -82 84.5 -141.5t140.5 -93t198 -34.5q251 11 434 167t252 422q-184 -8 -401.5 -50t-323.5 -116l41 181q458 -4 691 -4h6q-57 -227 -176 -400t-286 -270t-360 -98q-130 0 -235.5 37t-175 103.5t-112 159.5 t-46.5 206z" glyph-name="G" horiz-adv-x="1484" unicode="G"/>
<glyph d="M-27 0l332 1434h219l-157 -678h852l157 678h221l-331 -1434h-222l173 745h-852l-172 -745h-220z" glyph-name="H" horiz-adv-x="1474" unicode="H"/>
<glyph d="M-27 0l332 1434h219l-331 -1434h-220z" glyph-name="I" horiz-adv-x="403" unicode="I"/>
<glyph d="M6 430h10q23 -121 136.5 -194.5t277.5 -73.5q172 0 287.5 93t152.5 257l213 922h222l-220 -953q-57 -237 -221.5 -368t-398.5 -131q-222 0 -345 117q-115 108 -115 299q0 16 1 32z" glyph-name="J" horiz-adv-x="1183" unicode="J"/>
<glyph d="M-27 0l332 1434h219l-155 -672l884 672h334l-1212 -678q713 -301 911 -756h-278q-146 486 -643 748l-172 -748h-220z" glyph-name="K" horiz-adv-x="1425" unicode="K"/>
<glyph d="M-27 0l332 1434h219l-329 -1426q342 5 578 74.5t401 234.5l-76 -317h-1125z" glyph-name="L" horiz-adv-x="1251" unicode="L"/>
<glyph d="M-27 0l332 1434h250l369 -914l-45 -67l755 981h228l-332 -1434h-221l329 1421l-876 -1142l-447 1144q-78 -334 -118.5 -536t-60.5 -372q-15 -126 -15 -221q0 -33 2 -62q7 -113 37 -232h-187z" glyph-name="M" horiz-adv-x="1738" unicode="M"/>
<glyph d="M-27 0l332 1434h275l686 -1106l256 1106h14l-332 -1434h-14l-875 1421q-78 -334 -118.5 -535t-60.5 -371q-15 -126 -15 -221q0 -33 2 -62q7 -113 37 -232h-187z" glyph-name="N" horiz-adv-x="1413" unicode="N"/>
<glyph d="M99 415q-12 58 -12 121q0 85 22 179q50 217 191.5 387t333 260t396.5 90q154 0 279.5 -52.5t205.5 -149t109 -232.5q12 -58 13 -122q0 -86 -23 -181q-37 -161 -129.5 -299.5t-216.5 -232.5t-274 -147.5t-304 -53.5q-153 0 -278 52.5t-204.5 149t-108.5 231.5zM315 428 q7 -132 49 -229.5t126.5 -153t201.5 -55.5q156 0 296.5 95.5t240 259.5t147.5 370q28 124 30 235q0 11 1 21q1 99 -21 180q-24 90 -70.5 156t-120 101.5t-167.5 35.5q-155 0 -295.5 -95.5t-240 -260.5t-146.5 -373q-32 -131 -32 -246q0 -20 1 -41z" glyph-name="O" horiz-adv-x="1628" unicode="O"/>
<glyph d="M-27 0l332 1434h668q121 0 218 -23.5t167 -70.5q69 -48 97 -126q15 -43 15 -93q0 -41 -10 -87q-23 -102 -86.5 -180.5t-155.5 -125t-200.5 -70t-229.5 -23.5h-448l-147 -635h-220zM342 643h354q211 0 354 106t185 285q14 62 14 115q1 102 -51 171q-78 105 -270 105h-406z " glyph-name="P" horiz-adv-x="1376" unicode="P"/>
<glyph d="M99 415q-12 58 -12 121q0 84 22 179q50 217 191.5 387t333 260t396.5 90q154 0 279.5 -52.5t205.5 -149t109 -232.5q12 -58 12 -122q0 -85 -22 -181q-34 -147 -114 -275.5t-189 -221t-240.5 -152.5t-271.5 -78q191 -7 317 -45.5t176 -100.5q43 -53 43 -116q0 -12 -1 -24 q-9 -77 -77 -165h-8q-15 72 -40.5 134t-69 121t-101 100t-139.5 66q-79 24 -172 24h-8h-29q-153 0 -278 52.5t-204.5 149t-108.5 231.5zM315 428q7 -133 49 -230t126.5 -152.5t201.5 -55.5q156 0 296.5 95.5t240 259.5t147.5 370q28 124 30 235q1 11 1 21q0 99 -21 180 q-24 90 -70.5 156t-120 101.5t-167.5 35.5q-155 0 -295.5 -95.5t-240 -260.5t-146.5 -373q-32 -131 -32 -246q0 -21 1 -41z" glyph-name="Q" horiz-adv-x="1636" unicode="Q"/>
<glyph d="M-27 0l332 1434h635q291 0 427 -87q106 -68 105 -188q0 -35 -8 -74q-19 -81 -75.5 -144t-140 -103.5t-181.5 -63.5t-213 -31q128 -5 212 -28t132 -69q46 -45 62 -108q9 -38 10 -87q0 -32 -4 -68q-14 -149 -14 -247q0 -90 12 -136h-242q-5 26 -5 84q0 101 15 299 q5 50 5 94q0 29 -2 55q-6 66 -30 111t-79 68.5t-144 23.5l-420 2l-169 -737h-220zM365 745h348q210 0 349.5 86.5t176.5 253.5q12 54 12 99q0 96 -56 155q-83 86 -273 86h-400z" glyph-name="R" horiz-adv-x="1441" unicode="R"/>
<glyph d="M22 236q-5 20 -5 42q1 39 17 83q26 69 95 141h8q-1 -14 0 -28q0 -54 11 -108q15 -70 52 -138t91 -121.5t137 -86.5q81 -32 176 -32h6h6q204 0 340 73q138 74 166 197q8 37 8 69q0 94 -71 149q-64 49 -236 97q-5 1 -110 29q-222 62 -311 105q-179 85 -201 220q-3 21 -3 43 q0 37 9 79q25 108 95 188.5t167 126t203.5 67t220.5 21.5q136 0 244.5 -30t172.5 -82t90 -118q14 -35 14 -72q0 -33 -11 -68q-23 -75 -92 -146h-8q4 41 4 84q-1 5 -1 11q0 49 -13.5 98.5t-33 95.5t-55 86t-78.5 70t-103.5 46.5t-131.5 16.5h-5q-200 0 -336 -74 q-137 -75 -167 -201q-6 -26 -6 -50q0 -93 94 -152q72 -46 264 -100q12 -3 38 -10q25 -7 38 -11q206 -57 270 -82q168 -65 213 -169q21 -46 20 -103q0 -43 -11 -93q-26 -110 -99.5 -194t-174 -131.5t-206.5 -70.5t-213 -23q-118 0 -220 18.5t-179 51t-125.5 81.5t-63.5 105z " glyph-name="S" horiz-adv-x="1376" unicode="S"/>
<glyph d="M184 1157l66 277h602l-2 -9q-210 -3 -366.5 -69t-299.5 -199zM520 0l332 1434h821l-63 -277q-85 129 -210 197t-331 71l-330 -1425h-219z" glyph-name="T" horiz-adv-x="1497" unicode="T"/>
<glyph d="M69 297q-4 29 -4 61q0 77 23 168l211 908h219l-217 -938q-19 -80 -24 -150l-2 -38q1 -50 11 -99q14 -67 48.5 -114t103 -75.5t166.5 -29.5q530 0 639 506l217 938h13l-216 -934q-27 -120 -74.5 -212t-124.5 -162.5t-192 -107t-264 -36.5q-173 1 -289 38t-173.5 106.5 t-70.5 170.5z" glyph-name="U" horiz-adv-x="1345" unicode="U"/>
<glyph d="M244 1434h237l295 -1213q305 432 402 584q200 314 241 507q13 64 13 122h198l-1012 -1454z" glyph-name="V" horiz-adv-x="1449" unicode="V"/>
<glyph d="M238 1434h237l254 -1160l787 1160h12l256 -1170l776 1170h12l-956 -1452l-264 1192l-811 -1192z" glyph-name="W" horiz-adv-x="2383" unicode="W"/>
<glyph d="M-92 -14l725 684l-371 764h256l291 -598l635 598h18l-647 -611l404 -829h-256l-324 665l-715 -673h-16z" glyph-name="X" horiz-adv-x="1363" unicode="X"/>
<glyph d="M238 1434h260l385 -766l729 766h16l-743 -779l-150 -655h-221l141 604z" glyph-name="Y" horiz-adv-x="1439" unicode="Y"/>
<glyph d="M-41 0l1258 1425q-373 -3 -587.5 -63t-385.5 -201l63 275l1163 -2l-1257 -1426q169 3 286.5 11t230 27.5t198.5 54t168.5 87.5t163.5 131l-74 -319h-1227z" glyph-name="Z" horiz-adv-x="1372" unicode="Z"/>
<glyph d="M-80 -236l399 1731h469l-2 -8h-262l-397 -1723h-207zM127 -236l2 9h262l-2 -9h-262z" glyph-name="bracketleft" horiz-adv-x="561" unicode="["/>
<glyph d="M233 1454h25l336 -1474h-25z" glyph-name="backslash" horiz-adv-x="731" unicode="\"/>
<glyph d="M-172 -236l2 9h262l397 1722h207l-399 -1731h-469zM225 1487l2 8h262l-2 -8h-262z" glyph-name="bracketright" horiz-adv-x="501" unicode="]"/>
<glyph d="M141 721l674 711v2l12 10l9 -10l-2 -2l342 -715l-13 -10l-342 712l-674 -708z" glyph-name="asciicircum" horiz-adv-x="1218" unicode="^"/>
<glyph d="M-35 -162l33 150h987l-33 -150h-987z" glyph-name="underscore" horiz-adv-x="1226" unicode="_"/>
<glyph d="M270 1288h213q14 -147 80 -264h-14q-151 92 -279 264z" glyph-name="grave" horiz-adv-x="534" unicode="`"/>
<glyph d="M38 325v8q0 71 17 148q60 222 229 362t404 140q102 0 166 -46t90 -126l12 49q118 19 232 107q-59 -257 -76 -324q-6 -30 -41 -178l-53 -229q-16 -61 -16 -107q0 -39 12 -67q26 -59 118 -58h3l-2 -4q-84 -20 -148 -20q-81 0 -130 32q-62 41 -62 137q0 39 10 87l16 71 q-62 -142 -176.5 -233.5t-269.5 -91.5q-76 0 -139 26t-104 71.5t-66 108.5t-26 137zM264 314q10 -96 68.5 -155.5t156.5 -60.5q73 0 136 29t106 76.5t71.5 102t41.5 112.5l14 61l14 64q18 84 19 158v8q-1 69 -17 128q-18 62 -64 98t-118 36q-140 0 -254.5 -124t-161.5 -315 q-16 -84 -16 -155q1 -33 4 -63z" glyph-name="a" horiz-adv-x="1249" unicode="a"/>
<glyph d="M-27 0l314 1356q125 18 239 106l-200 -868q65 177 192.5 284t304.5 107q212 1 316 -139q70 -94 70 -225q0 -64 -17 -138q-52 -221 -223.5 -361t-376.5 -140q-89 0 -155 31.5t-102.5 87.5t-50.5 126q-10 47 -10 100q0 25 2 52l-88 -379h-215zM303 483q-21 -88 -21 -162 q0 -103 40 -177q70 -130 215 -130q134 0 255.5 127t170.5 342q22 94 22 171q1 44 -7 82q-20 104 -79.5 160t-146.5 56q-148 0 -273 -123.5t-176 -345.5z" glyph-name="b" horiz-adv-x="1259" unicode="b"/>
<glyph d="M55 481q49 218 235 360t453 142q106 0 185.5 -22.5t121.5 -60.5t56 -84q6 -20 6 -41q0 -29 -10 -57q-20 -50 -68 -95h-6q1 18 1 36q-1 27 -3 53q-4 44 -22 93t-48.5 85.5t-85 60.5t-127.5 24q-89 -1 -167.5 -35t-135.5 -92t-97.5 -131.5t-59.5 -157.5q-15 -67 -15 -124 q0 -105 52 -177q81 -112 276 -113q140 0 259.5 54t205.5 153h12q-101 -169 -259 -269.5t-351 -100.5q-233 0 -345 142q-78 98 -78 232q0 59 15 125z" glyph-name="c" horiz-adv-x="1150" unicode="c"/>
<glyph d="M61 483q52 223 220 362.5t381 139.5q174 0 252 -104q67 -89 67 -229q0 -23 -2 -48l174 752q126 18 240 106l-338 -1462h-215l86 369q-68 -169 -197 -278t-299 -109q-205 0 -312 140q-73 95 -73 228q0 63 16 133zM291 483q-23 -97 -23 -175q0 -97 34 -167 q62 -127 198 -127q138 0 263 119.5t181 315.5l17 71q13 71 13 131q0 113 -46 187q-70 114 -211 114q-134 0 -255.5 -127.5t-170.5 -341.5z" glyph-name="d" horiz-adv-x="1265" unicode="d"/>
<glyph d="M55 481q49 213 232.5 357.5t437.5 144.5q77 0 140.5 -16.5t107.5 -45.5t76 -69.5t46 -87.5q13 -47 17 -100q1 -11 1 -21q0 -43 -11 -86h-2l2 -4h-821q-13 -62 -13 -115q0 -108 55 -182q82 -110 273 -111q138 0 259.5 55.5t197.5 151.5h12q-99 -161 -255.5 -265.5 t-348.5 -104.5q-232 0 -344 143q-77 99 -77 231q0 59 15 125zM283 563h639q16 68 16 131v24q-4 74 -25.5 130t-72.5 89.5t-125 33.5q-157 0 -273 -116t-159 -292z" glyph-name="e" horiz-adv-x="1146" unicode="e"/>
<glyph d="M20 -410l316 1360h-232l2 6h230l24 103q46 197 175 295t374 98q104 0 179.5 -23t111 -61.5t44.5 -85.5q3 -13 3 -26q0 -34 -17 -70q-23 -50 -71 -94h-6q3 21 3 44q0 14 -1 28q-3 40 -8.5 79t-23.5 76t-43.5 65t-69.5 45t-101 17q-50 0 -92 -12.5t-71 -31t-54 -49.5 t-40 -57t-29 -66t-20 -63.5t-15 -62.5l-35 -148h6l561 15l-30 -137l-533 116h-4l-315 -1360h-218z" glyph-name="f" horiz-adv-x="1114" unicode="f"/>
<glyph d="M-20 -188q9 40 35.5 72t62 52t84.5 34.5t95.5 21.5t102.5 12l2 -4q-73 -13 -120.5 -62.5t-63.5 -119.5q-5 -21 -5 -40q0 -69 63 -118q79 -63 219 -63q156 0 262 57t129 153q5 22 5 42q0 71 -63 112q-81 53 -239 68q-285 28 -356 41q-144 27 -176 86q-12 22 -12 51 q0 18 5 39q35 144 271 178q-104 66 -104 174q0 28 7 59q18 80 77 144.5t140.5 103t173 58.5t183.5 20h10l2 2q139 1 288 108t220 246h6q6 -29 6 -57q0 -48 -20 -91q-32 -67 -101 -110t-159 -68.5t-193 -31.5q85 -6 157 -29t126 -61.5t78 -98.5q13 -36 13 -75q0 -29 -7 -60 q-18 -80 -76 -141.5t-140 -97t-172 -53t-184 -17.5q-203 0 -325 74q-143 -32 -162 -105q-1 -5 -1 -9q0 -28 44 -44q62 -23 356 -52q38 -3 97 -9q241 -25 351 -104q84 -61 84 -156q0 -27 -7 -58q-15 -64 -60.5 -115.5t-107.5 -84t-138 -55t-148 -31.5t-142 -9q-86 0 -167 10 t-160 33t-120 69q-30 34 -30 77q0 16 4 33zM393 570v-13q0 -34 9 -69q10 -40 33.5 -69t69 -47t109.5 -18q79 0 142.5 26.5t103.5 72t65 96t38 108.5q11 46 13 89v14q0 35 -8 71q-10 43 -33.5 74.5t-69 51.5t-109.5 20q-78 0 -141.5 -29t-104 -78t-65.5 -101.5t-39 -111.5 q-11 -46 -13 -87z" glyph-name="g" horiz-adv-x="1245" unicode="g"/>
<glyph d="M-27 0l316 1366q121 17 241 107l-198 -857q68 171 202.5 270t319.5 99q176 0 244 -93q43 -59 43 -151q0 -54 -15 -120l-143 -621h-217l156 672q15 65 15 114q-1 58 -21 95q-38 69 -154 69q-135 0 -262 -106.5t-187 -304.5l-125 -539h-215z" glyph-name="h" horiz-adv-x="1189" unicode="h"/>
<glyph d="M2 0l201 866q124 21 239 107l-225 -973h-215zM260 1243q12 52 59.5 87.5t106.5 35.5q60 0 92 -36q23 -26 23 -60q0 -13 -4 -27q-12 -53 -60 -89t-108 -36q-57 0 -89 36q-23 26 -23 61q0 13 3 28z" glyph-name="i" horiz-adv-x="456" unicode="i"/>
<glyph d="M-516 -127h12q45 -168 221 -168q98 0 165 60.5t93 171.5l215 931q111 16 242 105l-246 -1061q-38 -163 -141.5 -254.5t-273.5 -91.5q-272 0 -287 307zM240 1243q12 51 60.5 87t107.5 36q58 0 89 -36q22 -26 22 -60q0 -13 -3 -27q-12 -53 -59.5 -89t-106.5 -36t-90 36 q-23 27 -23 62q0 13 3 27z" glyph-name="j" horiz-adv-x="415" unicode="j"/>
<glyph d="M-27 0l310 1339q126 21 241 107l-207 -891l557 401h316l-868 -411q490 -259 688 -545h-279q-137 330 -418 537l-125 -537h-215z" glyph-name="k" horiz-adv-x="1146" unicode="k"/>
<glyph d="M-27 0l316 1366q121 17 241 107l-342 -1473h-215z" glyph-name="l" horiz-adv-x="399" unicode="l"/>
<glyph d="M-27 0l201 866q129 22 240 107l-78 -340q133 352 463 352q181 0 245 -88q39 -54 39 -142q0 -55 -16 -124l-6 -23q134 377 473 377q180 0 244 -88q39 -54 40 -142q0 -55 -16 -124l-145 -631h-230l168 723q11 47 11 85q0 52 -21 85q-36 57 -147 57q-133 0 -242.5 -120.5 t-161.5 -346.5h-2l-110 -483h-230l168 723q11 47 11 84q1 52 -21 86q-36 57 -148 57q-123 0 -227.5 -106t-161.5 -305l-125 -539h-215z" glyph-name="m" horiz-adv-x="1865" unicode="m"/>
<glyph d="M-27 0l201 866q129 22 240 107l-84 -361q70 174 204 273.5t320 99.5q176 0 244 -93q43 -59 43 -151q0 -54 -15 -120l-143 -621h-217l156 672q15 65 15 114q-1 58 -21 95q-38 69 -154 69q-86 0 -172 -44t-163 -141.5t-116 -232.5l-123 -532h-215z" glyph-name="n" horiz-adv-x="1189" unicode="n"/>
<glyph d="M52 277q-11 43 -11 90q0 54 14 114q33 147 135 262.5t245.5 177.5t301.5 62q118 0 214 -36t157 -102q60 -67 84 -159q11 -44 12 -92q0 -54 -14 -113q-34 -146 -136.5 -261t-246 -176.5t-301.5 -61.5q-118 0 -214 36t-156 101.5t-84 157.5zM293 481q-28 -117 -27 -207 q0 -94 30 -158q60 -126 212.5 -126t270.5 125.5t175 365.5q26 115 26 203q0 98 -32 165q-60 126 -213 126t-270.5 -126t-171.5 -368z" glyph-name="o" horiz-adv-x="1257" unicode="o"/>
<glyph d="M-121 -410l295 1276q129 22 240 107l-86 -377q65 176 192 282.5t303 106.5q212 0 316 -139q70 -94 70 -225q0 -65 -17 -138q-52 -221 -223.5 -361t-376.5 -140q-89 0 -154.5 31.5t-102 86.5t-51.5 125q-10 48 -10 101q0 25 2 51l-182 -787h-215zM303 483 q-21 -88 -21 -162q0 -102 40 -177q70 -130 215 -130q134 0 255.5 127t170.5 342q22 94 22 171q0 43 -7 82q-20 104 -79.5 160t-146.5 56q-148 0 -273 -123.5t-176 -345.5z" glyph-name="p" horiz-adv-x="1259" unicode="p"/>
<glyph d="M61 483q52 223 220 362.5t381 139.5q171 0 250 -101q68 -89 68 -229q0 -20 -1 -41l84 359q73 -86 192 -107l-294 -1276h-218l179 770q-67 -166 -195.5 -272t-296.5 -106q-205 0 -312 140q-73 95 -73 228q0 63 16 133zM291 483q-23 -97 -23 -175q0 -97 34 -167 q63 -127 198 -127q134 0 255.5 112t180.5 298l29 123q9 58 9 107q0 118 -50 192q-70 106 -207 106q-134 0 -255.5 -127.5t-170.5 -341.5z" glyph-name="q" horiz-adv-x="1269" unicode="q"/>
<glyph d="M-27 0l201 866q129 22 240 107l-105 -453q24 72 52.5 135t69.5 124.5t88 105.5t109 71t130 27q96 0 154 -41q56 -42 68 -103q4 -19 4 -38q0 -45 -18 -95q-26 -72 -87 -131h-7q10 49 14 97q1 18 1 37q0 31 -4 64q-6 52 -23.5 90.5t-54.5 63.5t-90 25h-3q-79 0 -150 -48 q-72 -48 -124.5 -129t-89 -167t-61.5 -180l-99 -428h-215z" glyph-name="r" horiz-adv-x="964" unicode="r"/>
<glyph d="M-4 230q16 54 74 110h6q-1 -13 -1 -27q0 -31 6 -63q9 -46 35 -93.5t66 -85t103 -61.5q60 -23 135 -22h6h7q165 0 263 46q100 47 119 126q7 31 -3.5 56t-31.5 42.5t-59.5 33.5t-75.5 27t-90 26q-12 3 -19 5t-17 5t-19 5q-37 9 -66.5 17.5t-63 19t-59 21.5t-52.5 24.5 t-46.5 28.5t-37.5 33t-29 38.5t-18 44t-6.5 51t7.5 58.5q21 90 99.5 157t182 98.5t216.5 31.5q107 0 190 -21t129.5 -56.5t64.5 -79.5q9 -23 9 -47q0 -22 -8 -46q-16 -49 -64 -94h-6q5 23 5 47q0 12 -1 25q-4 38 -13 75.5t-33.5 72t-58 60.5t-86.5 41t-118 15h-6 q-167 -1 -263 -51q-98 -52 -114 -127q-7 -29 5.5 -53t34.5 -41t67 -34.5t84.5 -30t105.5 -30.5q28 -8 43 -12q44 -12 74 -20.5t67 -21t61.5 -23.5t52 -26.5t43.5 -31.5t31 -37t21 -44.5t6 -53t-8 -62.5q-22 -96 -101.5 -165t-186 -100t-228.5 -31q-106 0 -194 19t-144 53.5 t-82 78.5q-16 27 -15 59q-1 19 5 40z" glyph-name="s" horiz-adv-x="1064" unicode="s"/>
<glyph d="M90 887l2 6q86 14 168 61t140.5 109t99 127t55.5 121h6q42 -39 44 -97q0 -4 1 -8q0 -53 -33 -100q-61 -125 -346 -195l817 111l-30 -137l-449 65l-141 -616q-12 -51 -12 -89q0 -51 21 -77q37 -48 140 -47q97 0 186.5 50t153.5 140h11q-42 -71 -84 -124.5t-98.5 -102.5 t-128 -75.5t-154.5 -26.5h-2q-174 0 -233 81q-36 49 -36 129q0 51 15 115l141 611l84 14z" glyph-name="t" horiz-adv-x="1021" unicode="t"/>
<glyph d="M43 317l127 543q126 20 240 107l-166 -727q-11 -46 -11 -82q0 -60 29 -92q46 -52 160 -52q64 0 130 29.5t127 85t111.5 145t77.5 199.5l90 387q127 21 242 107l-223 -967h-217l84 362q-69 -175 -202 -277.5t-308 -102.5q-186 0 -258 78q-46 51 -47 144q0 50 14 113z" glyph-name="u" horiz-adv-x="1185" unicode="u"/>
<glyph d="M129 956h238l211 -747l546 747h13l-715 -979z" glyph-name="v" horiz-adv-x="1060" unicode="v"/>
<glyph d="M133 956h238l219 -739l530 739h13l204 -741l545 741h14l-718 -976l-213 743l-533 -743z" glyph-name="w" horiz-adv-x="1824" unicode="w"/>
<glyph d="M-94 0l536 428l-311 528h250l231 -393l492 393h18l-506 -403l326 -553h-250l-246 418l-522 -418h-18z" glyph-name="x" horiz-adv-x="1085" unicode="x"/>
<glyph d="M-35 -410l438 398l-284 968h233l213 -737l533 737h14l-706 -979l-244 -387h-197z" glyph-name="y" horiz-adv-x="1034" unicode="y"/>
<glyph d="M-82 0l889 950l-651 -20l8 35l885 -9l-875 -950l682 29l-8 -35h-930z" glyph-name="z" horiz-adv-x="997" unicode="z"/>
<glyph d="M61 25l138 462q27 116 -70 140h-41l2 8h43q109 23 131 137l76 463q60 260 309 260h258l-2 -8h-137q-90 -1 -139.5 -51.5t-73.5 -153.5l-84 -510q-11 -50 -52 -95.5t-97 -45.5q56 -1 76 -47.5t8 -96.5l-152 -510q-24 -103 2.5 -153t116.5 -51h137l-2 -9h-258 q-252 0 -189 261z" glyph-name="braceleft" horiz-adv-x="679" unicode="{"/>
<glyph d="M-72 -205l377 1639h27l-377 -1639h-27z" glyph-name="bar" horiz-adv-x="210" unicode="|"/>
<glyph d="M-125 -236l2 9h137q90 1 139.5 51t73.5 153l84 510q13 51 53.5 97t96.5 47q-56 0 -75.5 45t-8.5 96l151 510q24 103 -2 153.5t-116 51.5h-138l2 8h258q251 0 191 -260l-141 -463q-5 -32 -5 -59t18 -48t54 -30h45l-2 -8h-43q-107 -25 -133 -140l-72 -462 q-63 -261 -311 -261h-258z" glyph-name="braceright" horiz-adv-x="727" unicode="}"/>
<glyph d="M254 1214h12q10 -46 34.5 -66t68.5 -20q39 0 86 26t95 51.5t91 25.5q62 0 88 -47t21 -144h-15q-9 45 -33 65.5t-69 20.5q-39 0 -86 -25.5t-95.5 -51t-91.5 -25.5q-61 0 -86 47t-20 143z" glyph-name="asciitilde" horiz-adv-x="718" unicode="~"/>
<glyph glyph-name="uni00A0" horiz-adv-x="559" unicode=" "/>
<glyph d="M-113 -410q244 579 363 1047h8q-104 -491 -121 -1047h-250zM176 881q14 55 60.5 93t101.5 38t84.5 -38.5t15.5 -92.5q-12 -55 -58.5 -94t-100.5 -39q-55 0 -85 38.5t-18 94.5z" glyph-name="exclamdown" horiz-adv-x="446" unicode="¡"/>
<glyph d="M55 481q46 205 217 345t418 155l60 266h10l-60 -266q14 2 43 2q106 0 185.5 -22.5t121.5 -60.5t56.5 -84.5t-5 -97t-67.5 -95.5h-6q3 45 -1.5 89t-22.5 93t-48.5 85.5t-85 60.5t-127.5 24q-89 -1 -167.5 -35t-135.5 -92t-97.5 -131.5t-59.5 -157.5q-44 -189 37 -301 t276 -113q140 0 259.5 54t205.5 153h12q-101 -168 -257 -268.5t-347 -101.5l-49 -218h-10l49 218q-153 1 -257.5 67t-142 179t-4.5 253z" glyph-name="cent" horiz-adv-x="1150" unicode="¢"/>
<glyph d="M37 0q236 119 291 350q7 31 10 65.5t3 57.5t-6 64.5t-8.5 55.5t-13 64t-12.5 58h-205l2 10h201q-11 58 -16 100t-4 101t14 114q11 51 38.5 102.5t83 108.5t129 100.5t187 72t248.5 28.5q118 0 211.5 -25t150.5 -67t87 -97.5t28 -115.5t-33.5 -123t-91.5 -119h-8 q11 65 13 126t-6.5 123.5t-34 113.5t-65.5 91t-104.5 62.5t-148.5 22.5q-100 0 -181.5 -29.5t-134.5 -80t-85.5 -107.5t-47.5 -121q-15 -65 -14.5 -138t8 -119t23.5 -124h665l-2 -10h-661q15 -77 21.5 -120t6.5 -111t-14 -128q-27 -110 -107.5 -197t-238.5 -151 q463 5 703 71.5t364 235.5l-72 -315h-1173z" glyph-name="sterling" horiz-adv-x="1388" unicode="£"/>
<glyph d="M29 238l252 202q-63 60 -41 154q18 89 112 151l-157 207l14 11l158 -207q83 47 188 47q79 0 135 -29l230 187l8 -11l-226 -182q46 -29 65 -74.5t7 -99.5q-28 -114 -151 -176l139 -182l-14 -11l-142 187q-69 -29 -147 -29q-108 0 -170 49l-252 -205zM371 498 q5 -48 27.5 -76.5t62.5 -28.5q57 0 110 66l-96 125zM371 514l96 80l-59 80q-21 -44 -29 -80q-10 -50 -8 -80zM416 690l65 -86l152 123q-24 66 -80 66q-76 0 -137 -103zM489 594l93 -121q37 49 53 121q15 64 2 121z" glyph-name="currency" horiz-adv-x="917" unicode="¤"/>
<glyph d="M98 430l2 10h516l39 164l-18 37h-492l2 10h484l-393 783h260l385 -766l729 766h16l-743 -779v-4h518l-2 -10h-518l-47 -201h520l-2 -10h-520l-99 -430h-221l100 430h-516z" glyph-name="yen" horiz-adv-x="1439" unicode="¥"/>
<glyph d="M-74 -205l162 697h27l-162 -697h-27zM143 737l162 697h27l-162 -697h-27z" glyph-name="brokenbar" horiz-adv-x="208" unicode="¦"/>
<glyph d="M231 1118q9 38 45 64t80 26t68.5 -26t15.5 -64q-9 -40 -46 -67t-81 -27t-67.5 27t-14.5 67zM526 1118q9 38 46 64t81 26t67.5 -26t14.5 -64q-9 -40 -45 -67t-80 -27t-68.5 27t-15.5 67z" glyph-name="dieresis" horiz-adv-x="688" unicode="¨"/>
<glyph d="M51 469q44 187 194.5 338t378.5 237t488 86q198 0 359 -50.5t262.5 -138t143 -210t9.5 -262.5q-43 -187 -197.5 -339t-387 -238.5t-496.5 -86.5q-195 0 -352 50.5t-255.5 139t-138.5 211.5t-8 263zM270 469q-43 -186 6.5 -334t187 -233.5t343.5 -85.5q213 0 395 85.5 t302 233.5t163 334t-8.5 333.5t-193.5 232.5t-355 85q-206 0 -383.5 -85t-295.5 -232.5t-161 -333.5zM449 481q49 218 234.5 360t451.5 142q106 0 186 -22.5t121.5 -60.5t56 -84.5t-4.5 -97t-67 -95.5h-6q3 45 -1.5 89t-22.5 93t-48.5 85.5t-85 60.5t-126.5 24 q-89 -1 -167.5 -35t-136 -92t-98 -131.5t-59.5 -157.5q-44 -189 37 -301t276 -113q139 0 258 54t207 153h10q-99 -169 -257 -269.5t-351 -100.5q-233 0 -346 142t-61 357z" glyph-name="copyright" horiz-adv-x="1957" unicode="©"/>
<glyph d="M94 502l649 450h11l-475 -450l266 -451h-10zM451 512l649 451h10l-475 -451l266 -451h-10z" glyph-name="guillemotleft" horiz-adv-x="1054" unicode="«"/>
<glyph d="M104 502l35 149h635l-37 -149h-633z" glyph-name="uni00AD" horiz-adv-x="847" unicode="­"/>
<glyph d="M51 469q44 187 194.5 338t378.5 237t488 86q198 0 359 -50.5t262.5 -138t143 -210t9.5 -262.5q-43 -187 -197.5 -339t-387 -238.5t-496.5 -86.5q-195 0 -352 50.5t-255.5 139t-138.5 211.5t-8 263zM270 469q-43 -186 6.5 -334t187 -233.5t343.5 -85.5q213 0 395 85.5 t302 233.5t163 334t-8.5 333.5t-193.5 232.5t-355 85q-206 0 -383.5 -85t-295.5 -232.5t-161 -333.5zM489 23l209 890h406q182 0 267 -54.5t61 -162.5q-16 -68 -76 -115t-140 -69t-180 -27q164 -4 223 -56t48 -169q-19 -169 -2 -237h-164q-8 40 8 237q5 70 2 118.5 t-37.5 74.5t-107.5 26l-261 2l-106 -458h-150zM745 485h218q130 0 211 53.5t106 157.5q49 211 -188 211h-248z" glyph-name="registered" horiz-adv-x="1957" unicode="®"/>
<glyph d="M211 1032l18 78h605l-19 -78h-604z" glyph-name="macron" horiz-adv-x="786" unicode="¯"/>
<glyph d="M231 1245q19 88 107 148.5t209 60.5q119 0 178.5 -60.5t40.5 -148.5q-22 -90 -108.5 -150.5t-206.5 -60.5q-122 0 -182 60.5t-38 150.5zM371 1245q-20 -83 2 -142t80 -59q55 0 105 59.5t69 141.5q18 80 -4.5 139.5t-77.5 59.5q-58 0 -107 -59.5t-67 -139.5z" glyph-name="degree" horiz-adv-x="657" unicode="°"/>
<glyph d="M211 1024q127 124 197 264h215q-201 -169 -398 -264h-14z" glyph-name="acute" horiz-adv-x="534" unicode="´"/>
<glyph d="M153 884.5q-16 65.5 5 149.5q24 102 87.5 180.5t155 125.5t199.5 70.5t229 23.5h668l-330 -1434h-219l146 635h-449q-96 0 -177.5 14.5t-149 45t-108.5 77.5t-57 112.5zM381 1034q-40 -180 54 -285.5t306 -105.5h355l180 782h-406q-191 0 -318 -105t-171 -286zM1382 0 l340 1473q32 -39 83 -68.5t108 -38.5l-314 -1366h-217z" glyph-name="paragraph" horiz-adv-x="1808" unicode="¶"/>
<glyph d="M92 514q12 55 59 94t103 39q54 0 83 -38.5t17 -94.5q-14 -56 -60 -93.5t-101 -37.5q-56 0 -85 38t-16 93z" glyph-name="periodcentered" horiz-adv-x="444" unicode="·"/>
<glyph d="M-121 -410l2 11q250 0 279 125q12 53 -35.5 78.5t-157.5 25.5l133 178l9 -6l-89 -139q141 0 203 -30.5t49 -94.5q-19 -75 -114.5 -111.5t-278.5 -36.5z" glyph-name="cedilla" horiz-adv-x="542" unicode="¸"/>
<glyph d="M-10 51l475 451l-268 450h10l442 -450l-649 -451h-10zM344 41l473 451l-266 450h10l440 -450l-647 -451h-10z" glyph-name="guillemotright" horiz-adv-x="1054" unicode="»"/>
<glyph d="M-14 -84q12 50 37 93.5t53 75.5t79 70t89 62t109 67q11 6 16.5 9.5t14.5 9t17 10.5q66 40 102.5 62.5t83.5 54t72 53t51 47.5t38 50.5t16 50.5h10q6 -39 6.5 -73.5t-5 -65.5t-13 -57.5t-23.5 -52.5t-31.5 -47t-40.5 -43.5t-47.5 -41t-56.5 -41t-62.5 -40t-70.5 -42.5 q-142 -91 -193 -136q-102 -88 -124 -186q-22 -94 42.5 -150t227.5 -56q91 -1 168.5 26.5t130.5 73t89.5 104t51.5 121t11 123.5h8q112 -76 91 -182q-20 -96 -138 -172q-155 -100 -376 -103h-13q-249 0 -353 84t-67 242zM629 897q14 56 60.5 94.5t101.5 38.5t84.5 -38.5 t15.5 -94.5q-12 -55 -59 -93t-101 -38q-55 0 -84.5 37.5t-17.5 93.5z" glyph-name="questiondown" horiz-adv-x="1110" unicode="¿"/>
<glyph d="M-84 0l1077 1454l383 -1454h-237l-131 532l-682 -2q-237 -353 -224 -530h-186zM334 543l672 2l-172 676q-377 -495 -500 -678zM776 1810h213q74 -142 199 -264h-14q-197 95 -398 264z" glyph-name="Agrave" unicode="À"/>
<glyph d="M-84 0l1077 1454l383 -1454h-237l-131 532l-682 -2q-237 -353 -224 -530h-186zM334 543l672 2l-172 676q-377 -495 -500 -678zM883 1546q125 123 196 264h215q-202 -170 -397 -264h-14z" glyph-name="Aacute" unicode="Á"/>
<glyph d="M-84 0l1077 1454l383 -1454h-237l-131 532l-682 -2q-237 -353 -224 -530h-186zM334 543l672 2l-172 676q-377 -495 -500 -678zM719 1546l344 264l229 -264h-16l-238 152l-305 -152h-14z" glyph-name="Acircumflex" unicode="Â"/>
<glyph d="M-84 0l1077 1454l383 -1454h-237l-131 532l-682 -2q-237 -353 -224 -530h-186zM334 543l672 2l-172 676q-377 -495 -500 -678zM780 1737h13q11 -46 34.5 -66t67.5 -20q39 0 86 25.5t95 51t91 25.5q62 0 88 -46.5t21 -143.5h-14q-9 45 -33.5 65.5t-69.5 20.5 q-31 0 -67.5 -16t-65.5 -35.5t-67 -35.5t-72 -16q-62 0 -87 47.5t-20 143.5z" glyph-name="Atilde" unicode="Ã"/>
<glyph d="M-84 0l1077 1454l383 -1454h-237l-131 532l-682 -2q-237 -353 -224 -530h-186zM334 543l672 2l-172 676q-377 -495 -500 -678zM772 1640q9 38 45 64.5t80 26.5t68.5 -26.5t15.5 -64.5q-9 -40 -46 -67t-81 -27t-67.5 27t-14.5 67zM1067 1640q9 38 46 64.5t81 26.5 t67.5 -26.5t14.5 -64.5q-9 -40 -45 -67t-80 -27t-68.5 27t-15.5 67z" glyph-name="Adieresis" unicode="Ä"/>
<glyph d="M-84 0l1077 1454l383 -1454h-237l-131 532l-682 -2q-237 -353 -224 -530h-186zM334 543l672 2l-172 676q-377 -495 -500 -678zM831 1659q12 51 73 83t151 32q89 0 135.5 -32t34.5 -83q-11 -51 -73 -83t-151 -32q-90 0 -136 32t-34 83zM940 1659q-10 -45 8 -72.5t58 -27.5 t70 27t40 73t-7.5 73t-57.5 27t-70.5 -27t-40.5 -73z" glyph-name="Aring" unicode="Å"/>
<glyph d="M-119 0l1458 1434l1125 4l-66 -281q-35 67 -98.5 116t-139 77.5t-177.5 46t-199.5 23t-220.5 5.5l-156 -671q523 12 803 92l-43 -189q-237 79 -760 91l-172 -740q344 5 585.5 75t405.5 234l-74 -317h-1138l135 582h-657l-189 -187q-216 -216 -233 -395h-189zM502 592h649 l192 833z" glyph-name="AE" horiz-adv-x="2328" unicode="Æ"/>
<glyph d="M93 439.5q-20 134.5 18 289.5q36 154 119 287t199.5 229.5t268 151.5t316.5 55q114 0 206 -26.5t150 -70.5t90 -102.5t32.5 -121t-29.5 -127.5t-89 -121h-8q12 65 10 132t-11.5 129t-38 117t-68.5 95.5t-103.5 64t-142.5 23.5q-122 0 -234 -54.5t-196 -146t-144.5 -206.5 t-89.5 -240q-23 -108 -23 -203.5t30.5 -175t84 -136.5t138.5 -89t194 -33q165 0 323.5 79t284.5 236h9q-271 -491 -742 -491h-10l-76 -121q141 0 203 -30.5t49 -94.5q-19 -75 -114.5 -111.5t-278.5 -36.5l2 11q249 0 278 125q12 53 -35 78.5t-157 25.5l115 154 q-153 4 -268.5 63t-178.5 158.5t-83 234z" glyph-name="Ccedilla" horiz-adv-x="1447" unicode="Ç"/>
<glyph d="M-27 0l332 1434l1118 4l-65 -281q-35 67 -98.5 116t-139 77.5t-178 46t-200 23t-220.5 5.5l-155 -671q522 12 802 92l-43 -189q-237 79 -759 91l-172 -740q344 5 585.5 75t405.5 234l-74 -317h-1139zM641 1810h213q74 -142 199 -264h-15q-195 94 -397 264z" glyph-name="Egrave" horiz-adv-x="1288" unicode="È"/>
<glyph d="M-27 0l332 1434l1118 4l-65 -281q-35 67 -98.5 116t-139 77.5t-178 46t-200 23t-220.5 5.5l-155 -671q522 12 802 92l-43 -189q-237 79 -759 91l-172 -740q344 5 585.5 75t405.5 234l-74 -317h-1139zM748 1546q125 123 196 264h215q-202 -170 -397 -264h-14z" glyph-name="Eacute" horiz-adv-x="1288" unicode="É"/>
<glyph d="M-27 0l332 1434l1118 4l-65 -281q-35 67 -98.5 116t-139 77.5t-178 46t-200 23t-220.5 5.5l-155 -671q522 12 802 92l-43 -189q-237 79 -759 91l-172 -740q344 5 585.5 75t405.5 234l-74 -317h-1139zM584 1546l344 264l229 -264h-16l-238 152l-305 -152h-14z" glyph-name="Ecircumflex" horiz-adv-x="1288" unicode="Ê"/>
<glyph d="M-27 0l332 1434l1118 4l-65 -281q-35 67 -98.5 116t-139 77.5t-178 46t-200 23t-220.5 5.5l-155 -671q522 12 802 92l-43 -189q-237 79 -759 91l-172 -740q344 5 585.5 75t405.5 234l-74 -317h-1139zM639 1640q9 38 45 64.5t80 26.5t68.5 -26.5t15.5 -64.5 q-9 -40 -46 -67t-81 -27t-67.5 27t-14.5 67zM934 1640q9 38 46 64.5t81 26.5t67.5 -26.5t14.5 -64.5q-9 -40 -45 -67t-80 -27t-68.5 27t-15.5 67z" glyph-name="Edieresis" horiz-adv-x="1288" unicode="Ë"/>
<glyph d="M-27 0l332 1434h219l-331 -1434h-220zM213 1810h213q74 -142 199 -264h-15q-195 94 -397 264z" glyph-name="Igrave" horiz-adv-x="403" unicode="Ì"/>
<glyph d="M-27 0l332 1434h219l-331 -1434h-220zM319 1546q127 124 197 264h215q-202 -170 -397 -264h-15z" glyph-name="Iacute" horiz-adv-x="403" unicode="Í"/>
<glyph d="M-27 0l332 1434h219l-331 -1434h-220zM156 1546l344 264l229 -264h-16l-238 152l-305 -152h-14z" glyph-name="Icircumflex" horiz-adv-x="403" unicode="Î"/>
<glyph d="M-27 0l332 1434h219l-331 -1434h-220zM209 1640q9 38 45 64.5t80 26.5t68.5 -26.5t15.5 -64.5q-9 -40 -46 -67t-81 -27t-67.5 27t-14.5 67zM504 1640q9 38 46 64.5t81 26.5t67.5 -26.5t14.5 -64.5q-9 -40 -45 -67t-80 -27t-68.5 27t-15.5 67z" glyph-name="Idieresis" horiz-adv-x="403" unicode="Ï"/>
<glyph d="M-27 0l166 713h-147l2 10h147l164 711h512q185 0 331 -49.5t238.5 -142.5t127 -226.5t-4.5 -300.5q-50 -216 -199.5 -379.5t-363.5 -249.5t-461 -86h-512zM195 8h292q291 0 499.5 189t285.5 518q75 331 -45.5 520.5t-411.5 189.5h-293l-162 -702h443l-2 -10h-443z" glyph-name="Eth" horiz-adv-x="1536" unicode="Ð"/>
<glyph d="M-27 0l332 1434h275l686 -1106l256 1106h14l-332 -1434h-14l-875 1421q-78 -334 -118.5 -535t-60.5 -371t-13 -283t37 -232h-187zM758 1737h12q11 -46 34.5 -66t67.5 -20q39 0 86 25.5t95.5 51t91.5 25.5q62 0 87.5 -46.5t20.5 -143.5h-14q-9 45 -33 65.5t-69 20.5 q-39 0 -86 -25.5t-95.5 -51.5t-91.5 -26q-61 0 -86 47t-20 144z" glyph-name="Ntilde" horiz-adv-x="1413" unicode="Ñ"/>
<glyph d="M99 415q-29 135 10 300q50 217 191.5 387t333 260t396.5 90q154 0 279.5 -52.5t205.5 -149t109 -232.5t-10 -303q-37 -161 -129.5 -299.5t-216.5 -232.5t-274 -147.5t-304 -53.5q-153 0 -278 52.5t-204.5 149t-108.5 231.5zM315 427.5q7 -132.5 49 -229.5t126.5 -152.5 t201.5 -55.5q156 0 296.5 95.5t240 259.5t147.5 370q28 124 30.5 235t-21 201t-70 156t-120 101.5t-167.5 35.5q-155 0 -295.5 -95.5t-240 -260.5t-146.5 -373q-38 -155 -31 -287.5zM825 1806h213q74 -142 199 -264h-14q-197 95 -398 264z" glyph-name="Ograve" horiz-adv-x="1628" unicode="Ò"/>
<glyph d="M99 415q-29 135 10 300q50 217 191.5 387t333 260t396.5 90q154 0 279.5 -52.5t205.5 -149t109 -232.5t-10 -303q-37 -161 -129.5 -299.5t-216.5 -232.5t-274 -147.5t-304 -53.5q-153 0 -278 52.5t-204.5 149t-108.5 231.5zM315 427.5q7 -132.5 49 -229.5t126.5 -152.5 t201.5 -55.5q156 0 296.5 95.5t240 259.5t147.5 370q28 124 30.5 235t-21 201t-70 156t-120 101.5t-167.5 35.5q-155 0 -295.5 -95.5t-240 -260.5t-146.5 -373q-38 -155 -31 -287.5zM932 1542q125 123 196 264h215q-202 -170 -397 -264h-14z" glyph-name="Oacute" horiz-adv-x="1628" unicode="Ó"/>
<glyph d="M99 415q-29 135 10 300q50 217 191.5 387t333 260t396.5 90q154 0 279.5 -52.5t205.5 -149t109 -232.5t-10 -303q-37 -161 -129.5 -299.5t-216.5 -232.5t-274 -147.5t-304 -53.5q-153 0 -278 52.5t-204.5 149t-108.5 231.5zM315 427.5q7 -132.5 49 -229.5t126.5 -152.5 t201.5 -55.5q156 0 296.5 95.5t240 259.5t147.5 370q28 124 30.5 235t-21 201t-70 156t-120 101.5t-167.5 35.5q-155 0 -295.5 -95.5t-240 -260.5t-146.5 -373q-38 -155 -31 -287.5zM768 1542l344 264l229 -264h-16l-238 152l-305 -152h-14z" glyph-name="Ocircumflex" horiz-adv-x="1628" unicode="Ô"/>
<glyph d="M99 415q-29 135 10 300q50 217 191.5 387t333 260t396.5 90q154 0 279.5 -52.5t205.5 -149t109 -232.5t-10 -303q-37 -161 -129.5 -299.5t-216.5 -232.5t-274 -147.5t-304 -53.5q-153 0 -278 52.5t-204.5 149t-108.5 231.5zM315 427.5q7 -132.5 49 -229.5t126.5 -152.5 t201.5 -55.5q156 0 296.5 95.5t240 259.5t147.5 370q28 124 30.5 235t-21 201t-70 156t-120 101.5t-167.5 35.5q-155 0 -295.5 -95.5t-240 -260.5t-146.5 -373q-38 -155 -31 -287.5zM829 1733h13q11 -46 34.5 -66t67.5 -20q39 0 86 25.5t95.5 51t91.5 25.5q62 0 87.5 -46.5 t20.5 -143.5h-14q-9 45 -33.5 65.5t-69.5 20.5q-31 0 -67.5 -16t-65.5 -35.5t-67 -35.5t-72 -16q-62 0 -87 47.5t-20 143.5z" glyph-name="Otilde" horiz-adv-x="1628" unicode="Õ"/>
<glyph d="M99 415q-29 135 10 300q50 217 191.5 387t333 260t396.5 90q154 0 279.5 -52.5t205.5 -149t109 -232.5t-10 -303q-37 -161 -129.5 -299.5t-216.5 -232.5t-274 -147.5t-304 -53.5q-153 0 -278 52.5t-204.5 149t-108.5 231.5zM315 427.5q7 -132.5 49 -229.5t126.5 -152.5 t201.5 -55.5q156 0 296.5 95.5t240 259.5t147.5 370q28 124 30.5 235t-21 201t-70 156t-120 101.5t-167.5 35.5q-155 0 -295.5 -95.5t-240 -260.5t-146.5 -373q-38 -155 -31 -287.5zM821 1636q9 38 45 64t80 26t68.5 -26t15.5 -64q-9 -40 -46 -67t-81 -27t-67.5 27t-14.5 67 zM1116 1636q9 38 46 64t81 26t67.5 -26t14.5 -64q-9 -40 -45 -67t-80 -27t-68.5 27t-15.5 67z" glyph-name="Odieresis" horiz-adv-x="1628" unicode="Ö"/>
<glyph d="M10 156l439 356l-273 358l14 11l273 -359l438 357l8 -11l-438 -356l272 -358l-14 -11l-272 359l-439 -357z" glyph-name="multiply" horiz-adv-x="917" unicode="×"/>
<glyph d="M-33 -25l244 203q-85 99 -112 233.5t10 303.5q50 217 191.5 387t333 260t396.5 90q149 0 271 -49t204 -141l232 194h14l-240 -201q85 -99 112 -234t-9 -306q-37 -161 -129.5 -299.5t-216.5 -232.5t-274 -147.5t-304 -53.5q-149 0 -271 49.5t-202 140.5l-235 -197h-15z M334 283l1050 878q-38 134 -128 208.5t-228 74.5q-155 0 -295.5 -95.5t-240 -260.5t-146.5 -373q-58 -244 -12 -432zM338 272q36 -133 126.5 -207.5t227.5 -74.5q156 0 296.5 95.5t240 259.5t147.5 370q57 254 10 436z" glyph-name="Oslash" horiz-adv-x="1628" unicode="Ø"/>
<glyph d="M69 297q-13 101 19 229l211 908h219l-217 -938q-19 -81 -24 -150.5t8.5 -136.5t48.5 -114t103.5 -75.5t166.5 -29.5q530 0 639 506l217 938h13l-216 -934q-27 -120 -74.5 -212t-124.5 -162.5t-192 -107t-264 -36.5q-173 1 -289 38t-173.5 106.5t-70.5 170.5zM713 1810 h213q75 -144 198 -264h-14q-195 94 -397 264z" glyph-name="Ugrave" horiz-adv-x="1345" unicode="Ù"/>
<glyph d="M69 297q-13 101 19 229l211 908h219l-217 -938q-19 -81 -24 -150.5t8.5 -136.5t48.5 -114t103.5 -75.5t166.5 -29.5q530 0 639 506l217 938h13l-216 -934q-27 -120 -74.5 -212t-124.5 -162.5t-192 -107t-264 -36.5q-173 1 -289 38t-173.5 106.5t-70.5 170.5zM817 1546 q127 124 197 264h215q-201 -169 -398 -264h-14z" glyph-name="Uacute" horiz-adv-x="1345" unicode="Ú"/>
<glyph d="M69 297q-13 101 19 229l211 908h219l-217 -938q-19 -81 -24 -150.5t8.5 -136.5t48.5 -114t103.5 -75.5t166.5 -29.5q530 0 639 506l217 938h13l-216 -934q-27 -120 -74.5 -212t-124.5 -162.5t-192 -107t-264 -36.5q-173 1 -289 38t-173.5 106.5t-70.5 170.5zM653 1546 l344 264l230 -264h-17l-237 152l-305 -152h-15z" glyph-name="Ucircumflex" horiz-adv-x="1345" unicode="Û"/>
<glyph d="M69 297q-13 101 19 229l211 908h219l-217 -938q-19 -81 -24 -150.5t8.5 -136.5t48.5 -114t103.5 -75.5t166.5 -29.5q530 0 639 506l217 938h13l-216 -934q-27 -120 -74.5 -212t-124.5 -162.5t-192 -107t-264 -36.5q-173 1 -289 38t-173.5 106.5t-70.5 170.5zM709 1640 q9 38 45 64.5t80 26.5t68.5 -26.5t15.5 -64.5q-9 -40 -46 -67t-81 -27t-67.5 27t-14.5 67zM1004 1640q9 38 45.5 64.5t80.5 26.5t67.5 -26.5t14.5 -64.5q-9 -40 -45 -67t-80 -27t-68 27t-15 67z" glyph-name="Udieresis" horiz-adv-x="1345" unicode="Ü"/>
<glyph d="M238 1434h260l385 -766l729 766h16l-743 -779l-150 -655h-221l141 604zM848 1546q125 123 196 264h216q-201 -169 -398 -264h-14z" glyph-name="Yacute" horiz-adv-x="1439" unicode="Ý"/>
<glyph d="M-27 0l332 1434h219l-69 -301h448q121 0 218.5 -23.5t167 -70.5t97.5 -125.5t5 -180.5t-86.5 -180.5t-155.5 -125t-200.5 -70t-229.5 -23.5h-449l-77 -334h-220zM272 342h355q211 0 353.5 106t184.5 285q41 181 -37.5 286t-269.5 105h-405z" glyph-name="Thorn" horiz-adv-x="1411" unicode="Þ"/>
<glyph d="M-121 -410l324 1409q52 219 203 336t374 117q224 0 333.5 -78.5t76.5 -228.5q-29 -126 -163.5 -209t-330.5 -98q215 -16 319 -121.5t60 -300.5q-26 -110 -87 -194t-148.5 -136t-194 -78t-229.5 -26l2 6q157 0 276.5 116.5t163.5 311.5q43 191 -22.5 304.5t-223.5 113.5 l2 6q141 0 244 84t129 198q75 324 -194 324q-137 0 -225.5 -94t-123.5 -244l-350 -1518h-215z" glyph-name="germandbls" horiz-adv-x="1138" unicode="ß"/>
<glyph d="M38 325q-1 74 17 156q60 222 229 362t404 140q102 0 166 -46t90 -126l12 49q118 19 232 107q-59 -257 -76 -324q-6 -30 -41 -178l-53 -229q-30 -114 -4 -173.5t121 -58.5l-2 -4q-190 -46 -278 12t-52 224l16 71q-62 -142 -176.5 -233.5t-269.5 -91.5q-76 0 -139 26 t-104 71.5t-66 108.5t-26 137zM263.5 314q10.5 -96 69 -155.5t156.5 -60.5q73 0 136 29t106 76.5t71.5 102t41.5 112.5l14 61l14 64q18 84 19 158t-16.5 136t-64 98t-118.5 36q-140 0 -254.5 -124t-161.5 -315q-23 -122 -12.5 -218zM498 1329h213q75 -144 198 -264h-14 q-195 94 -397 264z" glyph-name="agrave" horiz-adv-x="1249" unicode="à"/>
<glyph d="M38 325q-1 74 17 156q60 222 229 362t404 140q102 0 166 -46t90 -126l12 49q118 19 232 107q-59 -257 -76 -324q-6 -30 -41 -178l-53 -229q-30 -114 -4 -173.5t121 -58.5l-2 -4q-190 -46 -278 12t-52 224l16 71q-62 -142 -176.5 -233.5t-269.5 -91.5q-76 0 -139 26 t-104 71.5t-66 108.5t-26 137zM263.5 314q10.5 -96 69 -155.5t156.5 -60.5q73 0 136 29t106 76.5t71.5 102t41.5 112.5l14 61l14 64q18 84 19 158t-16.5 136t-64 98t-118.5 36q-140 0 -254.5 -124t-161.5 -315q-23 -122 -12.5 -218zM604 1065q127 124 197 264h215 q-201 -169 -398 -264h-14z" glyph-name="aacute" horiz-adv-x="1249" unicode="á"/>
<glyph d="M38 325q-1 74 17 156q60 222 229 362t404 140q102 0 166 -46t90 -126l12 49q118 19 232 107q-59 -257 -76 -324q-6 -30 -41 -178l-53 -229q-30 -114 -4 -173.5t121 -58.5l-2 -4q-190 -46 -278 12t-52 224l16 71q-62 -142 -176.5 -233.5t-269.5 -91.5q-76 0 -139 26 t-104 71.5t-66 108.5t-26 137zM263.5 314q10.5 -96 69 -155.5t156.5 -60.5q73 0 136 29t106 76.5t71.5 102t41.5 112.5l14 61l14 64q18 84 19 158t-16.5 136t-64 98t-118.5 36q-140 0 -254.5 -124t-161.5 -315q-23 -122 -12.5 -218zM440 1065l344 264l230 -264h-17l-237 152 l-305 -152h-15z" glyph-name="acircumflex" horiz-adv-x="1249" unicode="â"/>
<glyph d="M38 325q-1 74 17 156q60 222 229 362t404 140q102 0 166 -46t90 -126l12 49q118 19 232 107q-59 -257 -76 -324q-6 -30 -41 -178l-53 -229q-30 -114 -4 -173.5t121 -58.5l-2 -4q-190 -46 -278 12t-52 224l16 71q-62 -142 -176.5 -233.5t-269.5 -91.5q-76 0 -139 26 t-104 71.5t-66 108.5t-26 137zM263.5 314q10.5 -96 69 -155.5t156.5 -60.5q73 0 136 29t106 76.5t71.5 102t41.5 112.5l14 61l14 64q18 84 19 158t-16.5 136t-64 98t-118.5 36q-140 0 -254.5 -124t-161.5 -315q-23 -122 -12.5 -218zM502 1255h12q11 -46 34.5 -66t67.5 -20 q39 0 86 25.5t95.5 51.5t91.5 26q62 0 87.5 -47t20.5 -144h-14q-9 45 -33 65.5t-69 20.5q-39 0 -86 -25.5t-95.5 -51t-91.5 -25.5q-61 0 -86 47t-20 143z" glyph-name="atilde" horiz-adv-x="1249" unicode="ã"/>
<glyph d="M38 325q-1 74 17 156q60 222 229 362t404 140q102 0 166 -46t90 -126l12 49q118 19 232 107q-59 -257 -76 -324q-6 -30 -41 -178l-53 -229q-30 -114 -4 -173.5t121 -58.5l-2 -4q-190 -46 -278 12t-52 224l16 71q-62 -142 -176.5 -233.5t-269.5 -91.5q-76 0 -139 26 t-104 71.5t-66 108.5t-26 137zM263.5 314q10.5 -96 69 -155.5t156.5 -60.5q73 0 136 29t106 76.5t71.5 102t41.5 112.5l14 61l14 64q18 84 19 158t-16.5 136t-64 98t-118.5 36q-140 0 -254.5 -124t-161.5 -315q-23 -122 -12.5 -218zM496 1159q9 38 45 64t80 26t68.5 -26 t15.5 -64q-9 -40 -46 -67t-81 -27t-67.5 27t-14.5 67zM791 1159q9 38 46 64t81 26t67 -26t14 -64q-9 -40 -45 -67t-80 -27t-68 27t-15 67z" glyph-name="adieresis" horiz-adv-x="1249" unicode="ä"/>
<glyph d="M38 325q-1 74 17 156q60 222 229 362t404 140q102 0 166 -46t90 -126l12 49q118 19 232 107q-59 -257 -76 -324q-6 -30 -41 -178l-53 -229q-30 -114 -4 -173.5t121 -58.5l-2 -4q-190 -46 -278 12t-52 224l16 71q-62 -142 -176.5 -233.5t-269.5 -91.5q-76 0 -139 26 t-104 71.5t-66 108.5t-26 137zM263.5 314q10.5 -96 69 -155.5t156.5 -60.5q73 0 136 29t106 76.5t71.5 102t41.5 112.5l14 61l14 64q18 84 19 158t-16.5 136t-64 98t-118.5 36q-140 0 -254.5 -124t-161.5 -315q-23 -122 -12.5 -218zM555 1178q12 51 72.5 82.5t150.5 31.5 q89 0 135.5 -31.5t34.5 -82.5q-11 -51 -72.5 -83t-150.5 -32q-90 0 -136 32t-34 83zM664 1178q-10 -46 7.5 -73.5t57.5 -27.5t70.5 27.5t40.5 73.5q10 45 -8 72.5t-58 27.5t-70 -27t-40 -73z" glyph-name="aring" horiz-adv-x="1249" unicode="å"/>
<glyph d="M2 256q61 245 504 285q57 5 175 16t181 16l31 136q29 131 -27.5 198.5t-197.5 67.5q-73 1 -140.5 -22.5t-117.5 -60t-92 -85t-69 -94t-44 -90.5h-6q-23 39 -23 81t20.5 81.5t63.5 75.5t101.5 63t139 43t171.5 16q314 0 360 -172q180 172 432 172q84 0 149.5 -23.5 t105.5 -64t64.5 -95t25.5 -116t-11 -127.5h-2v-4h-745q-42 -188 30.5 -297.5t247.5 -110.5q126 0 237.5 55.5t182.5 151.5h10q-95 -162 -238.5 -266t-318.5 -104q-178 0 -277.5 103.5t-97.5 270.5q-44 -176 -161.5 -275t-305.5 -99q-214 0 -301 68.5t-57 205.5zM218 164 q5 -46 25 -81.5t68.5 -57t120.5 -21.5q61 0 117.5 19.5t108 60.5t92.5 111.5t63 164.5l47 207q-92 -10 -280 -26q-155 -14 -241 -88.5t-112 -192.5q-14 -50 -9 -96zM1053 563h579q18 83 18 155t-19 129.5t-64.5 90.5t-112.5 33q-142 0 -250 -115.5t-151 -292.5z" glyph-name="ae" horiz-adv-x="1841" unicode="æ"/>
<glyph d="M55 481q49 218 235 360t453 142q106 0 185.5 -22.5t121.5 -60.5t56.5 -84.5t-5 -97t-67.5 -95.5h-6q3 45 -1.5 89t-22.5 93t-48.5 85.5t-85 60.5t-127.5 24q-89 -1 -167.5 -35t-135.5 -92t-97.5 -131.5t-59.5 -157.5q-44 -189 37 -301t276 -113q140 0 259.5 54t205.5 153 h12q-101 -169 -259 -269.5t-351 -100.5h-8l-76 -119q141 0 203 -30.5t49 -94.5q-19 -75 -114.5 -111.5t-278.5 -36.5l2 11q249 0 278 125q12 53 -35 78.5t-157 25.5l112 152q-147 5 -245.5 72t-133.5 178t-4 249z" glyph-name="ccedilla" horiz-adv-x="1150" unicode="ç"/>
<glyph d="M55 481q49 213 232.5 357.5t437.5 144.5q77 0 140.5 -16.5t107.5 -45.5t76 -69.5t46 -87.5t17.5 -100t-10.5 -107h-2l2 -4h-821q-40 -188 42 -297.5t273 -110.5q138 0 259.5 55.5t197.5 151.5h12q-99 -161 -255.5 -265.5t-348.5 -104.5q-232 0 -344 143t-62 356zM283 563 h639q19 81 15.5 154.5t-25 130t-72.5 90t-125 33.5q-157 0 -273 -116t-159 -292zM502 1329h213q75 -144 198 -264h-14q-195 94 -397 264z" glyph-name="egrave" horiz-adv-x="1146" unicode="è"/>
<glyph d="M55 481q49 213 232.5 357.5t437.5 144.5q77 0 140.5 -16.5t107.5 -45.5t76 -69.5t46 -87.5t17.5 -100t-10.5 -107h-2l2 -4h-821q-40 -188 42 -297.5t273 -110.5q138 0 259.5 55.5t197.5 151.5h12q-99 -161 -255.5 -265.5t-348.5 -104.5q-232 0 -344 143t-62 356zM283 563 h639q19 81 15.5 154.5t-25 130t-72.5 90t-125 33.5q-157 0 -273 -116t-159 -292zM606 1065q127 124 197 264h215q-202 -170 -397 -264h-15z" glyph-name="eacute" horiz-adv-x="1146" unicode="é"/>
<glyph d="M55 481q49 213 232.5 357.5t437.5 144.5q77 0 140.5 -16.5t107.5 -45.5t76 -69.5t46 -87.5t17.5 -100t-10.5 -107h-2l2 -4h-821q-40 -188 42 -297.5t273 -110.5q138 0 259.5 55.5t197.5 151.5h12q-99 -161 -255.5 -265.5t-348.5 -104.5q-232 0 -344 143t-62 356zM283 563 h639q19 81 15.5 154.5t-25 130t-72.5 90t-125 33.5q-157 0 -273 -116t-159 -292zM444 1065l344 264l230 -264h-17l-237 152l-305 -152h-15z" glyph-name="ecircumflex" horiz-adv-x="1146" unicode="ê"/>
<glyph d="M55 481q49 213 232.5 357.5t437.5 144.5q77 0 140.5 -16.5t107.5 -45.5t76 -69.5t46 -87.5t17.5 -100t-10.5 -107h-2l2 -4h-821q-40 -188 42 -297.5t273 -110.5q138 0 259.5 55.5t197.5 151.5h12q-99 -161 -255.5 -265.5t-348.5 -104.5q-232 0 -344 143t-62 356zM283 563 h639q19 81 15.5 154.5t-25 130t-72.5 90t-125 33.5q-157 0 -273 -116t-159 -292zM498 1159q9 38 45 64t80 26t68.5 -26t15.5 -64q-9 -40 -46 -67t-81 -27t-67.5 27t-14.5 67zM793 1159q9 38 46 64t81 26t67 -26t14 -64q-9 -40 -44.5 -67t-79.5 -27t-68.5 27t-15.5 67z" glyph-name="edieresis" horiz-adv-x="1146" unicode="ë"/>
<glyph d="M12 0l201 866q127 21 242 107l-226 -973h-217zM215 1425h213q14 -147 80 -264h-14q-151 92 -279 264z" glyph-name="igrave" horiz-adv-x="479" unicode="ì"/>
<glyph d="M12 0l201 866q127 21 242 107l-226 -973h-217zM262 1161q127 124 197 264h215q-201 -169 -398 -264h-14z" glyph-name="iacute" horiz-adv-x="479" unicode="í"/>
<glyph d="M12 0l201 866q127 21 242 107l-226 -973h-217zM98 1161l344 264l230 -264h-17l-237 152l-305 -152h-15z" glyph-name="icircumflex" horiz-adv-x="479" unicode="î"/>
<glyph d="M12 0l201 866q127 21 242 107l-226 -973h-217zM154 1255q9 38 45 64.5t80 26.5t68 -26.5t15 -64.5q-9 -40 -45.5 -67t-80.5 -27t-67.5 27t-14.5 67zM449 1255q9 38 45.5 64.5t80.5 26.5t67.5 -26.5t14.5 -64.5q-9 -40 -45 -67t-80 -27t-68 27t-15 67z" glyph-name="idieresis" horiz-adv-x="479" unicode="ï"/>
<glyph d="M44.5 254.5q-20.5 89.5 4.5 206.5q33 142 123.5 252t215.5 169.5t263 59.5q151 0 239.5 -62.5t98.5 -179.5q15 307 -135 519l-287 -158l-4 10l285 158q-87 119 -217 203h20q141 -71 258 -170l312 172l4 -9l-307 -170q167 -148 231.5 -335t17.5 -390q-59 -254 -251 -401 t-441 -147q-112 0 -201 31t-149 91.5t-80.5 150zM272 461q-49 -211 19.5 -340t206.5 -129q90 1 167.5 41t134 109.5t96 155.5t62.5 187q18 81 25 131q7 141 -64.5 220t-201.5 79q-140 0 -268 -122t-177 -332z" glyph-name="eth" horiz-adv-x="1224" unicode="ð"/>
<glyph d="M-27 0l201 866q129 22 240 107l-84 -361q70 174 204 273.5t320 99.5q176 0 244 -93t28 -271l-143 -621h-217l156 672q33 140 -5.5 209t-154.5 69q-86 0 -172 -44t-163 -141.5t-116 -232.5l-123 -532h-215zM530 1255h13q11 -46 34.5 -66t67.5 -20q39 0 86 25.5t95.5 51.5 t91.5 26q62 0 87.5 -47t20.5 -144h-14q-9 45 -33.5 65.5t-69.5 20.5q-39 0 -86 -25.5t-95 -51t-91 -25.5q-62 0 -87 47t-20 143z" glyph-name="ntilde" horiz-adv-x="1189" unicode="ñ"/>
<glyph d="M51.5 277q-23.5 92 3.5 204q33 147 135 262.5t245.5 177.5t301.5 62q118 0 214 -36t157 -102t84.5 -158.5t-2.5 -205.5q-34 -146 -136.5 -261t-246 -176.5t-301.5 -61.5q-118 0 -214 36t-156.5 101.5t-84 157.5zM293 481q-57 -240 2.5 -365.5t212.5 -125.5t271 125.5 t175 365.5q54 242 -6 368t-213 126t-270.5 -126t-171.5 -368zM530 1329h213q74 -142 199 -264h-14q-197 95 -398 264z" glyph-name="ograve" horiz-adv-x="1257" unicode="ò"/>
<glyph d="M51.5 277q-23.5 92 3.5 204q33 147 135 262.5t245.5 177.5t301.5 62q118 0 214 -36t157 -102t84.5 -158.5t-2.5 -205.5q-34 -146 -136.5 -261t-246 -176.5t-301.5 -61.5q-118 0 -214 36t-156.5 101.5t-84 157.5zM293 481q-57 -240 2.5 -365.5t212.5 -125.5t271 125.5 t175 365.5q54 242 -6 368t-213 126t-270.5 -126t-171.5 -368zM635 1065q125 123 196 264h216q-201 -169 -398 -264h-14z" glyph-name="oacute" horiz-adv-x="1257" unicode="ó"/>
<glyph d="M51.5 277q-23.5 92 3.5 204q33 147 135 262.5t245.5 177.5t301.5 62q118 0 214 -36t157 -102t84.5 -158.5t-2.5 -205.5q-34 -146 -136.5 -261t-246 -176.5t-301.5 -61.5q-118 0 -214 36t-156.5 101.5t-84 157.5zM293 481q-57 -240 2.5 -365.5t212.5 -125.5t271 125.5 t175 365.5q54 242 -6 368t-213 126t-270.5 -126t-171.5 -368zM471 1065l344 264l229 -264h-16l-237 152l-306 -152h-14z" glyph-name="ocircumflex" horiz-adv-x="1257" unicode="ô"/>
<glyph d="M51.5 277q-23.5 92 3.5 204q33 147 135 262.5t245.5 177.5t301.5 62q118 0 214 -36t157 -102t84.5 -158.5t-2.5 -205.5q-34 -146 -136.5 -261t-246 -176.5t-301.5 -61.5q-118 0 -214 36t-156.5 101.5t-84 157.5zM293 481q-57 -240 2.5 -365.5t212.5 -125.5t271 125.5 t175 365.5q54 242 -6 368t-213 126t-270.5 -126t-171.5 -368zM532 1255h13q11 -46 34.5 -66t67.5 -20q39 0 86 25.5t95.5 51.5t91.5 26q62 0 87.5 -47t20.5 -144h-14q-9 45 -33.5 65.5t-69.5 20.5q-39 0 -86 -25.5t-95 -51t-91 -25.5q-62 0 -87 47t-20 143z" glyph-name="otilde" horiz-adv-x="1257" unicode="õ"/>
<glyph d="M51.5 277q-23.5 92 3.5 204q33 147 135 262.5t245.5 177.5t301.5 62q118 0 214 -36t157 -102t84.5 -158.5t-2.5 -205.5q-34 -146 -136.5 -261t-246 -176.5t-301.5 -61.5q-118 0 -214 36t-156.5 101.5t-84 157.5zM293 481q-57 -240 2.5 -365.5t212.5 -125.5t271 125.5 t175 365.5q54 242 -6 368t-213 126t-270.5 -126t-171.5 -368zM526 1159q9 38 45 64t80 26t68.5 -26t15.5 -64q-9 -40 -46 -67t-81 -27t-67.5 27t-14.5 67zM821 1159q9 38 46 64t81 26t67.5 -26t14.5 -64q-9 -40 -45 -67t-80 -27t-68.5 27t-15.5 67z" glyph-name="odieresis" horiz-adv-x="1257" unicode="ö"/>
<glyph d="M-49 -18l184 139q-131 141 -80 360q33 147 135 262.5t245.5 177.5t301.5 62q234 0 363 -129l172 129h20l-184 -139q131 -141 82 -363q-34 -146 -136.5 -261t-246 -176.5t-301.5 -61.5q-234 0 -363 129l-172 -129h-20zM268 221l707 537q-17 108 -79 162.5t-161 54.5 q-153 0 -270.5 -126t-171.5 -368q-37 -151 -25 -260zM270 209q13 -108 75 -163.5t163 -55.5q153 0 271 125.5t175 365.5q35 157 23 262z" glyph-name="oslash" horiz-adv-x="1257" unicode="ø"/>
<glyph d="M43 317l127 543q126 20 240 107l-166 -727q-28 -121 18 -173.5t160 -52.5q64 0 130 29.5t127 85t111.5 145t77.5 199.5l90 387q127 21 242 107l-223 -967h-217l84 362q-69 -175 -202 -277.5t-308 -102.5q-187 0 -258.5 78.5t-32.5 256.5zM498 1329h213q75 -144 198 -264 h-14q-195 94 -397 264z" glyph-name="ugrave" horiz-adv-x="1185" unicode="ù"/>
<glyph d="M43 317l127 543q126 20 240 107l-166 -727q-28 -121 18 -173.5t160 -52.5q64 0 130 29.5t127 85t111.5 145t77.5 199.5l90 387q127 21 242 107l-223 -967h-217l84 362q-69 -175 -202 -277.5t-308 -102.5q-187 0 -258.5 78.5t-32.5 256.5zM604 1065q127 124 197 264h215 q-201 -169 -398 -264h-14z" glyph-name="uacute" horiz-adv-x="1185" unicode="ú"/>
<glyph d="M43 317l127 543q126 20 240 107l-166 -727q-28 -121 18 -173.5t160 -52.5q64 0 130 29.5t127 85t111.5 145t77.5 199.5l90 387q127 21 242 107l-223 -967h-217l84 362q-69 -175 -202 -277.5t-308 -102.5q-187 0 -258.5 78.5t-32.5 256.5zM440 1065l344 264l230 -264h-17 l-237 152l-305 -152h-15z" glyph-name="ucircumflex" horiz-adv-x="1185" unicode="û"/>
<glyph d="M43 317l127 543q126 20 240 107l-166 -727q-28 -121 18 -173.5t160 -52.5q64 0 130 29.5t127 85t111.5 145t77.5 199.5l90 387q127 21 242 107l-223 -967h-217l84 362q-69 -175 -202 -277.5t-308 -102.5q-187 0 -258.5 78.5t-32.5 256.5zM494 1159q9 38 44.5 64t79.5 26 t68.5 -26t15.5 -64q-9 -40 -46 -67t-81 -27t-67 27t-14 67zM788 1159q9 38 46 64t81 26t67.5 -26t14.5 -64q-9 -40 -45 -67t-80 -27t-68.5 27t-15.5 67z" glyph-name="udieresis" horiz-adv-x="1185" unicode="ü"/>
<glyph d="M-35 -410l438 398l-284 968h233l213 -737l533 737h14l-706 -979l-244 -387h-197zM543 1065q125 123 196 264h215q-202 -170 -397 -264h-14z" glyph-name="yacute" horiz-adv-x="1034" unicode="ý"/>
<glyph d="M-121 -410l94 410l316 1366q121 17 241 107l-202 -875q67 175 193.5 281t301.5 106q212 0 316 -139.5t53 -362.5q-52 -221 -223.5 -361t-376.5 -140q-89 0 -154.5 31.5t-102 86.5t-51.5 125t-8 152l-182 -787h-215zM303 483q-50 -210 19.5 -339.5t214.5 -129.5 q134 0 255.5 127t170.5 342q34 148 14.5 252.5t-79 160.5t-146.5 56q-148 0 -273 -123.5t-176 -345.5z" glyph-name="thorn" horiz-adv-x="1259" unicode="þ"/>
</font>
</defs>
</svg>
